SplineFontDB: 3.2
FontName: EZOxeia
FullName: EZ Oxeia
FamilyName: EZ Oxeia
Weight: Book
Copyright: 
Version: 1.0
ItalicAngle: 0
UnderlinePosition: 0
UnderlineWidth: 0
Ascent: 800
Descent: 200
InvalidEm: 0
sfntRevision: 0x00000000
LayerCount: 2
Layer: 0 1 "Back" 1
Layer: 1 1 "Fore" 0
XUID: [1021 904 -49705511 32327]
StyleMap: 0x0040
FSType: 0
OS2Version: 0
OS2_WeightWidthSlopeOnly: 0
OS2_UseTypoMetrics: 0
CreationTime: -2082844800
ModificationTime: 1647065363
PfmFamily: 17
TTFWeight: 400
TTFWidth: 5
LineGap: 0
VLineGap: 0
Panose: 2 11 6 3 5 3 2 2 2 4
OS2TypoAscent: 1928
OS2TypoAOffset: 0
OS2TypoDescent: 40
OS2TypoDOffset: 0
OS2TypoLinegap: 0
OS2WinAscent: 1928
OS2WinAOffset: 0
OS2WinDescent: -40
OS2WinDOffset: 0
HheadAscent: 1928
HheadAOffset: 0
HheadDescent: 40
HheadDOffset: 0
OS2SubXSize: 0
OS2SubYSize: 0
OS2SubXOff: 0
OS2SubYOff: 0
OS2SupXSize: 0
OS2SupYSize: 0
OS2SupXOff: 0
OS2SupYOff: 0
OS2StrikeYSize: 0
OS2StrikeYPos: 0
OS2UnicodeRanges: 00000000.00000000.00000000.00000000
MarkAttachClasses: 1
DEI: 91125
ShortTable: maxp 16
  1
  0
  105
  176
  6
  0
  0
  1
  0
  16
  0
  0
  0
  0
  0
  0
EndShort
LangName: 1033 "" "" "Regular" "EZ Oxeia"
Encoding: Mac
UnicodeInterp: none
NameList: AGL For New Fonts
DisplaySize: -48
AntiAlias: 1
FitToEm: 0
WinInfo: 0 38 12
BeginPrivate: 0
EndPrivate
BeginChars: 256 105

StartChar: .notdef
Encoding: 255 711 0
AltUni2: 0002db.ffffffff.0 0002dd.ffffffff.0 0000b8.ffffffff.0 0002da.ffffffff.0 0002d9.ffffffff.0 0002d8.ffffffff.0 0002dc.ffffffff.0 0002c6.ffffffff.0 000131.ffffffff.0 0000d9.ffffffff.0 0000db.ffffffff.0 0000da.ffffffff.0 0000d2.ffffffff.0 0000d4.ffffffff.0 0000d3.ffffffff.0 0000cc.ffffffff.0 0000cf.ffffffff.0 0000ce.ffffffff.0 0000cd.ffffffff.0 0000c8.ffffffff.0 0000cb.ffffffff.0 0000c1.ffffffff.0 0000ca.ffffffff.0 0000c2.ffffffff.0 00201e.ffffffff.0 00201a.ffffffff.0 0000b7.ffffffff.0 002021.ffffffff.0 00fb02.ffffffff.0 00fb01.ffffffff.0 00203a.ffffffff.0 002039.ffffffff.0 0000a4.ffffffff.0 002044.ffffffff.0 000178.ffffffff.0 0000ff.ffffffff.0 0000f7.ffffffff.0 002019.ffffffff.0 002018.ffffffff.0 00201d.ffffffff.0 00201c.ffffffff.0 002014.ffffffff.0 000153.ffffffff.0 0000d5.ffffffff.0 0000c3.ffffffff.0 0000c0.ffffffff.0 002026.ffffffff.0 0000bb.ffffffff.0 0000ab.ffffffff.0 002206.ffffffff.0 002248.ffffffff.0 000192.ffffffff.0 00221a.ffffffff.0 0000ac.ffffffff.0 0000a1.ffffffff.0 0000bf.ffffffff.0 0000f8.ffffffff.0 0000e6.ffffffff.0 002126.ffffffff.0 0000ba.ffffffff.0 0000aa.ffffffff.0 0003c0.ffffffff.0 00220f.ffffffff.0 002211.ffffffff.0 002202.ffffffff.0 0000b5.ffffffff.0 0000a5.ffffffff.0 002265.ffffffff.0 002264.ffffffff.0 0000b1.ffffffff.0 00221e.ffffffff.0 0000d8.ffffffff.0 0000c6.ffffffff.0 002260.ffffffff.0 0000a8.ffffffff.0 0000b4.ffffffff.0 002122.ffffffff.0 0000a9.ffffffff.0 0000ae.ffffffff.0 0000df.ffffffff.0 0000b6.ffffffff.0 002022.ffffffff.0 0000a7.ffffffff.0 0000a3.ffffffff.0 0000a2.ffffffff.0 0000b0.ffffffff.0 002020.ffffffff.0 0000fc.ffffffff.0 0000fb.ffffffff.0 0000f9.ffffffff.0 0000fa.ffffffff.0 0000f5.ffffffff.0 0000f6.ffffffff.0 0000f4.ffffffff.0 0000f2.ffffffff.0 0000f3.ffffffff.0 0000f1.ffffffff.0 0000ef.ffffffff.0 0000ee.ffffffff.0 0000ec.ffffffff.0 0000ed.ffffffff.0 0000ea.ffffffff.0 0000e8.ffffffff.0 0000e9.ffffffff.0 0000e7.ffffffff.0 0000e5.ffffffff.0 0000e3.ffffffff.0 0000e4.ffffffff.0 0000e2.ffffffff.0 0000e0.ffffffff.0 0000e1.ffffffff.0 0000dc.ffffffff.0 0000d6.ffffffff.0 0000d1.ffffffff.0 0000c9.ffffffff.0 0000c7.ffffffff.0 0000c5.ffffffff.0 0000c4.ffffffff.0 00007f.ffffffff.0 00001f.ffffffff.0 00001e.ffffffff.0 00001c.ffffffff.0 00001b.ffffffff.0 00001a.ffffffff.0 000019.ffffffff.0 000018.ffffffff.0 000017.ffffffff.0 000016.ffffffff.0 000015.ffffffff.0 000014.ffffffff.0 000013.ffffffff.0 000012.ffffffff.0 000011.ffffffff.0 000010.ffffffff.0 00000f.ffffffff.0 00000e.ffffffff.0 00000c.ffffffff.0 00000b.ffffffff.0 00000a.ffffffff.0 000007.ffffffff.0 000006.ffffffff.0 000005.ffffffff.0 000004.ffffffff.0 000003.ffffffff.0 000002.ffffffff.0 000001.ffffffff.0
Width: 0
VWidth: 345
Flags: W
LayerCount: 2
Fore
SplineSet
-702 1080 m 1,0,1
 -757 1078 -757 1078 -790 1062 c 128,-1,2
 -823 1046 -823 1046 -852 1009 c 1,3,-1
 -845 1000 l 1,4,5
 -802 1041 -802 1041 -769 1048.5 c 128,-1,6
 -736 1056 -736 1056 -702 1058 c 1,7,8
 -656 1055 -656 1055 -627.5 1044.5 c 128,-1,9
 -599 1034 -599 1034 -564 1000 c 1,10,-1
 -558 1010 l 1,11,12
 -594 1052 -594 1052 -625.5 1064.5 c 128,-1,13
 -657 1077 -657 1077 -702 1080 c 1,0,1
-718 970 m 2,14,15
 -717 983 -717 983 -702.5 982.5 c 128,-1,16
 -688 982 -688 982 -687 971 c 2,17,-1
 -687 703 l 2,18,19
 -687 688 l 1,20,21
 -693 675 -693 675 -705.5 677 c 128,-1,22
 -718 679 -718 679 -718 688 c 2,23,-1
 -718 956 l 2,24,25
 -718 970 l 2,14,15
EndSplineSet
EndChar

StartChar: nine
Encoding: 57 57 4
Width: 1538
VWidth: 345
Flags: W
LayerCount: 2
Fore
SplineSet
371 697 m 0,0,1
 401 697 401 697 434 696 c 128,-1,2
 467 695 467 695 493 690 c 1,3,4
 512 690 512 690 533 626 c 128,-1,5
 554 562 554 562 583 501 c 0,6,7
 592 480 592 480 602 477 c 0,8,9
 610 474 610 474 614 466.5 c 128,-1,10
 618 459 618 459 605 453 c 1,11,12
 575 447 575 447 543.5 448 c 128,-1,13
 512 449 512 449 484 453 c 1,14,15
 458 465 458 465 443 510.5 c 128,-1,16
 428 556 428 556 397 643 c 0,17,18
 395 648 395 648 386.5 658.5 c 128,-1,19
 378 669 378 669 368 671 c 0,20,21
 354 673 354 673 352 684.5 c 128,-1,22
 350 696 350 696 371 697 c 0,0,1
612 697 m 0,23,24
 642 697 642 697 675 696 c 128,-1,25
 708 695 708 695 734 690 c 1,26,27
 753 690 753 690 774 626 c 128,-1,28
 795 562 795 562 823 501 c 0,29,30
 832 480 832 480 842 477 c 0,31,32
 850 474 850 474 854.5 466.5 c 128,-1,33
 859 459 859 459 846 453 c 1,34,35
 816 447 816 447 784.5 448 c 128,-1,36
 753 449 753 449 726 453 c 1,37,38
 700 465 700 465 684.5 510.5 c 128,-1,39
 669 556 669 556 639 643 c 0,40,41
 636 648 636 648 627.5 658.5 c 128,-1,42
 619 669 619 669 609 671 c 0,43,44
 595 673 595 673 593 684.5 c 128,-1,45
 591 696 591 696 612 697 c 0,23,24
1442 1173 m 1,46,47
 1458 1170 1458 1170 1456 1156.5 c 128,-1,48
 1454 1143 1454 1143 1436 1141 c 1,49,50
 1415 1134 1415 1134 1402 1088.5 c 128,-1,51
 1389 1043 1389 1043 1375 992 c 0,52,53
 1341 873 1341 873 1313 799 c 128,-1,54
 1285 725 1285 725 1259.5 695 c 128,-1,55
 1234 665 1234 665 1199 650 c 0,56,57
 1145 627 1145 627 1092.5 615.5 c 128,-1,58
 1040 604 1040 604 1001 604 c 1,59,60
 1020 559 1020 559 1065 541.5 c 128,-1,61
 1110 524 1110 524 1091 504 c 0,62,63
 1080 493 1080 493 1022 533 c 128,-1,64
 964 573 964 573 942 612 c 1,65,66
 942 637 942 637 962.5 633 c 128,-1,67
 983 629 983 629 1006 627 c 256,68,69
 1029 626 1029 626 1054 630 c 128,-1,70
 1079 634 1079 634 1120 655 c 0,71,72
 1140 665 1140 665 1157.5 700.5 c 128,-1,73
 1175 736 1175 736 1189.5 779 c 128,-1,74
 1204 822 1204 822 1214 864.5 c 128,-1,75
 1224 907 1224 907 1240.5 987 c 128,-1,76
 1257 1067 1257 1067 1268.5 1094 c 128,-1,77
 1280 1121 1280 1121 1301.5 1138 c 128,-1,78
 1323 1155 1323 1155 1342.5 1159.5 c 128,-1,79
 1362 1164 1362 1164 1386 1166.5 c 128,-1,80
 1410 1169 1410 1169 1442 1173 c 1,46,47
872 1270 m 1,81,82
 886 1268 886 1268 884.5 1257.5 c 128,-1,83
 883 1247 883 1247 866 1246 c 1,84,85
 848 1240 848 1240 837 1206.5 c 128,-1,86
 826 1173 826 1173 813 1136 c 0,87,88
 783 1048 783 1048 758.5 992.5 c 128,-1,89
 734 937 734 937 712 915 c 128,-1,90
 690 893 690 893 659 882 c 0,91,92
 611 865 611 865 565 856 c 128,-1,93
 519 847 519 847 486 847 c 1,94,95
 502 814 502 814 541.5 801 c 128,-1,96
 581 788 581 788 564 773 c 0,97,98
 554 765 554 765 503.5 795 c 128,-1,99
 453 825 453 825 434 853 c 1,100,101
 434 872 434 872 451.5 869 c 128,-1,102
 469 866 469 866 490 865 c 0,103,104
 511 864 511 864 532 866.5 c 128,-1,105
 553 869 553 869 589 885 c 0,106,107
 606 893 606 893 622 919.5 c 128,-1,108
 638 946 638 946 650.5 978 c 128,-1,109
 663 1010 663 1010 672 1041.5 c 128,-1,110
 681 1073 681 1073 695 1132 c 128,-1,111
 709 1191 709 1191 719.5 1211 c 128,-1,112
 730 1231 730 1231 749 1243.5 c 128,-1,113
 768 1256 768 1256 785 1259.5 c 128,-1,114
 802 1263 802 1263 823 1265 c 128,-1,115
 844 1267 844 1267 872 1270 c 1,81,82
81 266 m 128,-1,117
 85 272 85 272 91 273 c 128,-1,118
 97 274 97 274 140.5 276 c 128,-1,119
 184 278 184 278 318 300 c 2,120,-1
 959 402 l 2,121,122
 1049 417 1049 417 1085 421 c 128,-1,123
 1121 425 1121 425 1153.5 424.5 c 128,-1,124
 1186 424 1186 424 1210.5 420 c 128,-1,125
 1235 416 1235 416 1268.5 409.5 c 128,-1,126
 1302 403 1302 403 1333 394 c 128,-1,127
 1364 385 1364 385 1391 373 c 128,-1,128
 1418 361 1418 361 1425.5 347.5 c 128,-1,129
 1433 334 1433 334 1423.5 329.5 c 128,-1,130
 1414 325 1414 325 1399.5 324.5 c 128,-1,131
 1385 324 1385 324 1360 324 c 128,-1,132
 1335 324 1335 324 1310.5 324 c 128,-1,133
 1286 324 1286 324 1239.5 319.5 c 128,-1,134
 1193 315 1193 315 1136 306 c 2,135,-1
 344 181 l 1,136,137
 296 176 296 176 277 176 c 128,-1,138
 258 176 258 176 242 177.5 c 128,-1,139
 226 179 226 179 211 183 c 128,-1,140
 196 187 196 187 179 193.5 c 128,-1,141
 162 200 162 200 143.5 210 c 128,-1,142
 125 220 125 220 106.5 232.5 c 128,-1,143
 88 245 88 245 82.5 252.5 c 128,-1,116
 77 260 77 260 81 266 c 128,-1,117
EndSplineSet
EndChar

StartChar: one
Encoding: 49 49 5
Width: 1515
VWidth: 345
Flags: W
LayerCount: 2
Fore
SplineSet
66 339 m 128,-1,1
 70 345 70 345 76 346 c 128,-1,2
 82 347 82 347 125.5 349 c 128,-1,3
 169 351 169 351 303 373 c 2,4,-1
 944 475 l 2,5,6
 1034 490 1034 490 1070 494 c 128,-1,7
 1106 498 1106 498 1138.5 497.5 c 128,-1,8
 1171 497 1171 497 1195.5 493 c 128,-1,9
 1220 489 1220 489 1254 482.5 c 128,-1,10
 1288 476 1288 476 1319 467 c 128,-1,11
 1350 458 1350 458 1377 446 c 128,-1,12
 1404 434 1404 434 1411 420.5 c 128,-1,13
 1418 407 1418 407 1408.5 403 c 128,-1,14
 1399 399 1399 399 1384.5 398.5 c 128,-1,15
 1370 398 1370 398 1345 398 c 128,-1,16
 1320 398 1320 398 1295.5 397.5 c 128,-1,17
 1271 397 1271 397 1225 392.5 c 128,-1,18
 1179 388 1179 388 1121 380 c 2,19,-1
 330 254 l 1,20,21
 282 249 282 249 263 249 c 128,-1,22
 244 249 244 249 227.5 250.5 c 128,-1,23
 211 252 211 252 196.5 256.5 c 128,-1,24
 182 261 182 261 164.5 267.5 c 128,-1,25
 147 274 147 274 129 283.5 c 128,-1,26
 111 293 111 293 92 305.5 c 128,-1,27
 73 318 73 318 67.5 325.5 c 128,-1,0
 62 333 62 333 66 339 c 128,-1,1
EndSplineSet
EndChar

StartChar: grave
Encoding: 96 96 6
Width: 1515
VWidth: 345
Flags: W
LayerCount: 2
Fore
SplineSet
66 339 m 128,-1,1
 70 345 70 345 76 346 c 128,-1,2
 82 347 82 347 125.5 349 c 128,-1,3
 169 351 169 351 303 373 c 2,4,-1
 944 475 l 2,5,6
 1034 490 1034 490 1070 494 c 128,-1,7
 1106 498 1106 498 1138.5 497.5 c 128,-1,8
 1171 497 1171 497 1195.5 493 c 128,-1,9
 1220 489 1220 489 1254 482.5 c 128,-1,10
 1288 476 1288 476 1319 467 c 128,-1,11
 1350 458 1350 458 1377 446 c 128,-1,12
 1404 434 1404 434 1411 420.5 c 128,-1,13
 1418 407 1418 407 1408.5 403 c 128,-1,14
 1399 399 1399 399 1384.5 398.5 c 128,-1,15
 1370 398 1370 398 1345 398 c 128,-1,16
 1320 398 1320 398 1295.5 397.5 c 128,-1,17
 1271 397 1271 397 1225 392.5 c 128,-1,18
 1179 388 1179 388 1121 380 c 2,19,-1
 330 254 l 1,20,21
 282 249 282 249 263 249 c 128,-1,22
 244 249 244 249 227.5 250.5 c 128,-1,23
 211 252 211 252 196.5 256.5 c 128,-1,24
 182 261 182 261 164.5 267.5 c 128,-1,25
 147 274 147 274 129 283.5 c 128,-1,26
 111 293 111 293 92 305.5 c 128,-1,27
 73 318 73 318 67.5 325.5 c 128,-1,0
 62 333 62 333 66 339 c 128,-1,1
819 832 m 0,28,29
 842 831 842 831 840.5 819.5 c 128,-1,30
 839 808 839 808 823 805 c 0,31,32
 810 803 810 803 801 795.5 c 128,-1,33
 792 788 792 788 790 783 c 0,34,35
 754 705 754 705 734.5 647.5 c 128,-1,36
 715 590 715 590 685 579 c 1,37,38
 653 576 653 576 617 574.5 c 128,-1,39
 581 573 581 573 547 579 c 1,40,41
 532 584 532 584 537 590.5 c 128,-1,42
 542 597 542 597 551 600 c 0,43,44
 561 603 561 603 573 621 c 0,45,46
 608 677 608 677 633 751 c 128,-1,47
 658 825 658 825 680 825 c 1,48,49
 710 829 710 829 747 830.5 c 128,-1,50
 784 832 784 832 819 832 c 0,28,29
EndSplineSet
EndChar

StartChar: asciitilde
Encoding: 126 126 7
Width: 169
VWidth: 345
Flags: W
LayerCount: 2
Fore
SplineSet
-135 615 m 0,0,1
 -102 620 -102 620 -64.5 625 c 128,-1,2
 -27 630 -27 630 4 631 c 1,3,4
 25 634 25 634 63 556 c 128,-1,5
 101 478 101 478 145 422 c 0,6,7
 160 403 160 403 170 403 c 0,8,9
 180 402 180 402 186 395 c 128,-1,10
 192 388 192 388 178 380 c 1,11,12
 144 369 144 369 109 364 c 128,-1,13
 74 359 74 359 42 359 c 1,14,15
 10 366 10 366 -19.5 427 c 128,-1,16
 -49 488 -49 488 -97 567 c 0,17,18
 -100 571 -100 571 -110.5 578.5 c 128,-1,19
 -121 586 -121 586 -134 586 c 0,20,21
 -150 586 -150 586 -154 598.5 c 128,-1,22
 -158 611 -158 611 -135 615 c 0,0,1
EndSplineSet
EndChar

StartChar: macron
Encoding: 248 175 8
Width: 0
VWidth: 345
Flags: W
LayerCount: 2
Fore
SplineSet
-807 1022 m 0,0,1
 -734 1022 -734 1022 -659 1022.5 c 128,-1,2
 -584 1023 -584 1023 -510 1024 c 1,3,4
 -505 1017 -505 1017 -506.5 1006 c 128,-1,5
 -508 995 -508 995 -510 988 c 1,6,7
 -525 985 -525 985 -608.5 985 c 128,-1,8
 -692 985 -692 985 -753 985 c 1,9,10
 -753 933 -753 933 -751 878.5 c 128,-1,11
 -749 824 -749 824 -754 823 c 0,12,13
 -770 823 -770 823 -787.5 821 c 128,-1,14
 -805 819 -805 819 -817 823 c 0,15,16
 -818 823 -818 823 -819 833 c 0,17,18
 -818 834 l 0,19,20
 -817 835 -817 835 -817 836 c 0,21,22
 -817 889 -817 889 -816.5 921.5 c 128,-1,23
 -816 954 -816 954 -816 1007 c 0,24,25
 -816 1021 -816 1021 -807 1022 c 0,0,1
EndSplineSet
EndChar

StartChar: endash
Encoding: 208 8211 9
Width: 0
VWidth: 345
Flags: W
LayerCount: 2
Fore
SplineSet
-174 859 m 0,0,1
 -101 859 -101 859 -26 859.5 c 128,-1,2
 49 860 49 860 122 861 c 1,3,4
 127 854 127 854 126 843 c 128,-1,5
 125 832 125 832 123 824 c 1,6,7
 108 821 108 821 24.5 821.5 c 128,-1,8
 -59 822 -59 822 -121 822 c 1,9,10
 -121 770 -121 770 -118.5 705 c 128,-1,11
 -116 640 -116 640 -122 639 c 0,12,13
 -138 639 -138 639 -155 637 c 128,-1,14
 -172 635 -172 635 -185 639 c 0,15,16
 -186 639 -186 639 -186 649 c 0,17,18
 -185.5 650 l 0,19,20
 -185 651 -185 651 -185 652 c 0,21,22
 -185 705 -185 705 -184 748 c 128,-1,23
 -183 791 -183 791 -183 844 c 0,24,25
 -183 858 -183 858 -174 859 c 0,0,1
EndSplineSet
EndChar

StartChar: lozenge
Encoding: 215 9674 10
Width: 1465
VWidth: 345
Flags: W
LayerCount: 2
Fore
SplineSet
655 743 m 0,0,1
 689 743 689 743 727 742.5 c 128,-1,2
 765 742 765 742 795 738 c 1,3,4
 816 738 816 738 835 687 c 128,-1,5
 854 636 854 636 889 585 c 0,6,7
 901 567 901 567 910 566 c 0,8,9
 919 564 919 564 924 557.5 c 128,-1,10
 929 551 929 551 915 546 c 1,11,12
 880 541 880 541 844.5 542 c 128,-1,13
 809 543 809 543 777 546 c 1,14,15
 746 556 746 556 733.5 592.5 c 128,-1,16
 721 629 721 629 685 700 c 1,17,18
 675 716 675 716 651 720 c 0,19,20
 635 722 635 722 633 732.5 c 128,-1,21
 631 743 631 743 655 743 c 0,0,1
407 745 m 0,22,23
 437 745 437 745 469.5 744 c 128,-1,24
 502 743 502 743 529 739 c 1,25,26
 548 739 548 739 568.5 686.5 c 128,-1,27
 589 634 589 634 618 584 c 0,28,29
 628 566 628 566 637 564 c 0,30,31
 645 562 645 562 649 556 c 128,-1,32
 653 550 653 550 641 545 c 1,33,34
 610 540 610 540 579 541 c 128,-1,35
 548 542 548 542 520 545 c 1,36,37
 494 555 494 555 479 592 c 128,-1,38
 464 629 464 629 433 701 c 0,39,40
 430 705 430 705 422 713.5 c 128,-1,41
 414 722 414 722 403 724 c 0,42,43
 389 726 389 726 387.5 735 c 128,-1,44
 386 744 386 744 407 745 c 0,22,23
81 339 m 128,-1,46
 85 345 85 345 91 346 c 128,-1,47
 97 347 97 347 140.5 349 c 128,-1,48
 184 351 184 351 318 373 c 2,49,-1
 959 475 l 2,50,51
 1049 490 1049 490 1085 494 c 128,-1,52
 1121 498 1121 498 1153.5 497.5 c 128,-1,53
 1186 497 1186 497 1210.5 493 c 128,-1,54
 1235 489 1235 489 1268.5 482.5 c 128,-1,55
 1302 476 1302 476 1333 467 c 128,-1,56
 1364 458 1364 458 1391 446 c 128,-1,57
 1418 434 1418 434 1425.5 420.5 c 128,-1,58
 1433 407 1433 407 1423.5 403 c 128,-1,59
 1414 399 1414 399 1399.5 398.5 c 128,-1,60
 1385 398 1385 398 1360 398 c 128,-1,61
 1335 398 1335 398 1310.5 397.5 c 128,-1,62
 1286 397 1286 397 1239.5 392.5 c 128,-1,63
 1193 388 1193 388 1136 380 c 2,64,-1
 344 254 l 1,65,66
 296 249 296 249 277 249 c 128,-1,67
 258 249 258 249 242 250.5 c 128,-1,68
 226 252 226 252 211 256.5 c 128,-1,69
 196 261 196 261 179 267.5 c 128,-1,70
 162 274 162 274 143.5 283.5 c 128,-1,71
 125 293 125 293 106.5 305.5 c 128,-1,72
 88 318 88 318 82.5 325.5 c 128,-1,45
 77 333 77 333 81 339 c 128,-1,46
EndSplineSet
EndChar

StartChar: three
Encoding: 51 51 11
Width: 1515
VWidth: 345
Flags: W
LayerCount: 2
Fore
SplineSet
496 837 m 0,0,1
 530 837 530 837 567.5 836 c 128,-1,2
 605 835 605 835 635 830 c 1,3,4
 656 830 656 830 681.5 747.5 c 128,-1,5
 707 665 707 665 742 603 c 0,6,7
 754 582 754 582 764 579 c 0,8,9
 773 576 773 576 778 568.5 c 128,-1,10
 783 561 783 561 768 555 c 1,11,12
 733 549 733 549 698 550.5 c 128,-1,13
 663 552 663 552 630 555 c 1,14,15
 600 567 600 567 580.5 632 c 128,-1,16
 561 697 561 697 526 784 c 0,17,18
 523 789 523 789 513.5 797 c 128,-1,19
 504 805 504 805 492 808 c 0,20,21
 476 811 476 811 474 824 c 128,-1,22
 472 837 472 837 496 837 c 0,0,1
81 339 m 128,-1,24
 85 345 85 345 91 346 c 128,-1,25
 97 347 97 347 140.5 349 c 128,-1,26
 184 351 184 351 318 373 c 2,27,-1
 959 475 l 2,28,29
 1049 490 1049 490 1085 494 c 128,-1,30
 1121 498 1121 498 1153.5 497.5 c 128,-1,31
 1186 497 1186 497 1210.5 493 c 128,-1,32
 1235 489 1235 489 1268.5 482.5 c 128,-1,33
 1302 476 1302 476 1333 467 c 128,-1,34
 1364 458 1364 458 1391 446 c 128,-1,35
 1418 434 1418 434 1425.5 420.5 c 128,-1,36
 1433 407 1433 407 1423.5 403 c 128,-1,37
 1414 399 1414 399 1399.5 398.5 c 128,-1,38
 1385 398 1385 398 1360 398 c 128,-1,39
 1335 398 1335 398 1310.5 397.5 c 128,-1,40
 1286 397 1286 397 1239.5 392.5 c 128,-1,41
 1193 388 1193 388 1136 380 c 2,42,-1
 344 254 l 1,43,44
 296 249 296 249 277 249 c 128,-1,45
 258 249 258 249 242 250.5 c 128,-1,46
 226 252 226 252 211 256.5 c 128,-1,47
 196 261 196 261 179 267.5 c 128,-1,48
 162 274 162 274 143.5 283.5 c 128,-1,49
 125 293 125 293 106.5 305.5 c 128,-1,50
 88 318 88 318 82.5 325.5 c 128,-1,23
 77 333 77 333 81 339 c 128,-1,24
EndSplineSet
EndChar

StartChar: two
Encoding: 50 50 12
Width: 1515
VWidth: 345
Flags: W
LayerCount: 2
Fore
SplineSet
980 293 m 0,0,1
 1014 293 1014 293 1052 292 c 128,-1,2
 1090 291 1090 291 1120 287 c 1,3,4
 1141 287 1141 287 1160 236 c 128,-1,5
 1179 185 1179 185 1214 134 c 0,6,7
 1226 116 1226 116 1236 115 c 0,8,9
 1245 113 1245 113 1250 106.5 c 128,-1,10
 1255 100 1255 100 1240 95 c 1,11,12
 1205 90 1205 90 1169.5 91 c 128,-1,13
 1134 92 1134 92 1102 95 c 1,14,15
 1072 105 1072 105 1059 141.5 c 128,-1,16
 1046 178 1046 178 1011 249 c 1,17,18
 1000 266 1000 266 977 269 c 0,19,20
 961 271 961 271 958.5 282 c 128,-1,21
 956 293 956 293 980 293 c 0,0,1
81 339 m 128,-1,23
 85 345 85 345 91 346 c 128,-1,24
 97 347 97 347 140.5 349 c 128,-1,25
 184 351 184 351 318 373 c 2,26,-1
 959 475 l 2,27,28
 1049 490 1049 490 1085 494 c 128,-1,29
 1121 498 1121 498 1153.5 497.5 c 128,-1,30
 1186 497 1186 497 1210.5 493 c 128,-1,31
 1235 489 1235 489 1268.5 482.5 c 128,-1,32
 1302 476 1302 476 1333 467 c 128,-1,33
 1364 458 1364 458 1391 446 c 128,-1,34
 1418 434 1418 434 1425.5 420.5 c 128,-1,35
 1433 407 1433 407 1423.5 403 c 128,-1,36
 1414 399 1414 399 1399.5 398.5 c 128,-1,37
 1385 398 1385 398 1360 398 c 128,-1,38
 1335 398 1335 398 1310.5 397.5 c 128,-1,39
 1286 397 1286 397 1239.5 392.5 c 128,-1,40
 1193 388 1193 388 1136 380 c 2,41,-1
 344 254 l 1,42,43
 296 249 296 249 277 249 c 128,-1,44
 258 249 258 249 242 250.5 c 128,-1,45
 226 252 226 252 211 256.5 c 128,-1,46
 196 261 196 261 179 267.5 c 128,-1,47
 162 274 162 274 143.5 283.5 c 128,-1,48
 125 293 125 293 106.5 305.5 c 128,-1,49
 88 318 88 318 82.5 325.5 c 128,-1,22
 77 333 77 333 81 339 c 128,-1,23
EndSplineSet
EndChar

StartChar: OE
Encoding: 206 338 13
Width: 1465
VWidth: 345
Flags: W
LayerCount: 2
Fore
SplineSet
1029 288 m 0,0,1
 1063 288 1063 288 1101 287 c 0,2,3
 1139 287 1139 287 1169 283 c 1,4,5
 1190 283 1190 283 1209 231.5 c 128,-1,6
 1228 180 1228 180 1263 129 c 0,7,8
 1275 111 1275 111 1285 110 c 0,9,10
 1294 108 1294 108 1299 101.5 c 128,-1,11
 1304 95 1304 95 1289 91 c 1,12,13
 1254 86 1254 86 1218.5 86.5 c 128,-1,14
 1183 87 1183 87 1151 91 c 1,15,16
 1121 101 1121 101 1108 137 c 128,-1,17
 1095 173 1095 173 1060 244 c 1,18,19
 1049 261 1049 261 1026 264 c 0,20,21
 1010 266 1010 266 1007.5 277 c 128,-1,22
 1005 288 1005 288 1029 288 c 0,0,1
781 289 m 0,23,24
 811 289 811 289 843.5 288 c 128,-1,25
 876 287 876 287 903 283 c 1,26,27
 922 283 922 283 942.5 230.5 c 128,-1,28
 963 178 963 178 992 128 c 0,29,30
 1001 110 1001 110 1011 108 c 0,31,32
 1019 106 1019 106 1023 100 c 128,-1,33
 1027 94 1027 94 1015 89 c 1,34,35
 985 84 985 84 953.5 85 c 128,-1,36
 922 86 922 86 894 89 c 1,37,38
 868 99 868 99 853 136.5 c 128,-1,39
 838 174 838 174 807 245 c 0,40,41
 804 249 804 249 796 257.5 c 128,-1,42
 788 266 788 266 777 268 c 0,43,44
 763 270 763 270 761.5 279.5 c 128,-1,45
 760 289 760 289 781 289 c 0,23,24
81 363.5 m 128,-1,47
 85 370 85 370 91 371 c 128,-1,48
 97 372 97 372 140.5 373.5 c 128,-1,49
 184 375 184 375 318 397 c 2,50,-1
 959 499 l 2,51,52
 1049 514 1049 514 1085 518 c 128,-1,53
 1121 522 1121 522 1153.5 521.5 c 128,-1,54
 1186 521 1186 521 1210.5 517 c 128,-1,55
 1235 513 1235 513 1268.5 506.5 c 128,-1,56
 1302 500 1302 500 1333 491.5 c 128,-1,57
 1364 483 1364 483 1391 471 c 128,-1,58
 1418 459 1418 459 1425.5 445.5 c 128,-1,59
 1433 432 1433 432 1423.5 427.5 c 128,-1,60
 1414 423 1414 423 1399.5 422.5 c 128,-1,61
 1385 422 1385 422 1360 422 c 128,-1,62
 1335 422 1335 422 1310.5 421.5 c 128,-1,63
 1286 421 1286 421 1239.5 417 c 128,-1,64
 1193 413 1193 413 1136 404 c 2,65,-1
 344 279 l 1,66,67
 296 274 296 274 277 273.5 c 128,-1,68
 258 273 258 273 242 275 c 128,-1,69
 226 277 226 277 211 281 c 128,-1,70
 196 285 196 285 179 291.5 c 128,-1,71
 162 298 162 298 143.5 307.5 c 128,-1,72
 125 317 125 317 106.5 330 c 128,-1,73
 88 343 88 343 82.5 350 c 128,-1,46
 77 357 77 357 81 363.5 c 128,-1,47
EndSplineSet
EndChar

StartChar: four
Encoding: 52 52 14
Width: 1515
VWidth: 345
Flags: W
LayerCount: 2
Fore
SplineSet
1427 1237 m 1,0,1
 1443 1234 1443 1234 1441 1220 c 128,-1,2
 1439 1206 1439 1206 1421 1205 c 1,3,4
 1400 1198 1400 1198 1387.5 1152 c 128,-1,5
 1375 1106 1375 1106 1360 1055 c 0,6,7
 1326 936 1326 936 1298 862 c 128,-1,8
 1270 788 1270 788 1245 758.5 c 128,-1,9
 1220 729 1220 729 1185 714 c 0,10,11
 1131 691 1131 691 1078 679.5 c 128,-1,12
 1025 668 1025 668 987 668 c 1,13,14
 1006 623 1006 623 1051 605.5 c 128,-1,15
 1096 588 1096 588 1077 567 c 0,16,17
 1066 556 1066 556 1007.5 596.5 c 128,-1,18
 949 637 949 637 928 676 c 1,19,20
 928 701 928 701 948 696.5 c 128,-1,21
 968 692 968 692 992 691 c 256,22,23
 1015 690 1015 690 1039.5 693.5 c 128,-1,24
 1064 697 1064 697 1105 718 c 0,25,26
 1125 728 1125 728 1143 763.5 c 128,-1,27
 1161 799 1161 799 1175 842.5 c 128,-1,28
 1189 886 1189 886 1199 928 c 128,-1,29
 1209 970 1209 970 1225.5 1050 c 128,-1,30
 1242 1130 1242 1130 1254 1157 c 128,-1,31
 1266 1184 1266 1184 1287.5 1201 c 128,-1,32
 1309 1218 1309 1218 1328.5 1223 c 128,-1,33
 1348 1228 1348 1228 1371.5 1230.5 c 128,-1,34
 1395 1233 1395 1233 1427 1237 c 1,0,1
81 339 m 128,-1,36
 85 345 85 345 91 346 c 128,-1,37
 97 347 97 347 140.5 349 c 128,-1,38
 184 351 184 351 318 373 c 2,39,-1
 959 475 l 2,40,41
 1049 490 1049 490 1085 494 c 128,-1,42
 1121 498 1121 498 1153.5 497.5 c 128,-1,43
 1186 497 1186 497 1210.5 493 c 128,-1,44
 1235 489 1235 489 1268.5 482.5 c 128,-1,45
 1302 476 1302 476 1333 467 c 128,-1,46
 1364 458 1364 458 1391 446 c 128,-1,47
 1418 434 1418 434 1425.5 420.5 c 128,-1,48
 1433 407 1433 407 1423.5 403 c 128,-1,49
 1414 399 1414 399 1399.5 398.5 c 128,-1,50
 1385 398 1385 398 1360 398 c 128,-1,51
 1335 398 1335 398 1310.5 397.5 c 128,-1,52
 1286 397 1286 397 1239.5 392.5 c 128,-1,53
 1193 388 1193 388 1136 380 c 2,54,-1
 344 254 l 1,55,56
 296 249 296 249 277 249 c 128,-1,57
 258 249 258 249 242 250.5 c 128,-1,58
 226 252 226 252 211 256.5 c 128,-1,59
 196 261 196 261 179 267.5 c 128,-1,60
 162 274 162 274 143.5 283.5 c 128,-1,61
 125 293 125 293 106.5 305.5 c 128,-1,62
 88 318 88 318 82.5 325.5 c 128,-1,35
 77 333 77 333 81 339 c 128,-1,36
EndSplineSet
EndChar

StartChar: five
Encoding: 53 53 15
Width: 1515
VWidth: 345
Flags: W
LayerCount: 2
Fore
SplineSet
661 1158 m 1,0,1
 677 1155 677 1155 675 1141.5 c 128,-1,2
 673 1128 673 1128 654 1127 c 1,3,4
 633 1120 633 1120 620.5 1074 c 128,-1,5
 608 1028 608 1028 593 977 c 0,6,7
 559 858 559 858 531 784 c 128,-1,8
 503 710 503 710 478 680.5 c 128,-1,9
 453 651 453 651 418 636 c 0,10,11
 364 613 364 613 311.5 601.5 c 128,-1,12
 259 590 259 590 220 590 c 1,13,14
 239 545 239 545 284 527.5 c 128,-1,15
 329 510 329 510 310 489 c 0,16,17
 299 478 299 478 241 518 c 128,-1,18
 183 558 183 558 161 597 c 1,19,20
 161 622 161 622 181.5 618 c 128,-1,21
 202 614 202 614 225 613 c 256,22,23
 248 612 248 612 272.5 615.5 c 128,-1,24
 297 619 297 619 338 640 c 0,25,26
 358 650 358 650 376 685.5 c 128,-1,27
 394 721 394 721 408.5 764 c 128,-1,28
 423 807 423 807 433 849.5 c 128,-1,29
 443 892 443 892 459.5 972 c 128,-1,30
 476 1052 476 1052 487.5 1079 c 128,-1,31
 499 1106 499 1106 520.5 1123 c 128,-1,32
 542 1140 542 1140 561.5 1145 c 128,-1,33
 581 1150 581 1150 605 1152 c 128,-1,34
 629 1154 629 1154 661 1158 c 1,0,1
81 339 m 128,-1,36
 85 345 85 345 91 346 c 128,-1,37
 97 347 97 347 140.5 349 c 128,-1,38
 184 351 184 351 318 373 c 2,39,-1
 959 475 l 2,40,41
 1049 490 1049 490 1085 494 c 128,-1,42
 1121 498 1121 498 1153.5 497.5 c 128,-1,43
 1186 497 1186 497 1210.5 493 c 128,-1,44
 1235 489 1235 489 1268.5 482.5 c 128,-1,45
 1302 476 1302 476 1333 467 c 128,-1,46
 1364 458 1364 458 1391 446 c 128,-1,47
 1418 434 1418 434 1425.5 420.5 c 128,-1,48
 1433 407 1433 407 1423.5 403 c 128,-1,49
 1414 399 1414 399 1399.5 398.5 c 128,-1,50
 1385 398 1385 398 1360 398 c 128,-1,51
 1335 398 1335 398 1310.5 397.5 c 128,-1,52
 1286 397 1286 397 1239.5 392.5 c 128,-1,53
 1193 388 1193 388 1136 380 c 2,54,-1
 344 254 l 1,55,56
 296 249 296 249 277 249 c 128,-1,57
 258 249 258 249 242 250.5 c 128,-1,58
 226 252 226 252 211 256.5 c 128,-1,59
 196 261 196 261 179 267.5 c 128,-1,60
 162 274 162 274 143.5 283.5 c 128,-1,61
 125 293 125 293 106.5 305.5 c 128,-1,62
 88 318 88 318 82.5 325.5 c 128,-1,35
 77 333 77 333 81 339 c 128,-1,36
EndSplineSet
EndChar

StartChar: eight
Encoding: 56 56 16
Width: 1515
VWidth: 345
Flags: W
LayerCount: 2
Fore
SplineSet
1427 1256 m 1,0,1
 1443 1253 1443 1253 1441 1239.5 c 128,-1,2
 1439 1226 1439 1226 1421 1224 c 1,3,4
 1400 1217 1400 1217 1387.5 1171.5 c 128,-1,5
 1375 1126 1375 1126 1360 1075 c 0,6,7
 1326 956 1326 956 1298 882 c 128,-1,8
 1270 808 1270 808 1245 778 c 128,-1,9
 1220 748 1220 748 1185 733 c 0,10,11
 1131 710 1131 710 1078 698.5 c 128,-1,12
 1025 687 1025 687 987 687 c 1,13,14
 1006 642 1006 642 1051 624.5 c 128,-1,15
 1096 607 1096 607 1077 587 c 0,16,17
 1066 576 1066 576 1007.5 616 c 128,-1,18
 949 656 949 656 928 695 c 1,19,20
 928 720 928 720 948 716 c 128,-1,21
 968 712 968 712 992 710 c 256,22,23
 1015 709 1015 709 1039.5 713 c 128,-1,24
 1064 717 1064 717 1105 738 c 0,25,26
 1125 748 1125 748 1143 783.5 c 128,-1,27
 1161 819 1161 819 1175 862 c 128,-1,28
 1189 905 1189 905 1199 947.5 c 128,-1,29
 1209 990 1209 990 1225.5 1070 c 128,-1,30
 1242 1150 1242 1150 1254 1177 c 128,-1,31
 1266 1204 1266 1204 1287.5 1221 c 128,-1,32
 1309 1238 1309 1238 1328.5 1242.5 c 128,-1,33
 1348 1247 1348 1247 1371.5 1249.5 c 128,-1,34
 1395 1252 1395 1252 1427 1256 c 1,0,1
661 1158 m 1,35,36
 677 1155 677 1155 675 1141.5 c 128,-1,37
 673 1128 673 1128 654 1127 c 1,38,39
 633 1120 633 1120 620.5 1074 c 128,-1,40
 608 1028 608 1028 593 977 c 0,41,42
 559 858 559 858 531 784 c 128,-1,43
 503 710 503 710 478 680.5 c 128,-1,44
 453 651 453 651 418 636 c 0,45,46
 364 613 364 613 311.5 601.5 c 128,-1,47
 259 590 259 590 220 590 c 1,48,49
 239 545 239 545 284 527.5 c 128,-1,50
 329 510 329 510 310 489 c 0,51,52
 299 478 299 478 241 518 c 128,-1,53
 183 558 183 558 161 597 c 1,54,55
 161 622 161 622 181.5 618 c 128,-1,56
 202 614 202 614 225 613 c 256,57,58
 248 612 248 612 272.5 615.5 c 128,-1,59
 297 619 297 619 338 640 c 0,60,61
 358 650 358 650 376 685.5 c 128,-1,62
 394 721 394 721 408.5 764 c 128,-1,63
 423 807 423 807 433 849.5 c 128,-1,64
 443 892 443 892 459.5 972 c 128,-1,65
 476 1052 476 1052 487.5 1079 c 128,-1,66
 499 1106 499 1106 520.5 1123 c 128,-1,67
 542 1140 542 1140 561.5 1145 c 128,-1,68
 581 1150 581 1150 605 1152 c 128,-1,69
 629 1154 629 1154 661 1158 c 1,35,36
81 339 m 128,-1,71
 85 345 85 345 91 346 c 128,-1,72
 97 347 97 347 140.5 349 c 128,-1,73
 184 351 184 351 318 373 c 2,74,-1
 959 475 l 2,75,76
 1049 490 1049 490 1085 494 c 128,-1,77
 1121 498 1121 498 1153.5 497.5 c 128,-1,78
 1186 497 1186 497 1210.5 493 c 128,-1,79
 1235 489 1235 489 1268.5 482.5 c 128,-1,80
 1302 476 1302 476 1333 467 c 128,-1,81
 1364 458 1364 458 1391 446 c 128,-1,82
 1418 434 1418 434 1425.5 420.5 c 128,-1,83
 1433 407 1433 407 1423.5 403 c 128,-1,84
 1414 399 1414 399 1399.5 398.5 c 128,-1,85
 1385 398 1385 398 1360 398 c 128,-1,86
 1335 398 1335 398 1310.5 397.5 c 128,-1,87
 1286 397 1286 397 1239.5 392.5 c 128,-1,88
 1193 388 1193 388 1136 380 c 2,89,-1
 344 254 l 1,90,91
 296 249 296 249 277 249 c 128,-1,92
 258 249 258 249 242 250.5 c 128,-1,93
 226 252 226 252 211 256.5 c 128,-1,94
 196 261 196 261 179 267.5 c 128,-1,95
 162 274 162 274 143.5 283.5 c 128,-1,96
 125 293 125 293 106.5 305.5 c 128,-1,97
 88 318 88 318 82.5 325.5 c 128,-1,70
 77 333 77 333 81 339 c 128,-1,71
EndSplineSet
EndChar

StartChar: seven
Encoding: 55 55 17
Width: 1515
VWidth: 345
Flags: W
LayerCount: 2
Fore
SplineSet
549 677 m 0,0,1
 576 677 576 677 605 676.5 c 128,-1,2
 634 676 634 676 657 672 c 1,3,4
 674 672 674 672 691 616 c 128,-1,5
 708 560 708 560 732 517 c 0,6,7
 740 502 740 502 749 501 c 0,8,9
 756 499 756 499 759.5 494 c 128,-1,10
 763 489 763 489 751 485 c 1,11,12
 723 481 723 481 695.5 481.5 c 128,-1,13
 668 482 668 482 644 485 c 1,14,15
 621 493 621 493 608 537 c 128,-1,16
 595 581 595 581 570 640 c 1,17,18
 562 653 562 653 545 657 c 0,19,20
 532 658 532 658 531 667.5 c 128,-1,21
 530 677 530 677 549 677 c 0,0,1
941 1270 m 1,22,23
 956 1268 956 1268 954 1257 c 128,-1,24
 952 1246 952 1246 936 1244 c 1,25,26
 917 1239 917 1239 906 1202 c 128,-1,27
 895 1165 895 1165 882 1124 c 0,28,29
 852 1028 852 1028 827 968 c 128,-1,30
 802 908 802 908 780 884 c 128,-1,31
 758 860 758 860 727 848 c 0,32,33
 679 829 679 829 632 820 c 128,-1,34
 585 811 585 811 551 811 c 1,35,36
 568 774 568 774 608 760 c 128,-1,37
 648 746 648 746 631 730 c 0,38,39
 621 721 621 721 569.5 753.5 c 128,-1,40
 518 786 518 786 499 817 c 1,41,42
 499 837 499 837 517 834 c 128,-1,43
 535 831 535 831 556 829 c 0,44,45
 577 828 577 828 598.5 831 c 128,-1,46
 620 834 620 834 656 851 c 0,47,48
 674 859 674 859 689.5 888 c 128,-1,49
 705 917 705 917 718 952 c 128,-1,50
 731 987 731 987 740 1021 c 128,-1,51
 749 1055 749 1055 763 1119.5 c 128,-1,52
 777 1184 777 1184 787.5 1206 c 128,-1,53
 798 1228 798 1228 817 1241.5 c 128,-1,54
 836 1255 836 1255 853.5 1259 c 128,-1,55
 871 1263 871 1263 892 1265 c 128,-1,56
 913 1267 913 1267 941 1270 c 1,22,23
81 339 m 128,-1,58
 85 345 85 345 91 346 c 128,-1,59
 97 347 97 347 140.5 349 c 128,-1,60
 184 351 184 351 318 373 c 2,61,-1
 959 475 l 2,62,63
 1049 490 1049 490 1085 494 c 128,-1,64
 1121 498 1121 498 1153.5 497.5 c 128,-1,65
 1186 497 1186 497 1210.5 493 c 128,-1,66
 1235 489 1235 489 1268.5 482.5 c 128,-1,67
 1302 476 1302 476 1333 467 c 128,-1,68
 1364 458 1364 458 1391 446 c 128,-1,69
 1418 434 1418 434 1425.5 420.5 c 128,-1,70
 1433 407 1433 407 1423.5 403 c 128,-1,71
 1414 399 1414 399 1399.5 398.5 c 128,-1,72
 1385 398 1385 398 1360 398 c 128,-1,73
 1335 398 1335 398 1310.5 397.5 c 128,-1,74
 1286 397 1286 397 1239.5 392.5 c 128,-1,75
 1193 388 1193 388 1136 380 c 2,76,-1
 344 254 l 1,77,78
 296 249 296 249 277 249 c 128,-1,79
 258 249 258 249 242 250.5 c 128,-1,80
 226 252 226 252 211 256.5 c 128,-1,81
 196 261 196 261 179 267.5 c 128,-1,82
 162 274 162 274 143.5 283.5 c 128,-1,83
 125 293 125 293 106.5 305.5 c 128,-1,84
 88 318 88 318 82.5 325.5 c 128,-1,57
 77 333 77 333 81 339 c 128,-1,58
EndSplineSet
EndChar

StartChar: six
Encoding: 54 54 18
Width: 1515
VWidth: 345
Flags: W
LayerCount: 2
Fore
SplineSet
510 837 m 0,0,1
 544 837 544 837 582 836 c 128,-1,2
 620 835 620 835 650 830 c 1,3,4
 671 830 671 830 696.5 747.5 c 128,-1,5
 722 665 722 665 757 603 c 0,6,7
 769 582 769 582 779 579 c 0,8,9
 788 576 788 576 792.5 568.5 c 128,-1,10
 797 561 797 561 783 555 c 1,11,12
 748 549 748 549 712.5 550.5 c 128,-1,13
 677 552 677 552 645 555 c 1,14,15
 615 567 615 567 595.5 632 c 128,-1,16
 576 697 576 697 541 784 c 0,17,18
 538 789 538 789 528.5 797 c 128,-1,19
 519 805 519 805 507 808 c 0,20,21
 491 811 491 811 488.5 824 c 128,-1,22
 486 837 486 837 510 837 c 0,0,1
1344 1246 m 1,23,24
 1360 1243 1360 1243 1358 1229.5 c 128,-1,25
 1356 1216 1356 1216 1338 1215 c 1,26,27
 1317 1208 1317 1208 1304.5 1162 c 128,-1,28
 1292 1116 1292 1116 1277 1065 c 0,29,30
 1243 946 1243 946 1215 872 c 128,-1,31
 1187 798 1187 798 1162 768.5 c 128,-1,32
 1137 739 1137 739 1102 723 c 0,33,34
 1048 700 1048 700 995 689 c 128,-1,35
 942 678 942 678 904 678 c 1,36,37
 923 633 923 633 968 615 c 128,-1,38
 1013 597 1013 597 994 577 c 0,39,40
 983 566 983 566 924.5 606 c 128,-1,41
 866 646 866 646 845 685 c 1,42,43
 845 710 845 710 865 706 c 128,-1,44
 885 702 885 702 909 700 c 256,45,46
 932 699 932 699 956.5 703 c 128,-1,47
 981 707 981 707 1022 728 c 0,48,49
 1042 738 1042 738 1060 773.5 c 128,-1,50
 1078 809 1078 809 1092 852 c 128,-1,51
 1106 895 1106 895 1116 937.5 c 128,-1,52
 1126 980 1126 980 1142.5 1060 c 128,-1,53
 1159 1140 1159 1140 1171 1167 c 128,-1,54
 1183 1194 1183 1194 1204.5 1211 c 128,-1,55
 1226 1228 1226 1228 1245.5 1233 c 128,-1,56
 1265 1238 1265 1238 1288.5 1240 c 128,-1,57
 1312 1242 1312 1242 1344 1246 c 1,23,24
81 339 m 128,-1,59
 85 345 85 345 91 346 c 128,-1,60
 97 347 97 347 140.5 349 c 128,-1,61
 184 351 184 351 318 373 c 2,62,-1
 959 475 l 2,63,64
 1049 490 1049 490 1085 494 c 128,-1,65
 1121 498 1121 498 1153.5 497.5 c 128,-1,66
 1186 497 1186 497 1210.5 493 c 128,-1,67
 1235 489 1235 489 1268.5 482.5 c 128,-1,68
 1302 476 1302 476 1333 467 c 128,-1,69
 1364 458 1364 458 1391 446 c 128,-1,70
 1418 434 1418 434 1425.5 420.5 c 128,-1,71
 1433 407 1433 407 1423.5 403 c 128,-1,72
 1414 399 1414 399 1399.5 398.5 c 128,-1,73
 1385 398 1385 398 1360 398 c 128,-1,74
 1335 398 1335 398 1310.5 397.5 c 128,-1,75
 1286 397 1286 397 1239.5 392.5 c 128,-1,76
 1193 388 1193 388 1136 380 c 2,77,-1
 344 254 l 1,78,79
 296 249 296 249 277 249 c 128,-1,80
 258 249 258 249 242 250.5 c 128,-1,81
 226 252 226 252 211 256.5 c 128,-1,82
 196 261 196 261 179 267.5 c 128,-1,83
 162 274 162 274 143.5 283.5 c 128,-1,84
 125 293 125 293 106.5 305.5 c 128,-1,85
 88 318 88 318 82.5 325.5 c 128,-1,58
 77 333 77 333 81 339 c 128,-1,59
EndSplineSet
EndChar

StartChar: I
Encoding: 73 73 19
Width: 1509
VWidth: 345
Flags: W
LayerCount: 2
Fore
SplineSet
98 809 m 1,0,1
 60 878 60 878 77.5 927.5 c 128,-1,2
 95 977 95 977 140 980 c 0,3,4
 169 982 169 982 184.5 976 c 128,-1,5
 200 970 200 970 212 963 c 128,-1,6
 224 956 224 956 234.5 948.5 c 128,-1,7
 245 941 245 941 254 933 c 128,-1,8
 263 925 263 925 267 918.5 c 128,-1,9
 271 912 271 912 270.5 907 c 128,-1,10
 270 902 270 902 266 899.5 c 128,-1,11
 262 897 262 897 244.5 890 c 128,-1,12
 227 883 227 883 199 867.5 c 128,-1,13
 171 852 171 852 172 815 c 0,14,15
 172 777 172 777 251.5 743.5 c 128,-1,16
 331 710 331 710 486 717 c 2,17,-1
 1118 735 l 2,18,19
 1151 735 1151 735 1170.5 730.5 c 128,-1,20
 1190 726 1190 726 1206 719.5 c 128,-1,21
 1222 713 1222 713 1233.5 706 c 128,-1,22
 1245 699 1245 699 1259.5 685.5 c 128,-1,23
 1274 672 1274 672 1294 651 c 128,-1,24
 1314 630 1314 630 1320 620 c 128,-1,25
 1326 610 1326 610 1326 601 c 128,-1,26
 1326 592 1326 592 1320 588.5 c 128,-1,27
 1314 585 1314 585 1306.5 585 c 128,-1,28
 1299 585 1299 585 1291 588.5 c 128,-1,29
 1283 592 1283 592 1272 595.5 c 128,-1,30
 1261 599 1261 599 1246.5 603 c 128,-1,31
 1232 607 1232 607 1220.5 609 c 128,-1,32
 1209 611 1209 611 1188 612 c 2,33,-1
 895 618 l 2,34,35
 803 618 803 618 701.5 625.5 c 128,-1,36
 600 633 600 633 510 645 c 128,-1,37
 420 657 420 657 352 671 c 128,-1,38
 284 685 284 685 259 695 c 0,39,40
 216 713 216 713 182.5 730 c 128,-1,41
 149 747 149 747 98 809 c 1,0,1
71 339 m 128,-1,43
 75 345 75 345 81 346 c 128,-1,44
 87 347 87 347 130.5 349 c 128,-1,45
 174 351 174 351 308 373 c 2,46,-1
 949 475 l 2,47,48
 1039 490 1039 490 1075 494 c 128,-1,49
 1111 498 1111 498 1143.5 497.5 c 128,-1,50
 1176 497 1176 497 1200.5 493 c 128,-1,51
 1225 489 1225 489 1258.5 482.5 c 128,-1,52
 1292 476 1292 476 1323 467 c 128,-1,53
 1354 458 1354 458 1381.5 446 c 128,-1,54
 1409 434 1409 434 1416 420.5 c 128,-1,55
 1423 407 1423 407 1413.5 403 c 128,-1,56
 1404 399 1404 399 1389.5 398.5 c 128,-1,57
 1375 398 1375 398 1350 398 c 128,-1,58
 1325 398 1325 398 1300.5 397.5 c 128,-1,59
 1276 397 1276 397 1230 392.5 c 128,-1,60
 1184 388 1184 388 1126 380 c 2,61,-1
 334 254 l 1,62,63
 286 249 286 249 267.5 249 c 128,-1,64
 249 249 249 249 232.5 250.5 c 128,-1,65
 216 252 216 252 201.5 256.5 c 128,-1,66
 187 261 187 261 169.5 267.5 c 128,-1,67
 152 274 152 274 134 283.5 c 128,-1,68
 116 293 116 293 97 305.5 c 128,-1,69
 78 318 78 318 72.5 325.5 c 128,-1,42
 67 333 67 333 71 339 c 128,-1,43
EndSplineSet
EndChar

StartChar: at
Encoding: 64 64 20
Width: 1511
VWidth: 345
Flags: W
LayerCount: 2
Fore
SplineSet
433 575 m 1,0,1
 395 561 395 561 305 576 c 1,2,3
 252 589 252 589 211 611.5 c 128,-1,4
 170 634 170 634 148 689 c 1,5,6
 133 742 133 742 138.5 773.5 c 128,-1,7
 144 805 144 805 174 846 c 1,8,9
 203 881 203 881 241.5 899 c 128,-1,10
 280 917 280 917 336 929 c 0,11,12
 392 940 392 940 427 939.5 c 128,-1,13
 462 939 462 939 502 938 c 0,14,15
 542 936 542 936 576.5 931.5 c 128,-1,16
 611 927 611 927 660 911 c 0,17,18
 741 889 741 889 820 850 c 0,19,20
 864 828 864 828 914 803 c 128,-1,21
 964 778 964 778 1025 743 c 0,22,23
 1053 726 1053 726 1086 706.5 c 128,-1,24
 1119 687 1119 687 1158 667 c 1,25,26
 1187 649 1187 649 1215 631 c 128,-1,27
 1243 613 1243 613 1238.5 594 c 128,-1,28
 1234 575 1234 575 1217 576 c 128,-1,29
 1200 577 1200 577 1110 575.5 c 128,-1,30
 1020 574 1020 574 953 575 c 1,31,32
 926 595 926 595 953.5 603.5 c 128,-1,33
 981 612 981 612 994 625 c 0,34,35
 1019 651 1019 651 1016.5 666 c 128,-1,36
 1014 681 1014 681 1008.5 690 c 128,-1,37
 1003 699 1003 699 992 708.5 c 128,-1,38
 981 718 981 718 937.5 748 c 128,-1,39
 894 778 894 778 830 811 c 1,40,41
 772 836 772 836 739 852 c 128,-1,42
 706 868 706 868 631 888 c 1,43,44
 576 899 576 899 519 901.5 c 128,-1,45
 462 904 462 904 404 885 c 1,46,47
 363 867 363 867 346 854 c 128,-1,48
 329 841 329 841 309 810 c 0,49,50
 291 780 291 780 288 759 c 128,-1,51
 285 738 285 738 287 711 c 0,52,53
 288 683 288 683 293.5 670.5 c 128,-1,54
 299 658 299 658 308 645 c 128,-1,55
 317 632 317 632 330.5 621.5 c 128,-1,56
 344 611 344 611 371.5 606.5 c 128,-1,57
 399 602 399 602 427 599 c 0,58,59
 439 597 439 597 442 589.5 c 128,-1,60
 445 582 445 582 433 575 c 1,0,1
81 339 m 128,-1,62
 85 345 85 345 91 346 c 128,-1,63
 97 347 97 347 140.5 349 c 128,-1,64
 184 351 184 351 318 373 c 2,65,-1
 959 475 l 2,66,67
 1049 490 1049 490 1085 494 c 128,-1,68
 1121 498 1121 498 1153.5 497.5 c 128,-1,69
 1186 497 1186 497 1210.5 493 c 128,-1,70
 1235 489 1235 489 1268.5 482.5 c 128,-1,71
 1302 476 1302 476 1333 467 c 128,-1,72
 1364 458 1364 458 1391 446 c 128,-1,73
 1418 434 1418 434 1425.5 420.5 c 128,-1,74
 1433 407 1433 407 1423.5 403 c 128,-1,75
 1414 399 1414 399 1399.5 398.5 c 128,-1,76
 1385 398 1385 398 1360 398 c 128,-1,77
 1335 398 1335 398 1310.5 397.5 c 128,-1,78
 1286 397 1286 397 1239.5 392.5 c 128,-1,79
 1193 388 1193 388 1136 380 c 2,80,-1
 344 254 l 1,81,82
 296 249 296 249 277 249 c 128,-1,83
 258 249 258 249 242 250.5 c 128,-1,84
 226 252 226 252 211 256.5 c 128,-1,85
 196 261 196 261 179 267.5 c 128,-1,86
 162 274 162 274 143.5 283.5 c 128,-1,87
 125 293 125 293 106.5 305.5 c 128,-1,88
 88 318 88 318 82.5 325.5 c 128,-1,61
 77 333 77 333 81 339 c 128,-1,62
EndSplineSet
EndChar

StartChar: numbersign
Encoding: 35 35 21
Width: 1515
VWidth: 345
Flags: W
LayerCount: 2
Fore
SplineSet
433 575 m 1,0,1
 395 561 395 561 305 576 c 1,2,3
 252 589 252 589 211 611.5 c 128,-1,4
 170 634 170 634 148 689 c 1,5,6
 133 742 133 742 138.5 773.5 c 128,-1,7
 144 805 144 805 174 846 c 1,8,9
 203 881 203 881 241.5 899 c 128,-1,10
 280 917 280 917 336 929 c 0,11,12
 392 940 392 940 427 939.5 c 128,-1,13
 462 939 462 939 502 938 c 0,14,15
 542 936 542 936 576.5 931.5 c 128,-1,16
 611 927 611 927 660 911 c 0,17,18
 741 889 741 889 820 850 c 0,19,20
 864 828 864 828 914 803 c 128,-1,21
 964 778 964 778 1025 743 c 0,22,23
 1053 726 1053 726 1086 706.5 c 128,-1,24
 1119 687 1119 687 1158 667 c 1,25,26
 1187 649 1187 649 1215 631 c 128,-1,27
 1243 613 1243 613 1238.5 594 c 128,-1,28
 1234 575 1234 575 1217 576 c 128,-1,29
 1200 577 1200 577 1110 575.5 c 128,-1,30
 1020 574 1020 574 953 575 c 1,31,32
 926 595 926 595 953.5 603.5 c 128,-1,33
 981 612 981 612 994 625 c 0,34,35
 1019 651 1019 651 1016.5 666 c 128,-1,36
 1014 681 1014 681 1008.5 690 c 128,-1,37
 1003 699 1003 699 992 708.5 c 128,-1,38
 981 718 981 718 937.5 748 c 128,-1,39
 894 778 894 778 830 811 c 1,40,41
 772 836 772 836 739 852 c 128,-1,42
 706 868 706 868 631 888 c 1,43,44
 576 899 576 899 519 901.5 c 128,-1,45
 462 904 462 904 404 885 c 1,46,47
 363 867 363 867 346 854 c 128,-1,48
 329 841 329 841 309 810 c 0,49,50
 291 780 291 780 288 759 c 128,-1,51
 285 738 285 738 287 711 c 0,52,53
 288 683 288 683 293.5 670.5 c 128,-1,54
 299 658 299 658 308 645 c 128,-1,55
 317 632 317 632 330.5 621.5 c 128,-1,56
 344 611 344 611 371.5 606.5 c 128,-1,57
 399 602 399 602 427 599 c 0,58,59
 439 597 439 597 442 589.5 c 128,-1,60
 445 582 445 582 433 575 c 1,0,1
640 523 m 1,61,62
 631 530 631 530 638.5 536.5 c 128,-1,63
 646 543 646 543 659 543 c 0,64,65
 672 543 672 543 696.5 567 c 128,-1,66
 721 591 721 591 729 627 c 0,67,68
 742 688 742 688 665 726 c 0,69,70
 637 740 637 740 593 751 c 128,-1,71
 549 762 549 762 506 770 c 128,-1,72
 463 778 463 778 430 783 c 128,-1,73
 397 788 397 788 392 791 c 0,74,75
 381 795 381 795 383.5 802.5 c 128,-1,76
 386 810 386 810 395 810 c 0,77,78
 400 810 400 810 432 806.5 c 128,-1,79
 464 803 464 803 509 795.5 c 128,-1,80
 554 788 554 788 604 776 c 128,-1,81
 654 764 654 764 695 749 c 0,82,83
 743 729 743 729 772 710 c 128,-1,84
 801 691 801 691 825 659 c 0,85,86
 849 626 849 626 845.5 594 c 128,-1,87
 842 562 842 562 817 544 c 0,88,89
 795 527 795 527 766.5 521.5 c 128,-1,90
 738 516 738 516 712 516 c 0,91,92
 686 516 686 516 676 516.5 c 128,-1,93
 666 517 666 517 640 523 c 1,61,62
81 339 m 128,-1,95
 85 345 85 345 91 346 c 128,-1,96
 97 347 97 347 140.5 349 c 128,-1,97
 184 351 184 351 318 373 c 2,98,-1
 959 475 l 2,99,100
 1049 490 1049 490 1085 494 c 128,-1,101
 1121 498 1121 498 1153.5 497.5 c 128,-1,102
 1186 497 1186 497 1210.5 493 c 128,-1,103
 1235 489 1235 489 1268.5 482.5 c 128,-1,104
 1302 476 1302 476 1333 467 c 128,-1,105
 1364 458 1364 458 1391 446 c 128,-1,106
 1418 434 1418 434 1425.5 420.5 c 128,-1,107
 1433 407 1433 407 1423.5 403 c 128,-1,108
 1414 399 1414 399 1399.5 398.5 c 128,-1,109
 1385 398 1385 398 1360 398 c 128,-1,110
 1335 398 1335 398 1310.5 397.5 c 128,-1,111
 1286 397 1286 397 1239.5 392.5 c 128,-1,112
 1193 388 1193 388 1136 380 c 2,113,-1
 344 254 l 1,114,115
 296 249 296 249 277 249 c 128,-1,116
 258 249 258 249 242 250.5 c 128,-1,117
 226 252 226 252 211 256.5 c 128,-1,118
 196 261 196 261 179 267.5 c 128,-1,119
 162 274 162 274 143.5 283.5 c 128,-1,120
 125 293 125 293 106.5 305.5 c 128,-1,121
 88 318 88 318 82.5 325.5 c 128,-1,94
 77 333 77 333 81 339 c 128,-1,95
EndSplineSet
EndChar

StartChar: underscore
Encoding: 95 95 22
Width: 2145
VWidth: 345
Flags: W
LayerCount: 2
Fore
SplineSet
244 623 m 1,0,1
 234 630 234 630 242.5 637 c 128,-1,2
 251 644 251 644 264 644 c 0,3,4
 278 644 278 644 303 669 c 128,-1,5
 328 694 328 694 336 731 c 0,6,7
 349 793 349 793 271 833 c 0,8,9
 212 862 212 862 111.5 878 c 128,-1,10
 11 894 11 894 0 898 c 256,11,12
 -11 902 -11 902 -8 910.5 c 128,-1,13
 -5 919 -5 919 3 919 c 0,14,15
 12 919 12 919 114.5 904 c 128,-1,16
 217 889 217 889 301 857 c 0,17,18
 351 837 351 837 381 817.5 c 128,-1,19
 411 798 411 798 437 764 c 0,20,21
 462 730 462 730 457.5 697 c 128,-1,22
 453 664 453 664 428 646 c 0,23,24
 405 629 405 629 375.5 623 c 128,-1,25
 346 617 346 617 319 617 c 0,26,27
 292 617 292 617 281.5 617 c 128,-1,28
 271 617 271 617 244 623 c 1,0,1
1515 851 m 0,29,30
 1545 851 1545 851 1578 850 c 128,-1,31
 1611 849 1611 849 1637 845 c 1,32,33
 1656 845 1656 845 1680.5 793.5 c 128,-1,34
 1705 742 1705 742 1733 681 c 0,35,36
 1742 660 1742 660 1752 658 c 0,37,38
 1759 655 1759 655 1764 647.5 c 128,-1,39
 1769 640 1769 640 1755 634 c 1,40,41
 1725 628 1725 628 1694 629 c 128,-1,42
 1663 630 1663 630 1635 634 c 1,43,44
 1609 646 1609 646 1590.5 678.5 c 128,-1,45
 1572 711 1572 711 1542 798 c 0,46,47
 1540 803 1540 803 1531 813.5 c 128,-1,48
 1522 824 1522 824 1512 826 c 0,49,50
 1498 828 1498 828 1496 839.5 c 128,-1,51
 1494 851 1494 851 1515 851 c 0,29,30
1786 851 m 0,52,53
 1816 851 1816 851 1848.5 850 c 128,-1,54
 1881 849 1881 849 1908 845 c 1,55,56
 1927 845 1927 845 1951 793.5 c 128,-1,57
 1975 742 1975 742 2003 681 c 0,58,59
 2012 660 2012 660 2022 658 c 0,60,61
 2030 655 2030 655 2034.5 647.5 c 128,-1,62
 2039 640 2039 640 2026 634 c 1,63,64
 1995 628 1995 628 1964 629 c 128,-1,65
 1933 630 1933 630 1905 634 c 1,66,67
 1878 646 1878 646 1860.5 678.5 c 128,-1,68
 1843 711 1843 711 1812 798 c 0,69,70
 1809 803 1809 803 1800.5 813.5 c 128,-1,71
 1792 824 1792 824 1782 826 c 0,72,73
 1768 828 1768 828 1766.5 839.5 c 128,-1,74
 1765 851 1765 851 1786 851 c 0,52,53
732 626 m 1,75,76
 698 613 698 613 617 628 c 1,77,78
 570 640 570 640 533.5 659.5 c 128,-1,79
 497 679 497 679 478 728 c 1,80,81
 465 775 465 775 469 803.5 c 128,-1,82
 473 832 473 832 500 869 c 1,83,84
 526 900 526 900 560.5 916 c 128,-1,85
 595 932 595 932 645 943 c 0,86,87
 695 953 695 953 726 952.5 c 128,-1,88
 757 952 757 952 793 950 c 256,89,90
 829 949 829 949 860 945 c 128,-1,91
 891 941 891 941 935 927 c 0,92,93
 1008 907 1008 907 1078 872 c 0,94,95
 1118 852 1118 852 1162 829.5 c 128,-1,96
 1206 807 1206 807 1261 777 c 0,97,98
 1286 762 1286 762 1315.5 744.5 c 128,-1,99
 1345 727 1345 727 1379 709 c 1,100,101
 1405 693 1405 693 1430.5 676.5 c 128,-1,102
 1456 660 1456 660 1452 643.5 c 128,-1,103
 1448 627 1448 627 1432.5 628 c 128,-1,104
 1417 629 1417 629 1336.5 627 c 128,-1,105
 1256 625 1256 625 1196 626 c 1,106,107
 1172 644 1172 644 1196.5 651.5 c 128,-1,108
 1221 659 1221 659 1233 671 c 0,109,110
 1255 694 1255 694 1252.5 707.5 c 128,-1,111
 1250 721 1250 721 1245.5 729 c 128,-1,112
 1241 737 1241 737 1231 745.5 c 128,-1,113
 1221 754 1221 754 1182.5 780.5 c 128,-1,114
 1144 807 1144 807 1086 837 c 1,115,116
 1035 860 1035 860 1005 874 c 128,-1,117
 975 888 975 888 909 906 c 1,118,119
 860 916 860 916 809 918 c 128,-1,120
 758 920 758 920 706 903 c 1,121,122
 669 887 669 887 654 875.5 c 128,-1,123
 639 864 639 864 621 836 c 0,124,125
 605 809 605 809 602.5 790.5 c 128,-1,126
 600 772 600 772 601 748 c 0,127,128
 602 723 602 723 607 711.5 c 128,-1,129
 612 700 612 700 620 689 c 128,-1,130
 628 678 628 678 640 668.5 c 128,-1,131
 652 659 652 659 677 655 c 128,-1,132
 702 651 702 651 726 648 c 0,133,134
 736 646 736 646 739 639 c 128,-1,135
 742 632 742 632 732 626 c 1,75,76
254.5 301.5 m 128,-1,137
 258 308 258 308 264.5 309 c 128,-1,138
 271 310 271 310 314.5 311.5 c 128,-1,139
 358 313 358 313 491 335 c 2,140,-1
 1615 512 l 2,141,142
 1705 528 1705 528 1741 532 c 128,-1,143
 1777 536 1777 536 1809.5 535 c 128,-1,144
 1842 534 1842 534 1866.5 530.5 c 128,-1,145
 1891 527 1891 527 1924.5 520 c 128,-1,146
 1958 513 1958 513 1989.5 504.5 c 128,-1,147
 2021 496 2021 496 2048 484 c 128,-1,148
 2075 472 2075 472 2082 458.5 c 128,-1,149
 2089 445 2089 445 2080 440.5 c 128,-1,150
 2071 436 2071 436 2056 435.5 c 128,-1,151
 2041 435 2041 435 2016.5 435 c 128,-1,152
 1992 435 1992 435 1967 434.5 c 128,-1,153
 1942 434 1942 434 1896 430 c 128,-1,154
 1850 426 1850 426 1792 417 c 2,155,-1
 518 217 l 1,156,157
 470 212 470 212 451 211.5 c 128,-1,158
 432 211 432 211 416 213 c 128,-1,159
 400 215 400 215 385 219 c 128,-1,160
 370 223 370 223 353 229.5 c 128,-1,161
 336 236 336 236 317.5 245.5 c 128,-1,162
 299 255 299 255 280.5 268 c 128,-1,163
 262 281 262 281 256.5 288 c 128,-1,136
 251 295 251 295 254.5 301.5 c 128,-1,137
EndSplineSet
EndChar

StartChar: T
Encoding: 84 84 23
Width: 1896
VWidth: 345
Flags: W
LayerCount: 2
Fore
SplineSet
1282 846 m 0,0,1
 1312 846 1312 846 1344.5 845.5 c 128,-1,2
 1377 845 1377 845 1404 840 c 1,3,4
 1423 840 1423 840 1447 789 c 128,-1,5
 1471 738 1471 738 1499 677 c 0,6,7
 1508 656 1508 656 1518 653 c 0,8,9
 1526 650 1526 650 1530.5 642.5 c 128,-1,10
 1535 635 1535 635 1522 629 c 1,11,12
 1491 623 1491 623 1460 624 c 128,-1,13
 1429 625 1429 625 1401 629 c 1,14,15
 1374 641 1374 641 1356.5 673.5 c 128,-1,16
 1339 706 1339 706 1308 793 c 0,17,18
 1305 798 1305 798 1297 808.5 c 128,-1,19
 1289 819 1289 819 1278 821 c 0,20,21
 1264 823 1264 823 1262.5 834.5 c 128,-1,22
 1261 846 1261 846 1282 846 c 0,0,1
1552 846 m 0,23,24
 1582 846 1582 846 1614.5 845.5 c 128,-1,25
 1647 845 1647 845 1674 840 c 1,26,27
 1693 840 1693 840 1717 789 c 128,-1,28
 1741 738 1741 738 1770 677 c 0,29,30
 1779 656 1779 656 1789 653 c 0,31,32
 1796 650 1796 650 1800.5 642.5 c 128,-1,33
 1805 635 1805 635 1792 629 c 1,34,35
 1762 623 1762 623 1730.5 624 c 128,-1,36
 1699 625 1699 625 1671 629 c 1,37,38
 1645 641 1645 641 1627 673.5 c 128,-1,39
 1609 706 1609 706 1578 793 c 0,40,41
 1576 798 1576 798 1567.5 808.5 c 128,-1,42
 1559 819 1559 819 1549 821 c 0,43,44
 1535 823 1535 823 1533 834.5 c 128,-1,45
 1531 846 1531 846 1552 846 c 0,23,24
375 624 m 1,46,47
 337 610 337 610 246 625 c 1,48,49
 193 638 193 638 152.5 660 c 128,-1,50
 112 682 112 682 90 738 c 1,51,52
 75 791 75 791 80 822.5 c 128,-1,53
 85 854 85 854 115 895 c 1,54,55
 144 930 144 930 182.5 948 c 128,-1,56
 221 966 221 966 277 978 c 0,57,58
 333 989 333 989 368 988.5 c 128,-1,59
 403 988 403 988 444 987 c 0,60,61
 484 985 484 985 518.5 980 c 128,-1,62
 553 975 553 975 602 960 c 0,63,64
 683 938 683 938 762 899 c 0,65,66
 806 877 806 877 855.5 851.5 c 128,-1,67
 905 826 905 826 966 792 c 0,68,69
 994 775 994 775 1027.5 755.5 c 128,-1,70
 1061 736 1061 736 1099 716 c 1,71,72
 1128 698 1128 698 1156.5 679.5 c 128,-1,73
 1185 661 1185 661 1180.5 642.5 c 128,-1,74
 1176 624 1176 624 1159 625 c 128,-1,75
 1142 626 1142 626 1051.5 624 c 128,-1,76
 961 622 961 622 894 624 c 1,77,78
 867 644 867 644 894.5 652.5 c 128,-1,79
 922 661 922 661 936 674 c 0,80,81
 961 700 961 700 958 715 c 128,-1,82
 955 730 955 730 949.5 738.5 c 128,-1,83
 944 747 944 747 933 757 c 128,-1,84
 922 767 922 767 878.5 796.5 c 128,-1,85
 835 826 835 826 771 860 c 1,86,87
 713 885 713 885 680 901 c 128,-1,88
 647 917 647 917 573 937 c 1,89,90
 518 948 518 948 461 950 c 128,-1,91
 404 952 404 952 345 933 c 1,92,93
 304 915 304 915 287.5 902.5 c 128,-1,94
 271 890 271 890 250 859 c 0,95,96
 232 829 232 829 229.5 808 c 128,-1,97
 227 787 227 787 229 760 c 0,98,99
 230 732 230 732 235.5 719.5 c 128,-1,100
 241 707 241 707 249.5 694 c 128,-1,101
 258 681 258 681 271.5 670.5 c 128,-1,102
 285 660 285 660 313 655.5 c 128,-1,103
 341 651 341 651 368 648 c 0,104,105
 380 646 380 646 383.5 638.5 c 128,-1,106
 387 631 387 631 375 624 c 1,46,47
581 562 m 1,107,108
 571 570 571 570 579.5 577 c 128,-1,109
 588 584 588 584 602 584 c 0,110,111
 617 584 617 584 643 610.5 c 128,-1,112
 669 637 669 637 678 677 c 0,113,114
 692 743 692 743 609 785 c 0,115,116
 577 800 577 800 529 812 c 128,-1,117
 481 824 481 824 434 833.5 c 128,-1,118
 387 843 387 843 351 848 c 128,-1,119
 315 853 315 853 309 856 c 0,120,121
 296 861 296 861 299 869.5 c 128,-1,122
 302 878 302 878 312 878 c 0,123,124
 317 878 317 878 352.5 873.5 c 128,-1,125
 388 869 388 869 437.5 861 c 128,-1,126
 487 853 487 853 541.5 840 c 128,-1,127
 596 827 596 827 641 810 c 0,128,129
 694 789 694 789 726 768 c 128,-1,130
 758 747 758 747 784 712 c 0,131,132
 810 676 810 676 806 640.5 c 128,-1,133
 802 605 802 605 776 586 c 0,134,135
 752 568 752 568 720 561.5 c 128,-1,136
 688 555 688 555 660 555 c 256,137,138
 632 555 632 555 620.5 555.5 c 128,-1,139
 609 556 609 556 581 562 c 1,107,108
156 314.5 m 128,-1,141
 160 321 160 321 166 322 c 128,-1,142
 172 323 172 323 215.5 324.5 c 128,-1,143
 259 326 259 326 393 348 c 2,144,-1
 1338 499 l 2,145,146
 1428 515 1428 515 1464 518.5 c 128,-1,147
 1500 522 1500 522 1532.5 521.5 c 128,-1,148
 1565 521 1565 521 1589.5 517 c 128,-1,149
 1614 513 1614 513 1647.5 506.5 c 128,-1,150
 1681 500 1681 500 1712 491.5 c 128,-1,151
 1743 483 1743 483 1770 471 c 128,-1,152
 1797 459 1797 459 1804.5 445.5 c 128,-1,153
 1812 432 1812 432 1802.5 427.5 c 128,-1,154
 1793 423 1793 423 1778.5 422.5 c 128,-1,155
 1764 422 1764 422 1739 422 c 128,-1,156
 1714 422 1714 422 1689.5 421.5 c 128,-1,157
 1665 421 1665 421 1618.5 417 c 128,-1,158
 1572 413 1572 413 1515 404 c 2,159,-1
 419 230 l 1,160,161
 371 225 371 225 352 224.5 c 128,-1,162
 333 224 333 224 317 226 c 128,-1,163
 301 228 301 228 286 232 c 128,-1,164
 271 236 271 236 254 242.5 c 128,-1,165
 237 249 237 249 219 258.5 c 128,-1,166
 201 268 201 268 182 281 c 128,-1,167
 163 294 163 294 157.5 301 c 128,-1,140
 152 308 152 308 156 314.5 c 128,-1,141
EndSplineSet
EndChar

StartChar: a
Encoding: 97 97 24
Width: 0
VWidth: 345
Flags: W
LayerCount: 2
Fore
SplineSet
-931.5 719 m 128,-1,1
 -956 726 -956 726 -941.5 710 c 128,-1,2
 -927 694 -927 694 -913.5 684 c 128,-1,3
 -900 674 -900 674 -613 550 c 0,4,5
 -597 543 -597 543 -590 554 c 2,6,-1
 -484 673 l 2,7,8
 -463 699 -463 699 -487 715 c 2,9,-1
 -529 740 l 2,10,11
 -558 756 -558 756 -572 737 c 2,12,-1
 -672 617 l 1,13,14
 -853 693 -853 693 -880 702.5 c 128,-1,0
 -907 712 -907 712 -931.5 719 c 128,-1,1
EndSplineSet
EndChar

StartChar: z
Encoding: 122 122 25
Width: 0
VWidth: 345
Flags: W
LayerCount: 2
Fore
SplineSet
-933 86 m 128,-1,1
 -958 93 -958 93 -943.5 77 c 128,-1,2
 -929 61 -929 61 -915 51 c 128,-1,3
 -901 41 -901 41 -615 -83 c 0,4,5
 -599 -90 -599 -90 -591 -78 c 2,6,-1
 -486 40 l 2,7,8
 -465 66 -465 66 -489 82 c 2,9,-1
 -531 107 l 2,10,11
 -559 123 -559 123 -574 104 c 2,12,-1
 -674 -15 l 1,13,14
 -855 61 -855 61 -881.5 70 c 128,-1,0
 -908 79 -908 79 -933 86 c 128,-1,1
EndSplineSet
EndChar

StartChar: Z
Encoding: 90 90 26
Width: 0
VWidth: 345
Flags: W
LayerCount: 2
Fore
SplineSet
-1217.5 709 m 128,-1,1
 -1242 716 -1242 716 -1227.5 700 c 128,-1,2
 -1213 684 -1213 684 -1199.5 674 c 128,-1,3
 -1186 664 -1186 664 -899 540 c 0,4,5
 -883 533 -883 533 -876 545 c 2,6,-1
 -771 663 l 2,7,8
 -750 689 -750 689 -773 705 c 2,9,-1
 -815 730 l 2,10,11
 -844 746 -844 746 -858 727 c 2,12,-1
 -958 608 l 1,13,14
 -1139 684 -1139 684 -1166 693 c 128,-1,0
 -1193 702 -1193 702 -1217.5 709 c 128,-1,1
EndSplineSet
EndChar

StartChar: bar
Encoding: 124 124 27
Width: 0
VWidth: 345
Flags: W
LayerCount: 2
Fore
SplineSet
-214 29 m 0,0,1
 -202 29 -202 29 -184 25.5 c 128,-1,2
 -166 22 -166 22 -146 16 c 256,3,4
 -126 10 -126 10 -119 -50 c 0,5,6
 -112 -111 -112 -111 -98 -195 c 128,-1,7
 -84 -279 -84 -279 -58 -334 c 0,8,9
 -44 -364 -44 -364 -14 -386 c 0,10,11
 13 -407 13 -407 36 -416.5 c 128,-1,12
 59 -426 59 -426 112 -437 c 0,13,14
 122 -440 122 -440 121 -447.5 c 128,-1,15
 120 -455 120 -455 109 -455.5 c 128,-1,16
 98 -456 98 -456 83.5 -454 c 128,-1,17
 69 -452 69 -452 58 -449.5 c 128,-1,18
 47 -447 47 -447 31 -440 c 128,-1,19
 15 -433 15 -433 -10 -419.5 c 128,-1,20
 -35 -406 -35 -406 -54.5 -388.5 c 128,-1,21
 -74 -371 -74 -371 -102 -335 c 1,22,23
 -144 -271 -144 -271 -161 -180.5 c 128,-1,24
 -178 -90 -178 -90 -189 -23 c 0,25,26
 -192 -2 -192 -2 -200.5 3 c 128,-1,27
 -209 8 -209 8 -214 10 c 0,28,29
 -221 13 -221 13 -220.5 21 c 128,-1,30
 -220 29 -220 29 -214 29 c 0,0,1
-344 12 m 0,31,32
 -327 10 -327 10 -318 6.5 c 128,-1,33
 -309 3 -309 3 -297 0 c 128,-1,34
 -285 -3 -285 -3 -275.5 -74 c 128,-1,35
 -266 -145 -266 -145 -252 -183 c 0,36,37
 -248 -196 -248 -196 -244 -198 c 0,38,39
 -239 -200 -239 -200 -237 -204.5 c 128,-1,40
 -235 -209 -235 -209 -242 -212 c 0,41,42
 -260 -213 -260 -213 -267 -209.5 c 128,-1,43
 -274 -206 -274 -206 -290 -199 c 1,44,45
 -304 -189 -304 -189 -308 -154 c 128,-1,46
 -312 -119 -312 -119 -333 -21 c 0,47,48
 -336 -9 -336 -9 -347 -5 c 0,49,50
 -355 -2 -355 -2 -355.5 5.5 c 128,-1,51
 -356 13 -356 13 -344 12 c 0,31,32
EndSplineSet
EndChar

StartChar: backslash
Encoding: 92 92 28
Width: 1610
VWidth: 345
Flags: W
LayerCount: 2
Fore
SplineSet
130 332.5 m 128,-1,1
 134 339 134 339 140 340 c 128,-1,2
 146 341 146 341 189.5 342.5 c 128,-1,3
 233 344 233 344 367 366 c 2,4,-1
 1090 481 l 2,5,6
 1180 497 1180 497 1216 501 c 128,-1,7
 1252 505 1252 505 1284.5 504.5 c 128,-1,8
 1317 504 1317 504 1341.5 500 c 128,-1,9
 1366 496 1366 496 1400 489.5 c 128,-1,10
 1434 483 1434 483 1465 474 c 128,-1,11
 1496 465 1496 465 1523 453 c 128,-1,12
 1550 441 1550 441 1557 427.5 c 128,-1,13
 1564 414 1564 414 1554.5 410 c 128,-1,14
 1545 406 1545 406 1530.5 405.5 c 128,-1,15
 1516 405 1516 405 1491 405 c 128,-1,16
 1466 405 1466 405 1441.5 404.5 c 128,-1,17
 1417 404 1417 404 1371 399.5 c 128,-1,18
 1325 395 1325 395 1267 387 c 2,19,-1
 394 247 l 1,20,21
 346 242 346 242 327 242 c 128,-1,22
 308 242 308 242 291.5 243.5 c 128,-1,23
 275 245 275 245 260.5 249.5 c 128,-1,24
 246 254 246 254 228.5 260.5 c 128,-1,25
 211 267 211 267 193 276.5 c 128,-1,26
 175 286 175 286 156 298.5 c 128,-1,27
 137 311 137 311 131.5 318.5 c 128,-1,0
 126 326 126 326 130 332.5 c 128,-1,1
292 599 m 1,28,29
 282 606 282 606 291 612.5 c 128,-1,30
 300 619 300 619 312 619 c 0,31,32
 326 619 326 619 351 644.5 c 128,-1,33
 376 670 376 670 385 707 c 0,34,35
 398 769 398 769 319 809 c 0,36,37
 260 838 260 838 160 853.5 c 128,-1,38
 60 869 60 869 49 874 c 256,39,40
 38 878 38 878 40.5 886 c 128,-1,41
 43 894 43 894 52 894 c 0,42,43
 61 894 61 894 163.5 879.5 c 128,-1,44
 266 865 266 865 350 833 c 0,45,46
 400 813 400 813 430 793 c 128,-1,47
 460 773 460 773 485 740 c 0,48,49
 510 706 510 706 506 672.5 c 128,-1,50
 502 639 502 639 477 621 c 0,51,52
 454 604 454 604 424.5 598.5 c 128,-1,53
 395 593 395 593 368 593 c 0,54,55
 341 593 341 593 330 593 c 128,-1,56
 319 593 319 593 292 599 c 1,28,29
781 602 m 1,57,58
 747 589 747 589 666 603 c 1,59,60
 619 615 619 615 582.5 635 c 128,-1,61
 546 655 546 655 526 704 c 1,62,63
 513 751 513 751 517.5 779 c 128,-1,64
 522 807 522 807 549 845 c 1,65,66
 575 876 575 876 609.5 892 c 128,-1,67
 644 908 644 908 694 918 c 0,68,69
 744 928 744 928 775 928 c 128,-1,70
 806 928 806 928 842 926 c 256,71,72
 878 925 878 925 909 920.5 c 128,-1,73
 940 916 940 916 983 903 c 0,74,75
 1056 883 1056 883 1126 848 c 0,76,77
 1166 828 1166 828 1210.5 805.5 c 128,-1,78
 1255 783 1255 783 1310 752 c 0,79,80
 1335 737 1335 737 1364.5 719.5 c 128,-1,81
 1394 702 1394 702 1428 684 c 1,82,83
 1454 668 1454 668 1479 652 c 128,-1,84
 1504 636 1504 636 1500.5 619 c 128,-1,85
 1497 602 1497 602 1481.5 603 c 128,-1,86
 1466 604 1466 604 1385.5 602.5 c 128,-1,87
 1305 601 1305 601 1245 602 c 1,88,89
 1221 620 1221 620 1245.5 627.5 c 128,-1,90
 1270 635 1270 635 1282 647 c 0,91,92
 1304 670 1304 670 1301.5 683.5 c 128,-1,93
 1299 697 1299 697 1294.5 704.5 c 128,-1,94
 1290 712 1290 712 1280 721 c 128,-1,95
 1270 730 1270 730 1231 756.5 c 128,-1,96
 1192 783 1192 783 1135 813 c 1,97,98
 1084 836 1084 836 1054 850 c 128,-1,99
 1024 864 1024 864 958 882 c 1,100,101
 909 892 909 892 858 894 c 128,-1,102
 807 896 807 896 754 879 c 1,103,104
 717 863 717 863 702.5 851.5 c 128,-1,105
 688 840 688 840 669 812 c 0,106,107
 653 785 653 785 650.5 766.5 c 128,-1,108
 648 748 648 748 650 723 c 0,109,110
 651 698 651 698 656 687 c 128,-1,111
 661 676 661 676 669 664.5 c 128,-1,112
 677 653 677 653 689 644 c 128,-1,113
 701 635 701 635 725.5 630.5 c 128,-1,114
 750 626 750 626 775 624 c 0,115,116
 785 622 785 622 788 615 c 128,-1,117
 791 608 791 608 781 602 c 1,57,58
EndSplineSet
EndChar

StartChar: j
Encoding: 106 106 29
Width: 1615
VWidth: 345
Flags: W
LayerCount: 2
Fore
SplineSet
1149 827 m 0,0,1
 1179 827 1179 827 1212 826 c 128,-1,2
 1245 825 1245 825 1271 820 c 1,3,4
 1290 820 1290 820 1314 769 c 128,-1,5
 1338 718 1338 718 1367 657 c 0,6,7
 1375 636 1375 636 1386 634 c 0,8,9
 1393 631 1393 631 1397.5 623.5 c 128,-1,10
 1402 616 1402 616 1389 610 c 1,11,12
 1359 604 1359 604 1327.5 605 c 128,-1,13
 1296 606 1296 606 1269 610 c 1,14,15
 1243 622 1243 622 1224.5 654.5 c 128,-1,16
 1206 687 1206 687 1175 773 c 0,17,18
 1172 778 1172 778 1164 789 c 128,-1,19
 1156 800 1156 800 1146 802 c 0,20,21
 1132 804 1132 804 1130 815.5 c 128,-1,22
 1128 827 1128 827 1149 827 c 0,0,1
879 827 m 0,23,24
 909 827 909 827 942 826 c 128,-1,25
 975 825 975 825 1001 820 c 1,26,27
 1020 820 1020 820 1044 769 c 128,-1,28
 1068 718 1068 718 1096 657 c 0,29,30
 1105 636 1105 636 1115 634 c 0,31,32
 1123 631 1123 631 1127.5 623.5 c 128,-1,33
 1132 616 1132 616 1119 610 c 1,34,35
 1088 604 1088 604 1057 605 c 128,-1,36
 1026 606 1026 606 998 610 c 1,37,38
 972 622 972 622 954 654.5 c 128,-1,39
 936 687 936 687 905 773 c 0,40,41
 902 778 902 778 894 789 c 128,-1,42
 886 800 886 800 875 802 c 0,43,44
 861 804 861 804 859.5 815.5 c 128,-1,45
 858 827 858 827 879 827 c 0,23,24
561 866 m 0,46,47
 584 865 584 865 582.5 853.5 c 128,-1,48
 581 842 581 842 564 840 c 0,49,50
 551 838 551 838 542 830 c 128,-1,51
 533 822 533 822 531 818 c 0,52,53
 495 740 495 740 475.5 682 c 128,-1,54
 456 624 456 624 426 613 c 1,55,56
 394 610 394 610 358 608.5 c 128,-1,57
 322 607 322 607 288 613 c 1,58,59
 273 618 273 618 278 625 c 128,-1,60
 283 632 283 632 292 634 c 0,61,62
 302 637 302 637 314 656 c 0,63,64
 349 712 349 712 374 786 c 128,-1,65
 399 860 399 860 421 860 c 1,66,67
 451 864 451 864 488.5 865 c 128,-1,68
 526 866 526 866 561 866 c 0,46,47
522 1096 m 1,69,70
 522 1131 522 1131 523 1163.5 c 128,-1,71
 524 1196 524 1196 524 1234 c 0,72,73
 524 1247 524 1247 533 1248 c 0,74,75
 606 1248 606 1248 681 1248.5 c 128,-1,76
 756 1249 756 1249 830 1251 c 1,77,78
 835 1245 835 1245 833.5 1234.5 c 128,-1,79
 832 1224 832 1224 830 1217 c 1,80,81
 814 1214 814 1214 731 1214 c 128,-1,82
 648 1214 648 1214 587 1214 c 1,83,84
 587 1166 587 1166 588.5 1116.5 c 128,-1,85
 590 1067 590 1067 584 1067 c 0,86,87
 575 1066 575 1066 568 1064 c 128,-1,88
 561 1062 561 1062 523 1063 c 0,89,90
 482 1063 482 1063 430 1061.5 c 128,-1,91
 378 1060 378 1060 339 1060 c 1,92,93
 339 1012 339 1012 340.5 962.5 c 128,-1,94
 342 913 342 913 336 912 c 0,95,96
 320 912 320 912 303 910 c 128,-1,97
 286 908 286 908 273 912 c 0,98,99
 272 912 272 912 272 922 c 1,100,101
 272.5 922.5 l 0,102,103
 273 923 273 923 273 924 c 0,104,105
 273 972 273 972 274.5 1002 c 128,-1,106
 276 1032 276 1032 276 1081 c 0,107,108
 276 1093 276 1093 286 1095 c 0,109,110
 345 1095 345 1095 403.5 1095.5 c 128,-1,111
 462 1096 462 1096 522 1096 c 1,69,70
167 1052 m 2,112,-1
 209 1052 l 2,113,114
 212 1052 212 1052 220 1051.5 c 128,-1,115
 228 1051 228 1051 230 1049 c 0,116,117
 233 1046 233 1046 229.5 1046 c 128,-1,118
 226 1046 226 1046 223 1030 c 2,119,-1
 219 996 l 2,120,121
 216 974 216 974 198 974 c 2,122,-1
 156 974 l 2,123,124
 152 974 152 974 142.5 974.5 c 128,-1,125
 133 975 133 975 133 979 c 128,-1,126
 133 983 133 983 136.5 984.5 c 128,-1,127
 140 986 140 986 141 996 c 2,128,-1
 146 1030 l 2,129,130
 149 1052 149 1052 167 1052 c 2,112,-1
81.5 330 m 128,-1,132
 85 336 85 336 91 337 c 128,-1,133
 97 338 97 338 141 340 c 128,-1,134
 185 342 185 342 318 364 c 2,135,-1
 1080 484 l 2,136,137
 1170 499 1170 499 1206 503 c 128,-1,138
 1242 507 1242 507 1274.5 506.5 c 128,-1,139
 1307 506 1307 506 1331.5 502 c 128,-1,140
 1356 498 1356 498 1389.5 491.5 c 128,-1,141
 1423 485 1423 485 1454 476.5 c 128,-1,142
 1485 468 1485 468 1512.5 456 c 128,-1,143
 1540 444 1540 444 1547 430.5 c 128,-1,144
 1554 417 1554 417 1544.5 412.5 c 128,-1,145
 1535 408 1535 408 1520.5 407.5 c 128,-1,146
 1506 407 1506 407 1481 407 c 128,-1,147
 1456 407 1456 407 1431.5 406.5 c 128,-1,148
 1407 406 1407 406 1360.5 402 c 128,-1,149
 1314 398 1314 398 1257 389 c 2,150,-1
 345 245 l 1,151,152
 297 240 297 240 278 240 c 128,-1,153
 259 240 259 240 243 241.5 c 128,-1,154
 227 243 227 243 212 247 c 128,-1,155
 197 251 197 251 180 257.5 c 128,-1,156
 163 264 163 264 144.5 273.5 c 128,-1,157
 126 283 126 283 107 296 c 128,-1,158
 88 309 88 309 83 316.5 c 128,-1,131
 78 324 78 324 81.5 330 c 128,-1,132
EndSplineSet
EndChar

StartChar: equal
Encoding: 61 61 30
Width: 1521
VWidth: 345
Flags: W
LayerCount: 2
Fore
SplineSet
176 -11 m 0,0,1
 326 -4 326 -4 529 7 c 128,-1,2
 732 18 732 18 881 13 c 0,3,4
 1010 9 1010 9 1130.5 -3 c 128,-1,5
 1251 -15 1251 -15 1314 -29 c 0,6,7
 1378 -44 1378 -44 1431 -78.5 c 128,-1,8
 1484 -113 1484 -113 1493 -148 c 0,9,10
 1501 -183 1501 -183 1494 -207 c 128,-1,11
 1487 -231 1487 -231 1416 -262 c 1,12,13
 1365 -273 1365 -273 1309.5 -276.5 c 128,-1,14
 1254 -280 1254 -280 1213 -280 c 1,15,16
 1196 -274 1196 -274 1210.5 -266 c 128,-1,17
 1225 -258 1225 -258 1250.5 -245.5 c 128,-1,18
 1276 -233 1276 -233 1303 -213.5 c 128,-1,19
 1330 -194 1330 -194 1338 -163 c 0,20,21
 1354 -108 1354 -108 1289.5 -79.5 c 128,-1,22
 1225 -51 1225 -51 1135.5 -38 c 128,-1,23
 1046 -25 1046 -25 959 -23.5 c 128,-1,24
 872 -22 872 -22 842 -20 c 0,25,26
 779 -17 779 -17 667 -21 c 128,-1,27
 555 -25 555 -25 445.5 -31 c 128,-1,28
 336 -37 336 -37 256 -42.5 c 0,29,-1
 176 -48 l 1,30,31
 160 -45 160 -45 160.5 -28.5 c 128,-1,32
 161 -12 161 -12 176 -11 c 0,0,1
1054 298 m 0,33,34
 1088 298 1088 298 1125.5 297 c 128,-1,35
 1163 296 1163 296 1193 292 c 1,36,37
 1214 292 1214 292 1233 241 c 128,-1,38
 1252 190 1252 190 1287 139 c 0,39,40
 1299 121 1299 121 1309 119 c 0,41,42
 1318 117 1318 117 1323 111 c 128,-1,43
 1328 105 1328 105 1313 100 c 1,44,45
 1278 95 1278 95 1243 96 c 128,-1,46
 1208 97 1208 97 1175 100 c 1,47,48
 1145 110 1145 110 1132 146.5 c 128,-1,49
 1119 183 1119 183 1084 254 c 1,50,51
 1073 271 1073 271 1050 274 c 0,52,53
 1034 276 1034 276 1032 287 c 128,-1,54
 1030 298 1030 298 1054 298 c 0,33,34
81 339 m 128,-1,56
 85 345 85 345 91 346 c 128,-1,57
 97 347 97 347 140.5 349 c 128,-1,58
 184 351 184 351 318 373 c 2,59,-1
 959 475 l 2,60,61
 1049 490 1049 490 1085 494 c 128,-1,62
 1121 498 1121 498 1153.5 497.5 c 128,-1,63
 1186 497 1186 497 1210.5 493 c 128,-1,64
 1235 489 1235 489 1268.5 482.5 c 128,-1,65
 1302 476 1302 476 1333 467 c 128,-1,66
 1364 458 1364 458 1391 446 c 128,-1,67
 1418 434 1418 434 1425.5 420.5 c 128,-1,68
 1433 407 1433 407 1423.5 403 c 128,-1,69
 1414 399 1414 399 1399.5 398.5 c 128,-1,70
 1385 398 1385 398 1360 398 c 128,-1,71
 1335 398 1335 398 1310.5 397.5 c 128,-1,72
 1286 397 1286 397 1239.5 392.5 c 128,-1,73
 1193 388 1193 388 1136 380 c 2,74,-1
 344 254 l 1,75,76
 296 249 296 249 277 249 c 128,-1,77
 258 249 258 249 242 250.5 c 128,-1,78
 226 252 226 252 211 256.5 c 128,-1,79
 196 261 196 261 179 267.5 c 128,-1,80
 162 274 162 274 143.5 283.5 c 128,-1,81
 125 293 125 293 106.5 305.5 c 128,-1,82
 88 318 88 318 82.5 325.5 c 128,-1,55
 77 333 77 333 81 339 c 128,-1,56
EndSplineSet
EndChar

StartChar: quotedbl
Encoding: 34 34 31
Width: 0
VWidth: 345
Flags: W
LayerCount: 2
Fore
SplineSet
-1039 137 m 0,0,1
 -889 144 -889 144 -686 155 c 128,-1,2
 -483 166 -483 166 -333 161 c 0,3,4
 -203 158 -203 158 -83.5 146 c 128,-1,5
 36 134 36 134 99 119 c 0,6,7
 163 104 163 104 217 69.5 c 128,-1,8
 271 35 271 35 278 0 c 256,9,10
 286 -35 286 -35 279 -59 c 128,-1,11
 272 -83 272 -83 201 -114 c 1,12,13
 151 -125 151 -125 95.5 -129 c 128,-1,14
 40 -133 40 -133 -1 -132 c 1,15,16
 -18 -125 -18 -125 -4 -117.5 c 128,-1,17
 10 -110 10 -110 36 -97.5 c 128,-1,18
 62 -85 62 -85 89 -65.5 c 128,-1,19
 116 -46 116 -46 124 -15 c 0,20,21
 140 40 140 40 75.5 68.5 c 128,-1,22
 11 97 11 97 -78.5 110 c 128,-1,23
 -168 123 -168 123 -255.5 125 c 128,-1,24
 -343 127 -343 127 -373 128 c 0,25,26
 -436 131 -436 131 -548 127 c 128,-1,27
 -660 123 -660 123 -769 117 c 128,-1,28
 -878 111 -878 111 -958.5 105.5 c 0,29,-1
 -1039 100 l 1,30,31
 -1055 103 -1055 103 -1054.5 119 c 128,-1,32
 -1054 135 -1054 135 -1039 137 c 0,0,1
EndSplineSet
EndChar

StartChar: bracketright
Encoding: 93 93 32
Width: 4
VWidth: 345
Flags: W
LayerCount: 2
Fore
SplineSet
-2244 93 m 1,0,1
 -2233 102 -2233 102 -2212.5 92.5 c 128,-1,2
 -2192 83 -2192 83 -2207 60 c 1,3,-1
 -2323 -68 l 1,4,5
 -2314 -61 -2314 -61 -2242.5 -30.5 c 128,-1,6
 -2171 0 -2171 0 -2132 11 c 0,7,8
 -2043 35 -2043 35 -1931 26 c 128,-1,9
 -1819 17 -1819 17 -1736 -9 c 0,10,11
 -1699 -20 -1699 -20 -1637.5 -45.5 c 128,-1,12
 -1576 -71 -1576 -71 -1502 -93.5 c 128,-1,13
 -1428 -116 -1428 -116 -1347.5 -127 c 128,-1,14
 -1267 -138 -1267 -138 -1193 -122 c 0,15,16
 -1151 -113 -1151 -113 -1116.5 -85.5 c 128,-1,17
 -1082 -58 -1082 -58 -1094 -40 c 0,18,19
 -1106 -22 -1106 -22 -1142 -46 c 128,-1,20
 -1178 -70 -1178 -70 -1211 -9 c 0,21,22
 -1235 38 -1235 38 -1204.5 71 c 128,-1,23
 -1174 104 -1174 104 -1119 95 c 0,24,25
 -1038 80 -1038 80 -1038 0 c 0,26,27
 -1038 -42 -1038 -42 -1074.5 -86 c 128,-1,28
 -1111 -130 -1111 -130 -1159 -145 c 0,29,30
 -1254 -176 -1254 -176 -1340 -171 c 128,-1,31
 -1426 -166 -1426 -166 -1502 -145.5 c 128,-1,32
 -1578 -125 -1578 -125 -1643 -97.5 c 128,-1,33
 -1708 -70 -1708 -70 -1762 -54 c 0,34,35
 -1862 -24 -1862 -24 -1949 -11.5 c 128,-1,36
 -2036 1 -2036 1 -2128 -21 c 0,37,38
 -2182 -34 -2182 -34 -2252 -63.5 c 128,-1,39
 -2322 -93 -2322 -93 -2347 -112 c 0,40,41
 -2359 -123 -2359 -123 -2378 -110.5 c 128,-1,42
 -2397 -98 -2397 -98 -2388 -75 c 1,43,-1
 -2244 93 l 1,0,1
EndSplineSet
EndChar

StartChar: quotesingle
Encoding: 39 39 33
Width: 43
VWidth: 345
Flags: W
LayerCount: 2
Fore
SplineSet
-150 210 m 1,0,1
 -91 224 -91 224 -44 234 c 128,-1,2
 3 244 3 244 65 251 c 1,3,4
 79 249 79 249 79.5 235 c 128,-1,5
 80 221 80 221 68 220 c 0,6,7
 63 218 63 218 61.5 218.5 c 128,-1,8
 60 219 60 219 52 218 c 0,9,10
 30 213 30 213 -15 164 c 128,-1,11
 -60 115 -60 115 -112 55.5 c 128,-1,12
 -164 -4 -164 -4 -192.5 -32 c 128,-1,13
 -221 -60 -221 -60 -241 -77.5 c 128,-1,14
 -261 -95 -261 -95 -308 -127 c 0,15,16
 -360 -164 -360 -164 -453 -186.5 c 128,-1,17
 -546 -209 -546 -209 -613.5 -215.5 c 128,-1,18
 -681 -222 -681 -222 -731 -217 c 128,-1,19
 -781 -212 -781 -212 -851.5 -199.5 c 128,-1,20
 -922 -187 -922 -187 -1056 -136 c 0,21,22
 -1219 -73 -1219 -73 -1262 -51.5 c 128,-1,23
 -1305 -30 -1305 -30 -1354 -6 c 1,24,25
 -1364 7 -1364 7 -1356.5 23 c 128,-1,26
 -1349 39 -1349 39 -1322 29 c 0,27,28
 -1295 18 -1295 18 -1210 -23.5 c 128,-1,29
 -1125 -65 -1125 -65 -996 -112 c 0,30,31
 -902 -148 -902 -148 -795.5 -162 c 128,-1,32
 -689 -176 -689 -176 -619 -167 c 0,33,34
 -555 -159 -555 -159 -495.5 -134 c 128,-1,35
 -436 -109 -436 -109 -367 -42 c 1,36,37
 -291 52 -291 52 -242 122.5 c 128,-1,38
 -193 193 -193 193 -150 210 c 1,0,1
EndSplineSet
EndChar

StartChar: A
Encoding: 65 65 34
Width: 0
VWidth: 345
Flags: W
LayerCount: 2
Fore
SplineSet
-580.5 739 m 128,-1,1
 -605 746 -605 746 -590.5 730 c 128,-1,2
 -576 714 -576 714 -562.5 704 c 128,-1,3
 -549 694 -549 694 -263 570 c 0,4,5
 -247 563 -247 563 -239 574 c 2,6,-1
 -134 693 l 2,7,8
 -113 719 -113 719 -137 735 c 2,9,-1
 -179 760 l 2,10,11
 -207 776 -207 776 -222 757 c 2,12,-1
 -322 637 l 1,13,14
 -503 713 -503 713 -529.5 722.5 c 128,-1,0
 -556 732 -556 732 -580.5 739 c 128,-1,1
EndSplineSet
EndChar

StartChar: perthousand
Encoding: 228 8240 35
Width: 0
VWidth: 345
Flags: W
LayerCount: 2
Fore
SplineSet
-574 969 m 1,0,1
 -574 1004 -574 1004 -573 1036 c 128,-1,2
 -572 1068 -572 1068 -572 1107 c 0,3,4
 -572 1119 -572 1119 -563 1121 c 0,5,6
 -489 1121 -489 1121 -414.5 1121.5 c 128,-1,7
 -340 1122 -340 1122 -267 1123 c 1,8,9
 -259 1113 -259 1113 -267 1089 c 1,10,11
 -282 1086 -282 1086 -365 1086.5 c 128,-1,12
 -448 1087 -448 1087 -509 1087 c 1,13,14
 -509 1039 -509 1039 -507.5 989.5 c 128,-1,15
 -506 940 -506 940 -512 940 c 0,16,17
 -520 938 -520 938 -527.5 936.5 c 128,-1,18
 -535 935 -535 935 -573 936 c 1,19,20
 -614 935 -614 935 -666 934 c 128,-1,21
 -718 933 -718 933 -757 933 c 1,22,23
 -757 885 -757 885 -755.5 835 c 128,-1,24
 -754 785 -754 785 -760 785 c 0,25,26
 -776 785 -776 785 -793 783 c 128,-1,27
 -810 781 -810 781 -823 785 c 0,28,29
 -824 785 -824 785 -824 795 c 1,30,31
 -823.5 795.5 l 0,32,33
 -823 796 -823 796 -823 797 c 0,34,35
 -823 846 -823 846 -821.5 875 c 128,-1,36
 -820 904 -820 904 -820 954 c 0,37,38
 -820 966 -820 966 -811 968 c 0,39,40
 -752 968 -752 968 -692.5 968.5 c 128,-1,41
 -633 969 -633 969 -574 969 c 1,0,1
EndSplineSet
EndChar

StartChar: k
Encoding: 107 107 36
Width: 4
VWidth: 345
Flags: W
LayerCount: 2
Fore
SplineSet
-784 -1 m 2,0,-1
 -725 -1 l 2,1,2
 -720 -1 -720 -1 -709 -1 c 128,-1,3
 -698 -1 -698 -1 -695 -4 c 0,4,5
 -691 -8 -691 -8 -696.5 -8.5 c 128,-1,6
 -702 -9 -702 -9 -705 -31 c 2,7,-1
 -711 -78 l 2,8,9
 -714 -108 -714 -108 -740 -109 c 2,10,-1
 -799 -109 l 2,11,12
 -803 -109 -803 -109 -816.5 -108 c 128,-1,13
 -830 -107 -830 -107 -830 -102 c 0,14,15
 -830 -96 -830 -96 -825 -94 c 128,-1,16
 -820 -92 -820 -92 -819 -78 c 2,17,-1
 -812 -31 l 2,18,19
 -808 -1 -808 -1 -784 -1 c 2,0,-1
-544 -1 m 2,20,-1
 -485 -1 l 2,21,22
 -480 -1 -480 -1 -469 -1 c 128,-1,23
 -458 -1 -458 -1 -455 -4 c 0,24,25
 -451 -8 -451 -8 -456.5 -8.5 c 128,-1,26
 -462 -9 -462 -9 -465 -31 c 2,27,-1
 -471 -78 l 2,28,29
 -474 -108 -474 -108 -500 -109 c 2,30,-1
 -559 -109 l 2,31,32
 -563 -109 -563 -109 -576 -108 c 128,-1,33
 -589 -107 -589 -107 -590 -102 c 0,34,35
 -590 -96 -590 -96 -585 -94 c 128,-1,36
 -580 -92 -580 -92 -579 -78 c 2,37,-1
 -572 -31 l 2,38,39
 -568 -1 -568 -1 -544 -1 c 2,20,-1
EndSplineSet
EndChar

StartChar: K
Encoding: 75 75 37
Width: 8
VWidth: 345
Flags: W
LayerCount: 2
Fore
SplineSet
-310 -1 m 2,0,-1
 -250 -1 l 2,1,2
 -245 -1 -245 -1 -234 -1 c 128,-1,3
 -223 -1 -223 -1 -220 -4 c 0,4,5
 -216 -8 -216 -8 -221.5 -8.5 c 128,-1,6
 -227 -9 -227 -9 -230 -31 c 2,7,-1
 -236 -78 l 2,8,9
 -240 -108 -240 -108 -265 -109 c 2,10,-1
 -324 -109 l 2,11,12
 -329 -109 -329 -109 -341.5 -108 c 128,-1,13
 -354 -107 -354 -107 -355 -102 c 0,14,15
 -355 -96 -355 -96 -350.5 -94 c 128,-1,16
 -346 -92 -346 -92 -344 -78 c 2,17,-1
 -338 -31 l 2,18,19
 -333 -1 -333 -1 -310 -1 c 2,0,-1
-84 -1 m 2,20,-1
 -25 -1 l 2,21,22
 -20 -1 -20 -1 -9.5 -1 c 128,-1,23
 1 -1 1 -1 5 -4 c 0,24,25
 8 -8 8 -8 3 -8.5 c 128,-1,26
 -2 -9 -2 -9 -5 -31 c 2,27,-1
 -11 -78 l 2,28,29
 -14 -108 -14 -108 -40 -109 c 2,30,-1
 -99 -109 l 2,31,32
 -104 -109 -104 -109 -116.5 -108 c 128,-1,33
 -129 -107 -129 -107 -130 -102 c 0,34,35
 -130 -96 -130 -96 -125 -94 c 128,-1,36
 -120 -92 -120 -92 -119 -78 c 2,37,-1
 -113 -31 l 2,38,39
 -108 -1 -108 -1 -84 -1 c 2,20,-1
EndSplineSet
EndChar

StartChar: edieresis
Encoding: 145 235 38
Width: 0
VWidth: 345
Flags: W
LayerCount: 2
Fore
SplineSet
-619.5 -2 m 128,-1,1
 -644 5 -644 5 -629.5 -11 c 128,-1,2
 -615 -27 -615 -27 -601.5 -37 c 128,-1,3
 -588 -47 -588 -47 -302 -171 c 0,4,5
 -286 -178 -286 -178 -278 -166 c 2,6,-1
 -173 -48 l 2,7,8
 -152 -22 -152 -22 -176 -6 c 2,9,-1
 -218 18 l 2,10,11
 -246 34 -246 34 -261 15 c 2,12,-1
 -361 -103 l 1,13,14
 -542 -27 -542 -27 -568.5 -18 c 128,-1,0
 -595 -9 -595 -9 -619.5 -2 c 128,-1,1
EndSplineSet
EndChar

StartChar: R
Encoding: 82 82 39
Width: 1859
VWidth: 345
Flags: W
LayerCount: 2
Fore
SplineSet
885 701 m 1,0,-1
 894 663 l 2,1,2
 894 659 894 659 904.5 643.5 c 128,-1,3
 915 628 915 628 915 624 c 256,4,5
 915 620 915 620 898 617 c 128,-1,6
 881 614 881 614 875 614 c 2,7,-1
 814 614 l 2,8,9
 802 614 802 614 791.5 631 c 128,-1,10
 781 648 781 648 778 663 c 2,11,-1
 770 701 l 1,12,13
 653 701 653 701 555.5 710.5 c 128,-1,14
 458 720 458 720 417 727 c 0,15,16
 341 739 341 739 291.5 769 c 128,-1,17
 242 799 242 799 226 837 c 0,18,19
 218 856 218 856 197 893.5 c 128,-1,20
 176 931 176 931 152.5 969 c 128,-1,21
 129 1007 129 1007 108.5 1037 c 128,-1,22
 88 1067 88 1067 81 1071 c 0,23,24
 40 1085 40 1085 62 1101 c 1,25,26
 112 1105 112 1105 158.5 1106.5 c 128,-1,27
 205 1108 205 1108 252 1104 c 0,28,29
 300 1101 300 1101 321 1049 c 128,-1,30
 342 997 342 997 363 913 c 0,31,32
 384 829 384 829 414.5 798.5 c 128,-1,33
 445 768 445 768 520 748 c 0,34,35
 562 736 562 736 621.5 733 c 128,-1,36
 681 730 681 730 767 731 c 1,37,-1
 754 800 l 2,38,39
 753 805 753 805 744 813.5 c 128,-1,40
 735 822 735 822 735 826 c 0,41,42
 735 832 735 832 751.5 834 c 128,-1,43
 768 836 768 836 774 836 c 2,44,-1
 835 836 l 2,45,46
 846 836 846 836 856.5 820.5 c 128,-1,47
 867 805 867 805 871 787 c 2,48,-1
 881 732 l 1,49,50
 948 733 948 733 972.5 736.5 c 128,-1,51
 997 740 997 740 1025 744 c 1,52,53
 1036 743 1036 743 1038 734 c 128,-1,54
 1040 725 1040 725 1033 718 c 0,55,56
 1023 710 1023 710 992.5 705.5 c 128,-1,57
 962 701 962 701 885 701 c 1,0,-1
1458 842 m 0,58,59
 1488 842 1488 842 1520.5 841 c 128,-1,60
 1553 840 1553 840 1580 835 c 1,61,62
 1599 835 1599 835 1622.5 784 c 128,-1,63
 1646 733 1646 733 1675 672 c 0,64,65
 1684 651 1684 651 1694 648 c 0,66,67
 1702 645 1702 645 1706 637.5 c 128,-1,68
 1710 630 1710 630 1698 624 c 1,69,70
 1667 618 1667 618 1636 619 c 128,-1,71
 1605 620 1605 620 1577 624 c 1,72,73
 1551 636 1551 636 1533 668.5 c 128,-1,74
 1515 701 1515 701 1484 788 c 0,75,76
 1481 793 1481 793 1472.5 803.5 c 128,-1,77
 1464 814 1464 814 1454 816 c 0,78,79
 1440 818 1440 818 1438.5 830 c 128,-1,80
 1437 842 1437 842 1458 842 c 0,58,59
1187 842 m 0,81,82
 1217 842 1217 842 1250 841 c 128,-1,83
 1283 840 1283 840 1309 835 c 1,84,85
 1328 835 1328 835 1352 784 c 128,-1,86
 1376 733 1376 733 1405 672 c 0,87,88
 1413 651 1413 651 1424 648 c 0,89,90
 1431 645 1431 645 1435.5 637.5 c 128,-1,91
 1440 630 1440 630 1427 624 c 1,92,93
 1397 618 1397 618 1365.5 619 c 128,-1,94
 1334 620 1334 620 1307 624 c 1,95,96
 1281 636 1281 636 1262.5 668.5 c 128,-1,97
 1244 701 1244 701 1213 788 c 0,98,99
 1210 793 1210 793 1202 803.5 c 128,-1,100
 1194 814 1194 814 1184 816 c 0,101,102
 1170 818 1170 818 1168 830 c 128,-1,103
 1166 842 1166 842 1187 842 c 0,81,82
141.5 314.5 m 128,-1,105
 145 321 145 321 151 322 c 128,-1,106
 157 323 157 323 201 324.5 c 128,-1,107
 245 326 245 326 378 348 c 2,108,-1
 1323 499 l 2,109,110
 1413 515 1413 515 1449 518.5 c 128,-1,111
 1485 522 1485 522 1517.5 521.5 c 128,-1,112
 1550 521 1550 521 1574.5 517 c 128,-1,113
 1599 513 1599 513 1633 506.5 c 128,-1,114
 1667 500 1667 500 1698 491.5 c 128,-1,115
 1729 483 1729 483 1756 471 c 128,-1,116
 1783 459 1783 459 1790 445.5 c 128,-1,117
 1797 432 1797 432 1788 427.5 c 128,-1,118
 1779 423 1779 423 1764 422.5 c 128,-1,119
 1749 422 1749 422 1724.5 422 c 128,-1,120
 1700 422 1700 422 1675 421.5 c 128,-1,121
 1650 421 1650 421 1604 417 c 128,-1,122
 1558 413 1558 413 1500 404 c 2,123,-1
 405 230 l 1,124,125
 357 225 357 225 338 224.5 c 128,-1,126
 319 224 319 224 303 226 c 128,-1,127
 287 228 287 228 272 232 c 128,-1,128
 257 236 257 236 240 242.5 c 128,-1,129
 223 249 223 249 204.5 258.5 c 128,-1,130
 186 268 186 268 167 281 c 128,-1,131
 148 294 148 294 143 301 c 128,-1,104
 138 308 138 308 141.5 314.5 c 128,-1,105
EndSplineSet
EndChar

StartChar: U
Encoding: 85 85 40
Width: 1627
VWidth: 345
Flags: W
LayerCount: 2
Fore
SplineSet
408 610 m 1,0,1
 397 619 397 619 407 626.5 c 128,-1,2
 417 634 417 634 432 634 c 0,3,4
 448 634 448 634 477 663 c 128,-1,5
 506 692 506 692 516 735 c 0,6,7
 531 808 531 808 439 855 c 0,8,9
 404 872 404 872 351 885.5 c 128,-1,10
 298 899 298 899 246 909 c 128,-1,11
 194 919 194 919 154.5 925 c 128,-1,12
 115 931 115 931 108 934 c 0,13,14
 94 939 94 939 97.5 948.5 c 128,-1,15
 101 958 101 958 112 958 c 0,16,17
 118 958 118 958 157 953.5 c 128,-1,18
 196 949 196 949 250 939.5 c 128,-1,19
 304 930 304 930 364.5 916 c 128,-1,20
 425 902 425 902 475 883 c 0,21,22
 534 860 534 860 569 836.5 c 128,-1,23
 604 813 604 813 633 774 c 256,24,25
 662 735 662 735 657.5 696 c 128,-1,26
 653 657 653 657 624 636 c 0,27,28
 597 616 597 616 562.5 609 c 128,-1,29
 528 602 528 602 496 602 c 256,30,31
 464 602 464 602 452 602 c 128,-1,32
 440 602 440 602 408 610 c 1,0,1
1149 832 m 0,33,34
 1179 832 1179 832 1212 831 c 128,-1,35
 1245 830 1245 830 1271 825 c 1,36,37
 1290 825 1290 825 1314 774 c 128,-1,38
 1338 723 1338 723 1367 662 c 0,39,40
 1375 641 1375 641 1386 638 c 0,41,42
 1393 635 1393 635 1397.5 627.5 c 128,-1,43
 1402 620 1402 620 1389 615 c 1,44,45
 1359 609 1359 609 1327.5 610 c 128,-1,46
 1296 611 1296 611 1269 615 c 1,47,48
 1243 627 1243 627 1224.5 659.5 c 128,-1,49
 1206 692 1206 692 1175 778 c 0,50,51
 1172 783 1172 783 1164 793.5 c 128,-1,52
 1156 804 1156 804 1146 806 c 0,53,54
 1132 808 1132 808 1130 820 c 128,-1,55
 1128 832 1128 832 1149 832 c 0,33,34
879 832 m 0,56,57
 909 832 909 832 942 831 c 128,-1,58
 975 830 975 830 1001 825 c 1,59,60
 1020 825 1020 825 1044 774 c 128,-1,61
 1068 723 1068 723 1096 662 c 0,62,63
 1105 641 1105 641 1115 638 c 0,64,65
 1123 635 1123 635 1127.5 627.5 c 128,-1,66
 1132 620 1132 620 1119 615 c 1,67,68
 1088 609 1088 609 1057 610 c 128,-1,69
 1026 611 1026 611 998 615 c 1,70,71
 972 627 972 627 954 659.5 c 128,-1,72
 936 692 936 692 905 778 c 0,73,74
 902 783 902 783 894 793.5 c 128,-1,75
 886 804 886 804 875 806 c 0,76,77
 861 808 861 808 859.5 820 c 128,-1,78
 858 832 858 832 879 832 c 0,56,57
81.5 335.5 m 128,-1,80
 85 342 85 342 91 343 c 128,-1,81
 97 344 97 344 141 345.5 c 128,-1,82
 185 347 185 347 318 369 c 2,83,-1
 1075 489 l 2,84,85
 1165 504 1165 504 1201.5 508 c 128,-1,86
 1238 512 1238 512 1270.5 511.5 c 128,-1,87
 1303 511 1303 511 1327.5 507 c 128,-1,88
 1352 503 1352 503 1385 496.5 c 128,-1,89
 1418 490 1418 490 1449 481 c 128,-1,90
 1480 472 1480 472 1507.5 460 c 128,-1,91
 1535 448 1535 448 1542.5 434.5 c 128,-1,92
 1550 421 1550 421 1540.5 416.5 c 128,-1,93
 1531 412 1531 412 1516 411.5 c 128,-1,94
 1501 411 1501 411 1476.5 411 c 128,-1,95
 1452 411 1452 411 1427.5 410.5 c 128,-1,96
 1403 410 1403 410 1356.5 406 c 128,-1,97
 1310 402 1310 402 1252 394 c 2,98,-1
 345 250 l 1,99,100
 297 245 297 245 278 245 c 128,-1,101
 259 245 259 245 243 246.5 c 128,-1,102
 227 248 227 248 212 252.5 c 128,-1,103
 197 257 197 257 180 263.5 c 128,-1,104
 163 270 163 270 144.5 279.5 c 128,-1,105
 126 289 126 289 107 301.5 c 128,-1,106
 88 314 88 314 83 321.5 c 128,-1,79
 78 329 78 329 81.5 335.5 c 128,-1,80
EndSplineSet
EndChar

StartChar: integral
Encoding: 186 8747 41
Width: 1585
VWidth: 345
Flags: W
LayerCount: 2
Fore
SplineSet
1149 827 m 0,0,1
 1179 827 1179 827 1212 826 c 128,-1,2
 1245 825 1245 825 1271 820 c 1,3,4
 1290 820 1290 820 1314 769 c 128,-1,5
 1338 718 1338 718 1367 657 c 0,6,7
 1375 636 1375 636 1386 634 c 0,8,9
 1393 631 1393 631 1397.5 623.5 c 128,-1,10
 1402 616 1402 616 1389 610 c 1,11,12
 1359 604 1359 604 1327.5 605 c 128,-1,13
 1296 606 1296 606 1269 610 c 1,14,15
 1243 622 1243 622 1224.5 654.5 c 128,-1,16
 1206 687 1206 687 1175 773 c 0,17,18
 1172 778 1172 778 1164 789 c 128,-1,19
 1156 800 1156 800 1146 802 c 0,20,21
 1132 804 1132 804 1130 815.5 c 128,-1,22
 1128 827 1128 827 1149 827 c 0,0,1
879 827 m 0,23,24
 909 827 909 827 942 826 c 128,-1,25
 975 825 975 825 1001 820 c 1,26,27
 1020 820 1020 820 1044 769 c 128,-1,28
 1068 718 1068 718 1096 657 c 0,29,30
 1105 636 1105 636 1115 634 c 0,31,32
 1123 631 1123 631 1127.5 623.5 c 128,-1,33
 1132 616 1132 616 1119 610 c 1,34,35
 1088 604 1088 604 1057 605 c 128,-1,36
 1026 606 1026 606 998 610 c 1,37,38
 972 622 972 622 954 654.5 c 128,-1,39
 936 687 936 687 905 773 c 0,40,41
 902 778 902 778 894 789 c 128,-1,42
 886 800 886 800 875 802 c 0,43,44
 861 804 861 804 859.5 815.5 c 128,-1,45
 858 827 858 827 879 827 c 0,23,24
561 866 m 0,46,47
 584 865 584 865 582.5 853.5 c 128,-1,48
 581 842 581 842 564 840 c 0,49,50
 551 838 551 838 542 830 c 128,-1,51
 533 822 533 822 531 818 c 0,52,53
 495 740 495 740 475.5 682 c 128,-1,54
 456 624 456 624 426 613 c 1,55,56
 394 610 394 610 358 608.5 c 128,-1,57
 322 607 322 607 288 613 c 1,58,59
 273 618 273 618 278 625 c 128,-1,60
 283 632 283 632 292 634 c 0,61,62
 302 637 302 637 314 656 c 0,63,64
 349 712 349 712 374 786 c 128,-1,65
 399 860 399 860 421 860 c 1,66,67
 451 864 451 864 488.5 865 c 128,-1,68
 526 866 526 866 561 866 c 0,46,47
69 1008 m 2,69,-1
 111 1008 l 2,70,71
 114 1008 114 1008 122 1007.5 c 128,-1,72
 130 1007 130 1007 133 1005 c 0,73,74
 136 1002 136 1002 132 1002 c 128,-1,75
 128 1002 128 1002 125 986 c 2,76,-1
 121 952 l 2,77,78
 118 930 118 930 101 930 c 2,79,-1
 59 930 l 2,80,81
 55 930 55 930 45.5 930.5 c 128,-1,82
 36 931 36 931 36 935 c 128,-1,83
 36 939 36 939 39 940.5 c 128,-1,84
 42 942 42 942 43 952 c 2,85,-1
 48 986 l 2,86,87
 51 1008 51 1008 69 1008 c 2,69,-1
427 1141 m 0,88,89
 427 1154 427 1154 437 1156 c 1,90,91
 496 1156 496 1156 555 1156.5 c 128,-1,92
 614 1157 614 1157 673 1157 c 1,93,94
 673 1193 673 1193 673.5 1204.5 c 128,-1,95
 674 1216 674 1216 674 1256 c 0,96,97
 674 1269 674 1269 683 1270 c 0,98,99
 756 1270 756 1270 830.5 1270.5 c 128,-1,100
 905 1271 905 1271 979 1273 c 1,101,102
 987 1261 987 1261 979 1238 c 1,103,104
 964 1235 964 1235 880.5 1235 c 128,-1,105
 797 1235 797 1235 736 1235 c 1,106,107
 736 1185 736 1185 738.5 1156 c 128,-1,108
 741 1127 741 1127 735 1126 c 0,109,110
 727 1125 727 1125 719.5 1123 c 128,-1,111
 712 1121 712 1121 674 1123 c 1,112,113
 634 1122 634 1122 581.5 1120.5 c 128,-1,114
 529 1119 529 1119 490 1119 c 1,115,116
 490 1112 490 1112 490 1107 c 1,117,-1
 490 1107 l 1,118,119
 491 1012 491 1012 489 1012 c 0,120,121
 481 1010 481 1010 473.5 1008.5 c 128,-1,122
 466 1007 466 1007 427 1008 c 1,123,124
 387 1007 387 1007 335 1006 c 128,-1,125
 283 1005 283 1005 244 1005 c 1,126,127
 244 898 244 898 241 897 c 0,128,129
 226 897 226 897 208.5 895 c 128,-1,130
 191 893 191 893 178 897 c 0,131,132
 177 897 177 897 177 907 c 0,133,-1
 177.5 907.5 l 0,134,135
 178 908 178 908 178 909 c 0,136,137
 178 959 178 959 179.5 967 c 128,-1,138
 181 975 181 975 181 1026 c 0,139,140
 181 1039 181 1039 190 1040 c 0,141,142
 249 1040 249 1040 308.5 1041 c 128,-1,143
 368 1042 368 1042 426 1042 c 1,144,145
 426 1067 426 1067 426.5 1091.5 c 128,-1,146
 427 1116 427 1116 427 1141 c 0,88,89
81.5 330.5 m 128,-1,148
 85 337 85 337 91 338 c 128,-1,149
 97 339 97 339 141 340.5 c 128,-1,150
 185 342 185 342 318 364 c 2,151,-1
 1075 484 l 2,152,153
 1165 499 1165 499 1201.5 503 c 128,-1,154
 1238 507 1238 507 1270.5 506.5 c 128,-1,155
 1303 506 1303 506 1327.5 502 c 128,-1,156
 1352 498 1352 498 1385 491.5 c 128,-1,157
 1418 485 1418 485 1449 476 c 128,-1,158
 1480 467 1480 467 1507.5 455 c 128,-1,159
 1535 443 1535 443 1542.5 429.5 c 128,-1,160
 1550 416 1550 416 1540.5 411.5 c 128,-1,161
 1531 407 1531 407 1516 407 c 128,-1,162
 1501 407 1501 407 1476.5 407 c 128,-1,163
 1452 407 1452 407 1427.5 406.5 c 128,-1,164
 1403 406 1403 406 1356.5 401.5 c 128,-1,165
 1310 397 1310 397 1252 389 c 2,166,-1
 345 245 l 1,167,168
 297 240 297 240 278 240 c 128,-1,169
 259 240 259 240 243 241.5 c 128,-1,170
 227 243 227 243 212 247.5 c 128,-1,171
 197 252 197 252 180 258.5 c 128,-1,172
 163 265 163 265 144.5 274.5 c 128,-1,173
 126 284 126 284 107 296.5 c 128,-1,174
 88 309 88 309 83 316.5 c 128,-1,147
 78 324 78 324 81.5 330.5 c 128,-1,148
EndSplineSet
EndChar

StartChar: asciicircum
Encoding: 94 94 42
Width: 1531
VWidth: 345
Flags: W
LayerCount: 2
Fore
SplineSet
621 1177 m 1,0,1
 637 1174 637 1174 635 1160 c 128,-1,2
 633 1146 633 1146 614 1145 c 1,3,4
 593 1138 593 1138 580.5 1092 c 128,-1,5
 568 1046 568 1046 553 995 c 0,6,7
 519 876 519 876 491 802 c 128,-1,8
 463 728 463 728 438 698.5 c 128,-1,9
 413 669 413 669 378 654 c 0,10,11
 324 631 324 631 271.5 619.5 c 128,-1,12
 219 608 219 608 180 608 c 1,13,14
 199 563 199 563 244 545.5 c 128,-1,15
 289 528 289 528 270 507 c 0,16,17
 259 496 259 496 201 536 c 128,-1,18
 143 576 143 576 121 616 c 1,19,20
 121 641 121 641 141.5 636.5 c 128,-1,21
 162 632 162 632 185 631 c 256,22,23
 208 630 208 630 232.5 633.5 c 128,-1,24
 257 637 257 637 298 658 c 0,25,26
 318 668 318 668 336 703.5 c 128,-1,27
 354 739 354 739 368.5 782 c 128,-1,28
 383 825 383 825 393 867.5 c 128,-1,29
 403 910 403 910 419.5 990 c 128,-1,30
 436 1070 436 1070 447.5 1097 c 128,-1,31
 459 1124 459 1124 480.5 1141 c 128,-1,32
 502 1158 502 1158 521.5 1163 c 128,-1,33
 541 1168 541 1168 565 1170.5 c 128,-1,34
 589 1173 589 1173 621 1177 c 1,0,1
81 339 m 128,-1,36
 85 345 85 345 91 346 c 128,-1,37
 97 347 97 347 140.5 349 c 128,-1,38
 184 351 184 351 318 373 c 2,39,-1
 959 475 l 2,40,41
 1049 490 1049 490 1085 494 c 128,-1,42
 1121 498 1121 498 1153.5 497.5 c 128,-1,43
 1186 497 1186 497 1210.5 493 c 128,-1,44
 1235 489 1235 489 1268.5 482.5 c 128,-1,45
 1302 476 1302 476 1333 467 c 128,-1,46
 1364 458 1364 458 1391 446 c 128,-1,47
 1418 434 1418 434 1425.5 420.5 c 128,-1,48
 1433 407 1433 407 1423.5 403 c 128,-1,49
 1414 399 1414 399 1399.5 398.5 c 128,-1,50
 1385 398 1385 398 1360 398 c 128,-1,51
 1335 398 1335 398 1310.5 397.5 c 128,-1,52
 1286 397 1286 397 1239.5 392.5 c 128,-1,53
 1193 388 1193 388 1136 380 c 2,54,-1
 344 254 l 1,55,56
 296 249 296 249 277 249 c 128,-1,57
 258 249 258 249 242 250.5 c 128,-1,58
 226 252 226 252 211 256.5 c 128,-1,59
 196 261 196 261 179 267.5 c 128,-1,60
 162 274 162 274 143.5 283.5 c 128,-1,61
 125 293 125 293 106.5 305.5 c 128,-1,62
 88 318 88 318 82.5 325.5 c 128,-1,35
 77 333 77 333 81 339 c 128,-1,36
874 796 m 0,63,64
 904 796 904 796 937 795 c 128,-1,65
 970 794 970 794 996 789 c 1,66,67
 1015 789 1015 789 1039 738 c 128,-1,68
 1063 687 1063 687 1092 626 c 0,69,70
 1100 605 1100 605 1111 603 c 0,71,72
 1118 600 1118 600 1122.5 592.5 c 128,-1,73
 1127 585 1127 585 1114 579 c 1,74,75
 1084 573 1084 573 1052.5 574 c 128,-1,76
 1021 575 1021 575 994 579 c 1,77,78
 968 591 968 591 949.5 623.5 c 128,-1,79
 931 656 931 656 900 742 c 0,80,81
 897 747 897 747 889 758 c 128,-1,82
 881 769 881 769 871 771 c 0,83,84
 857 773 857 773 855 784.5 c 128,-1,85
 853 796 853 796 874 796 c 0,63,64
604 796 m 0,86,87
 634 796 634 796 667 795 c 128,-1,88
 700 794 700 794 726 789 c 1,89,90
 745 789 745 789 769 738 c 128,-1,91
 793 687 793 687 821 626 c 0,92,93
 830 605 830 605 840 603 c 0,94,95
 848 600 848 600 852.5 592.5 c 128,-1,96
 857 585 857 585 844 579 c 1,97,98
 813 573 813 573 782 574 c 128,-1,99
 751 575 751 575 723 579 c 1,100,101
 697 591 697 591 679 623.5 c 128,-1,102
 661 656 661 656 630 742 c 0,103,104
 627 747 627 747 619 758 c 128,-1,105
 611 769 611 769 601 771 c 0,106,107
 587 773 587 773 585 784.5 c 128,-1,108
 583 796 583 796 604 796 c 0,86,87
EndSplineSet
EndChar

StartChar: ampersand
Encoding: 38 38 43
Width: 1627
VWidth: 345
Flags: W
LayerCount: 2
Fore
SplineSet
1149 822 m 0,0,1
 1179 822 1179 822 1212 821 c 128,-1,2
 1245 820 1245 820 1271 815 c 1,3,4
 1290 815 1290 815 1314 764 c 128,-1,5
 1338 713 1338 713 1367 652 c 0,6,7
 1375 631 1375 631 1386 629 c 0,8,9
 1393 626 1393 626 1397.5 618.5 c 128,-1,10
 1402 611 1402 611 1389 605 c 1,11,12
 1359 599 1359 599 1327.5 600 c 128,-1,13
 1296 601 1296 601 1269 605 c 1,14,15
 1243 617 1243 617 1224.5 649.5 c 128,-1,16
 1206 682 1206 682 1175 768 c 0,17,18
 1172 773 1172 773 1164 784 c 128,-1,19
 1156 795 1156 795 1146 797 c 0,20,21
 1132 799 1132 799 1130 810.5 c 128,-1,22
 1128 822 1128 822 1149 822 c 0,0,1
879 822 m 0,23,24
 909 822 909 822 942 821 c 128,-1,25
 975 820 975 820 1001 815 c 1,26,27
 1020 815 1020 815 1044 764 c 128,-1,28
 1068 713 1068 713 1096 652 c 0,29,30
 1105 631 1105 631 1115 629 c 0,31,32
 1123 626 1123 626 1127.5 618.5 c 128,-1,33
 1132 611 1132 611 1119 605 c 1,34,35
 1088 599 1088 599 1057 600 c 128,-1,36
 1026 601 1026 601 998 605 c 1,37,38
 972 617 972 617 954 649.5 c 128,-1,39
 936 682 936 682 905 768 c 0,40,41
 902 773 902 773 894 784 c 128,-1,42
 886 795 886 795 875 797 c 0,43,44
 861 799 861 799 859.5 810.5 c 128,-1,45
 858 822 858 822 879 822 c 0,23,24
561 842 m 0,46,47
 584 841 584 841 582.5 829.5 c 128,-1,48
 581 818 581 818 564 815 c 0,49,50
 551 813 551 813 542 805.5 c 128,-1,51
 533 798 533 798 531 793 c 0,52,53
 495 715 495 715 475.5 657 c 128,-1,54
 456 599 456 599 426 589 c 1,55,56
 394 586 394 586 358 584.5 c 128,-1,57
 322 583 322 583 288 589 c 1,58,59
 273 594 273 594 278 600.5 c 128,-1,60
 283 607 283 607 292 610 c 0,61,62
 302 613 302 613 314 631 c 0,63,64
 349 687 349 687 374 761 c 128,-1,65
 399 835 399 835 421 835 c 1,66,67
 451 839 451 839 488.5 840.5 c 128,-1,68
 526 842 526 842 561 842 c 0,46,47
81.5 330 m 128,-1,70
 85 336 85 336 91 337 c 128,-1,71
 97 338 97 338 141 340 c 128,-1,72
 185 342 185 342 318 364 c 2,73,-1
 1080 484 l 2,74,75
 1170 499 1170 499 1206 503 c 128,-1,76
 1242 507 1242 507 1274.5 506.5 c 128,-1,77
 1307 506 1307 506 1331.5 502 c 128,-1,78
 1356 498 1356 498 1389.5 491.5 c 128,-1,79
 1423 485 1423 485 1454 476.5 c 128,-1,80
 1485 468 1485 468 1512.5 456 c 128,-1,81
 1540 444 1540 444 1547 430.5 c 128,-1,82
 1554 417 1554 417 1544.5 412.5 c 128,-1,83
 1535 408 1535 408 1520.5 407.5 c 128,-1,84
 1506 407 1506 407 1481 407 c 128,-1,85
 1456 407 1456 407 1431.5 406.5 c 128,-1,86
 1407 406 1407 406 1360.5 402 c 128,-1,87
 1314 398 1314 398 1257 389 c 2,88,-1
 345 245 l 1,89,90
 297 240 297 240 278 240 c 128,-1,91
 259 240 259 240 243 241.5 c 128,-1,92
 227 243 227 243 212 247 c 128,-1,93
 197 251 197 251 180 257.5 c 128,-1,94
 163 264 163 264 144.5 273.5 c 128,-1,95
 126 283 126 283 107 296 c 128,-1,96
 88 309 88 309 83 316.5 c 128,-1,69
 78 324 78 324 81.5 330 c 128,-1,70
EndSplineSet
EndChar

StartChar: asterisk
Encoding: 42 42 44
Width: 1627
VWidth: 345
Flags: W
LayerCount: 2
Fore
SplineSet
1149 822 m 0,0,1
 1179 822 1179 822 1212 821 c 128,-1,2
 1245 820 1245 820 1271 815 c 1,3,4
 1290 815 1290 815 1314 764 c 128,-1,5
 1338 713 1338 713 1367 652 c 0,6,7
 1375 631 1375 631 1386 629 c 0,8,9
 1393 626 1393 626 1397.5 618.5 c 128,-1,10
 1402 611 1402 611 1389 605 c 1,11,12
 1359 599 1359 599 1327.5 600 c 128,-1,13
 1296 601 1296 601 1269 605 c 1,14,15
 1243 617 1243 617 1224.5 649.5 c 128,-1,16
 1206 682 1206 682 1175 768 c 0,17,18
 1172 773 1172 773 1164 784 c 128,-1,19
 1156 795 1156 795 1146 797 c 0,20,21
 1132 799 1132 799 1130 810.5 c 128,-1,22
 1128 822 1128 822 1149 822 c 0,0,1
879 822 m 0,23,24
 909 822 909 822 942 821 c 128,-1,25
 975 820 975 820 1001 815 c 1,26,27
 1020 815 1020 815 1044 764 c 128,-1,28
 1068 713 1068 713 1096 652 c 0,29,30
 1105 631 1105 631 1115 629 c 0,31,32
 1123 626 1123 626 1127.5 618.5 c 128,-1,33
 1132 611 1132 611 1119 605 c 1,34,35
 1088 599 1088 599 1057 600 c 128,-1,36
 1026 601 1026 601 998 605 c 1,37,38
 972 617 972 617 954 649.5 c 128,-1,39
 936 682 936 682 905 768 c 0,40,41
 902 773 902 773 894 784 c 128,-1,42
 886 795 886 795 875 797 c 0,43,44
 861 799 861 799 859.5 810.5 c 128,-1,45
 858 822 858 822 879 822 c 0,23,24
561 842 m 0,46,47
 584 841 584 841 582.5 829.5 c 128,-1,48
 581 818 581 818 564 815 c 0,49,50
 551 813 551 813 542 805.5 c 128,-1,51
 533 798 533 798 531 793 c 0,52,53
 495 715 495 715 475.5 657 c 128,-1,54
 456 599 456 599 426 589 c 1,55,56
 394 586 394 586 358 584.5 c 128,-1,57
 322 583 322 583 288 589 c 1,58,59
 273 594 273 594 278 600.5 c 128,-1,60
 283 607 283 607 292 610 c 0,61,62
 302 613 302 613 314 631 c 0,63,64
 349 687 349 687 374 761 c 128,-1,65
 399 835 399 835 421 835 c 1,66,67
 451 839 451 839 488.5 840.5 c 128,-1,68
 526 842 526 842 561 842 c 0,46,47
419 1087 m 1,69,70
 491 1087 491 1087 563.5 1088.5 c 128,-1,71
 636 1090 636 1090 708 1091 c 1,72,73
 715 1082 715 1082 708 1062 c 1,74,75
 693 1059 693 1059 612 1059 c 128,-1,76
 531 1059 531 1059 471 1059 c 1,77,78
 471 1013 471 1013 471.5 978.5 c 128,-1,79
 472 944 472 944 472 898 c 1,80,81
 456 898 456 898 439 896 c 128,-1,82
 422 894 422 894 410 898 c 1,83,84
 410 948 410 948 410 985.5 c 128,-1,85
 410 1023 410 1023 410 1074 c 0,86,87
 410 1085 410 1085 419 1087 c 1,69,70
81.5 330 m 128,-1,89
 85 336 85 336 91 337 c 128,-1,90
 97 338 97 338 141 340 c 128,-1,91
 185 342 185 342 318 364 c 2,92,-1
 1080 484 l 2,93,94
 1170 499 1170 499 1206 503 c 128,-1,95
 1242 507 1242 507 1274.5 506.5 c 128,-1,96
 1307 506 1307 506 1331.5 502 c 128,-1,97
 1356 498 1356 498 1389.5 491.5 c 128,-1,98
 1423 485 1423 485 1454 476.5 c 128,-1,99
 1485 468 1485 468 1512.5 456 c 128,-1,100
 1540 444 1540 444 1547 430.5 c 128,-1,101
 1554 417 1554 417 1544.5 412.5 c 128,-1,102
 1535 408 1535 408 1520.5 407.5 c 128,-1,103
 1506 407 1506 407 1481 407 c 128,-1,104
 1456 407 1456 407 1431.5 406.5 c 128,-1,105
 1407 406 1407 406 1360.5 402 c 128,-1,106
 1314 398 1314 398 1257 389 c 2,107,-1
 345 245 l 1,108,109
 297 240 297 240 278 240 c 128,-1,110
 259 240 259 240 243 241.5 c 128,-1,111
 227 243 227 243 212 247 c 128,-1,112
 197 251 197 251 180 257.5 c 128,-1,113
 163 264 163 264 144.5 273.5 c 128,-1,114
 126 283 126 283 107 296 c 128,-1,115
 88 309 88 309 83 316.5 c 128,-1,88
 78 324 78 324 81.5 330 c 128,-1,89
EndSplineSet
EndChar

StartChar: parenleft
Encoding: 40 40 45
Width: 1627
VWidth: 345
Flags: W
LayerCount: 2
Fore
SplineSet
1149 822 m 0,0,1
 1179 822 1179 822 1212 821 c 128,-1,2
 1245 820 1245 820 1271 815 c 1,3,4
 1290 815 1290 815 1314 764 c 128,-1,5
 1338 713 1338 713 1367 652 c 0,6,7
 1375 631 1375 631 1386 629 c 0,8,9
 1393 626 1393 626 1397.5 618.5 c 128,-1,10
 1402 611 1402 611 1389 605 c 1,11,12
 1359 599 1359 599 1327.5 600 c 128,-1,13
 1296 601 1296 601 1269 605 c 1,14,15
 1243 617 1243 617 1224.5 649.5 c 128,-1,16
 1206 682 1206 682 1175 768 c 0,17,18
 1172 773 1172 773 1164 784 c 128,-1,19
 1156 795 1156 795 1146 797 c 0,20,21
 1132 799 1132 799 1130 810.5 c 128,-1,22
 1128 822 1128 822 1149 822 c 0,0,1
879 822 m 0,23,24
 909 822 909 822 942 821 c 128,-1,25
 975 820 975 820 1001 815 c 1,26,27
 1020 815 1020 815 1044 764 c 128,-1,28
 1068 713 1068 713 1096 652 c 0,29,30
 1105 631 1105 631 1115 629 c 0,31,32
 1123 626 1123 626 1127.5 618.5 c 128,-1,33
 1132 611 1132 611 1119 605 c 1,34,35
 1088 599 1088 599 1057 600 c 128,-1,36
 1026 601 1026 601 998 605 c 1,37,38
 972 617 972 617 954 649.5 c 128,-1,39
 936 682 936 682 905 768 c 0,40,41
 902 773 902 773 894 784 c 128,-1,42
 886 795 886 795 875 797 c 0,43,44
 861 799 861 799 859.5 810.5 c 128,-1,45
 858 822 858 822 879 822 c 0,23,24
561 842 m 0,46,47
 584 841 584 841 582.5 829.5 c 128,-1,48
 581 818 581 818 564 815 c 0,49,50
 551 813 551 813 542 805.5 c 128,-1,51
 533 798 533 798 531 793 c 0,52,53
 495 715 495 715 475.5 657 c 128,-1,54
 456 599 456 599 426 589 c 1,55,56
 394 586 394 586 358 584.5 c 128,-1,57
 322 583 322 583 288 589 c 1,58,59
 273 594 273 594 278 600.5 c 128,-1,60
 283 607 283 607 292 610 c 0,61,62
 302 613 302 613 314 631 c 0,63,64
 349 687 349 687 374 761 c 128,-1,65
 399 835 399 835 421 835 c 1,66,67
 451 839 451 839 488.5 840.5 c 128,-1,68
 526 842 526 842 561 842 c 0,46,47
542 1072 m 1,69,70
 542 1107 542 1107 542.5 1139 c 128,-1,71
 543 1171 543 1171 543 1210 c 0,72,73
 543 1223 543 1223 553 1224 c 0,74,75
 626 1224 626 1224 700.5 1224.5 c 128,-1,76
 775 1225 775 1225 849 1226 c 1,77,78
 854 1220 854 1220 853 1209.5 c 128,-1,79
 852 1199 852 1199 850 1193 c 1,80,81
 834 1190 834 1190 750.5 1189.5 c 128,-1,82
 667 1189 667 1189 606 1189 c 1,83,84
 606 1141 606 1141 607.5 1092 c 128,-1,85
 609 1043 609 1043 604 1042 c 0,86,87
 595 1041 595 1041 588 1039 c 128,-1,88
 581 1037 581 1037 542 1039 c 0,89,90
 501 1039 501 1039 449 1037.5 c 128,-1,91
 397 1036 397 1036 358 1036 c 1,92,93
 358 988 358 988 359.5 938 c 128,-1,94
 361 888 361 888 356 888 c 0,95,96
 340 888 340 888 323 886 c 128,-1,97
 306 884 306 884 293 888 c 0,98,99
 292 888 292 888 292 898 c 1,100,101
 292.5 898.5 l 0,102,103
 293 899 293 899 293 900 c 0,104,105
 293 948 293 948 294 977.5 c 128,-1,106
 295 1007 295 1007 295 1057 c 0,107,108
 295 1069 295 1069 305 1071 c 0,109,110
 364 1071 364 1071 423 1071.5 c 128,-1,111
 482 1072 482 1072 542 1072 c 1,69,70
81.5 330 m 128,-1,113
 85 336 85 336 91 337 c 128,-1,114
 97 338 97 338 141 340 c 128,-1,115
 185 342 185 342 318 364 c 2,116,-1
 1080 484 l 2,117,118
 1170 499 1170 499 1206 503 c 128,-1,119
 1242 507 1242 507 1274.5 506.5 c 128,-1,120
 1307 506 1307 506 1331.5 502 c 128,-1,121
 1356 498 1356 498 1389.5 491.5 c 128,-1,122
 1423 485 1423 485 1454 476.5 c 128,-1,123
 1485 468 1485 468 1512.5 456 c 128,-1,124
 1540 444 1540 444 1547 430.5 c 128,-1,125
 1554 417 1554 417 1544.5 412.5 c 128,-1,126
 1535 408 1535 408 1520.5 407.5 c 128,-1,127
 1506 407 1506 407 1481 407 c 128,-1,128
 1456 407 1456 407 1431.5 406.5 c 128,-1,129
 1407 406 1407 406 1360.5 402 c 128,-1,130
 1314 398 1314 398 1257 389 c 2,131,-1
 345 245 l 1,132,133
 297 240 297 240 278 240 c 128,-1,134
 259 240 259 240 243 241.5 c 128,-1,135
 227 243 227 243 212 247 c 128,-1,136
 197 251 197 251 180 257.5 c 128,-1,137
 163 264 163 264 144.5 273.5 c 128,-1,138
 126 283 126 283 107 296 c 128,-1,139
 88 309 88 309 83 316.5 c 128,-1,112
 78 324 78 324 81.5 330 c 128,-1,113
EndSplineSet
EndChar

StartChar: percent
Encoding: 37 37 46
Width: 1538
VWidth: 345
Flags: W
LayerCount: 2
Fore
SplineSet
1442 1246 m 1,0,1
 1458 1243 1458 1243 1456 1229.5 c 128,-1,2
 1454 1216 1454 1216 1436 1215 c 1,3,4
 1415 1208 1415 1208 1402 1162 c 128,-1,5
 1389 1116 1389 1116 1375 1065 c 0,6,7
 1341 946 1341 946 1313 872 c 128,-1,8
 1285 798 1285 798 1259.5 768.5 c 128,-1,9
 1234 739 1234 739 1199 723 c 0,10,11
 1145 700 1145 700 1092.5 689 c 128,-1,12
 1040 678 1040 678 1001 678 c 1,13,14
 1020 633 1020 633 1065 615 c 128,-1,15
 1110 597 1110 597 1091 577 c 0,16,17
 1080 566 1080 566 1022 606 c 128,-1,18
 964 646 964 646 942 685 c 1,19,20
 942 710 942 710 962.5 706 c 128,-1,21
 983 702 983 702 1006 700 c 256,22,23
 1029 699 1029 699 1054 703 c 128,-1,24
 1079 707 1079 707 1120 728 c 0,25,26
 1140 738 1140 738 1157.5 773.5 c 128,-1,27
 1175 809 1175 809 1189.5 852 c 128,-1,28
 1204 895 1204 895 1214 937.5 c 128,-1,29
 1224 980 1224 980 1240.5 1060 c 128,-1,30
 1257 1140 1257 1140 1268.5 1167 c 128,-1,31
 1280 1194 1280 1194 1301.5 1211 c 128,-1,32
 1323 1228 1323 1228 1342.5 1233 c 128,-1,33
 1362 1238 1362 1238 1386 1240 c 128,-1,34
 1410 1242 1410 1242 1442 1246 c 1,0,1
81 339 m 128,-1,36
 85 345 85 345 91 346 c 128,-1,37
 97 347 97 347 140.5 349 c 128,-1,38
 184 351 184 351 318 373 c 2,39,-1
 959 475 l 2,40,41
 1049 490 1049 490 1085 494 c 128,-1,42
 1121 498 1121 498 1153.5 497.5 c 128,-1,43
 1186 497 1186 497 1210.5 493 c 128,-1,44
 1235 489 1235 489 1268.5 482.5 c 128,-1,45
 1302 476 1302 476 1333 467 c 128,-1,46
 1364 458 1364 458 1391 446 c 128,-1,47
 1418 434 1418 434 1425.5 420.5 c 128,-1,48
 1433 407 1433 407 1423.5 403 c 128,-1,49
 1414 399 1414 399 1399.5 398.5 c 128,-1,50
 1385 398 1385 398 1360 398 c 128,-1,51
 1335 398 1335 398 1310.5 397.5 c 128,-1,52
 1286 397 1286 397 1239.5 392.5 c 128,-1,53
 1193 388 1193 388 1136 380 c 2,54,-1
 344 254 l 1,55,56
 296 249 296 249 277 249 c 128,-1,57
 258 249 258 249 242 250.5 c 128,-1,58
 226 252 226 252 211 256.5 c 128,-1,59
 196 261 196 261 179 267.5 c 128,-1,60
 162 274 162 274 143.5 283.5 c 128,-1,61
 125 293 125 293 106.5 305.5 c 128,-1,62
 88 318 88 318 82.5 325.5 c 128,-1,35
 77 333 77 333 81 339 c 128,-1,36
618 771 m 0,63,64
 648 771 648 771 680.5 770 c 128,-1,65
 713 769 713 769 740 764 c 1,66,67
 759 764 759 764 783 713 c 128,-1,68
 807 662 807 662 835 601 c 0,69,70
 843 580 843 580 854 578 c 0,71,72
 861 575 861 575 866 567.5 c 128,-1,73
 871 560 871 560 858 554 c 1,74,75
 828 548 828 548 796.5 549 c 128,-1,76
 765 550 765 550 737 554 c 1,77,78
 711 566 711 566 693 598.5 c 128,-1,79
 675 631 675 631 644 718 c 0,80,81
 641 723 641 723 633 733.5 c 128,-1,82
 625 744 625 744 614 746 c 0,83,84
 600 748 600 748 598.5 759.5 c 128,-1,85
 597 771 597 771 618 771 c 0,63,64
348 771 m 0,86,87
 378 771 378 771 410.5 770 c 128,-1,88
 443 769 443 769 470 764 c 1,89,90
 489 764 489 764 513 713 c 128,-1,91
 537 662 537 662 565 601 c 0,92,93
 574 580 574 580 584 578 c 0,94,95
 592 575 592 575 596.5 567.5 c 128,-1,96
 601 560 601 560 588 554 c 1,97,98
 557 548 557 548 526 549 c 128,-1,99
 495 550 495 550 467 554 c 1,100,101
 441 566 441 566 423 598.5 c 128,-1,102
 405 631 405 631 374 718 c 0,103,104
 371 723 371 723 362.5 733.5 c 128,-1,105
 354 744 354 744 344 746 c 0,106,107
 330 748 330 748 328.5 759.5 c 128,-1,108
 327 771 327 771 348 771 c 0,86,87
EndSplineSet
EndChar

StartChar: dollar
Encoding: 36 36 47
Width: 1515
VWidth: 345
Flags: W
LayerCount: 2
Fore
SplineSet
989 642 m 1,0,-1
 998 605 l 2,1,2
 999 601 999 601 1009 585.5 c 128,-1,3
 1019 570 1019 570 1019 566 c 256,4,5
 1019 562 1019 562 1002.5 558.5 c 128,-1,6
 986 555 986 555 980 555 c 2,7,-1
 919 555 l 2,8,9
 907 555 907 555 896.5 572.5 c 128,-1,10
 886 590 886 590 883 605 c 2,11,-1
 875 643 l 1,12,13
 758 643 758 643 660 652 c 128,-1,14
 562 661 562 661 521 668 c 0,15,16
 445 680 445 680 395.5 710.5 c 128,-1,17
 346 741 346 741 330 779 c 0,18,19
 322 798 322 798 301 835 c 128,-1,20
 280 872 280 872 257 910.5 c 128,-1,21
 234 949 234 949 213.5 978.5 c 128,-1,22
 193 1008 193 1008 185 1012 c 0,23,24
 144 1026 144 1026 167 1043 c 1,25,26
 218 1047 218 1047 263.5 1048 c 128,-1,27
 309 1049 309 1049 357 1045 c 0,28,29
 405 1042 405 1042 426 990.5 c 128,-1,30
 447 939 447 939 467 854 c 256,31,32
 488 770 488 770 519 739.5 c 128,-1,33
 550 709 550 709 625 690 c 0,34,35
 667 678 667 678 726.5 674.5 c 128,-1,36
 786 671 786 671 872 673 c 1,37,-1
 859 741 l 2,38,39
 858 746 858 746 849 754.5 c 128,-1,40
 840 763 840 763 840 767 c 0,41,42
 840 773 840 773 856.5 775.5 c 128,-1,43
 873 778 873 778 879 778 c 2,44,-1
 940 778 l 2,45,46
 951 778 951 778 961.5 762 c 128,-1,47
 972 746 972 746 976 729 c 2,48,-1
 986 673 l 1,49,50
 1053 674 1053 674 1077.5 677.5 c 128,-1,51
 1102 681 1102 681 1129 685 c 1,52,53
 1140 684 1140 684 1142.5 675 c 128,-1,54
 1145 666 1145 666 1138 659 c 0,55,56
 1128 651 1128 651 1097 646.5 c 128,-1,57
 1066 642 1066 642 989 642 c 1,0,-1
81 339 m 128,-1,59
 85 345 85 345 91 346 c 128,-1,60
 97 347 97 347 140.5 349 c 128,-1,61
 184 351 184 351 318 373 c 2,62,-1
 959 475 l 2,63,64
 1049 490 1049 490 1085 494 c 128,-1,65
 1121 498 1121 498 1153.5 497.5 c 128,-1,66
 1186 497 1186 497 1210.5 493 c 128,-1,67
 1235 489 1235 489 1268.5 482.5 c 128,-1,68
 1302 476 1302 476 1333 467 c 128,-1,69
 1364 458 1364 458 1391 446 c 128,-1,70
 1418 434 1418 434 1425.5 420.5 c 128,-1,71
 1433 407 1433 407 1423.5 403 c 128,-1,72
 1414 399 1414 399 1399.5 398.5 c 128,-1,73
 1385 398 1385 398 1360 398 c 128,-1,74
 1335 398 1335 398 1310.5 397.5 c 128,-1,75
 1286 397 1286 397 1239.5 392.5 c 128,-1,76
 1193 388 1193 388 1136 380 c 2,77,-1
 344 254 l 1,78,79
 296 249 296 249 277 249 c 128,-1,80
 258 249 258 249 242 250.5 c 128,-1,81
 226 252 226 252 211 256.5 c 128,-1,82
 196 261 196 261 179 267.5 c 128,-1,83
 162 274 162 274 143.5 283.5 c 128,-1,84
 125 293 125 293 106.5 305.5 c 128,-1,85
 88 318 88 318 82.5 325.5 c 128,-1,58
 77 333 77 333 81 339 c 128,-1,59
EndSplineSet
EndChar

StartChar: W
Encoding: 87 87 48
Width: 1509
VWidth: 345
Flags: W
LayerCount: 2
Fore
SplineSet
631 721 m 0,0,1
 657 721 657 721 685.5 720.5 c 128,-1,2
 714 720 714 720 737 716 c 1,3,4
 753 716 753 716 771 660.5 c 128,-1,5
 789 605 789 605 813 552 c 0,6,7
 821 534 821 534 830 532 c 0,8,9
 837 530 837 530 840.5 523 c 128,-1,10
 844 516 844 516 833 511 c 1,11,12
 807 506 807 506 780 507 c 128,-1,13
 753 508 753 508 729 511 c 1,14,15
 706 522 706 522 693.5 561 c 128,-1,16
 681 600 681 600 654 675 c 0,17,18
 652 679 652 679 644.5 688.5 c 128,-1,19
 637 698 637 698 628 699 c 0,20,21
 616 701 616 701 614.5 710.5 c 128,-1,22
 613 720 613 720 631 721 c 0,0,1
526 1081 m 1,23,24
 541 1079 541 1079 539 1066 c 128,-1,25
 537 1053 537 1053 520 1052 c 1,26,27
 501 1045 501 1045 489.5 1004 c 128,-1,28
 478 963 478 963 465 917 c 0,29,30
 434 809 434 809 408.5 742 c 128,-1,31
 383 675 383 675 360.5 647.5 c 128,-1,32
 338 620 338 620 306 607 c 0,33,34
 257 586 257 586 209.5 575.5 c 128,-1,35
 162 565 162 565 127 565 c 1,36,37
 144 524 144 524 185 508 c 128,-1,38
 226 492 226 492 208 474 c 0,39,40
 198 464 198 464 145.5 500.5 c 128,-1,41
 93 537 93 537 73 573 c 1,42,43
 73 595 73 595 91.5 591 c 128,-1,44
 110 587 110 587 131 586 c 0,45,46
 152 585 152 585 174.5 588.5 c 128,-1,47
 197 592 197 592 234 611 c 0,48,49
 252 620 252 620 268 652 c 128,-1,50
 284 684 284 684 297.5 723 c 128,-1,51
 311 762 311 762 320 801 c 128,-1,52
 329 840 329 840 343.5 912 c 128,-1,53
 358 984 358 984 368.5 1008.5 c 128,-1,54
 379 1033 379 1033 398.5 1048.5 c 128,-1,55
 418 1064 418 1064 436 1068.5 c 128,-1,56
 454 1073 454 1073 475.5 1075.5 c 128,-1,57
 497 1078 497 1078 526 1081 c 1,23,24
999 1272 m 1,58,59
 1013 1270 1013 1270 1011 1259.5 c 128,-1,60
 1009 1249 1009 1249 994 1248 c 1,61,62
 977 1242 977 1242 966 1208 c 128,-1,63
 955 1174 955 1174 943 1135 c 0,64,65
 915 1045 915 1045 891.5 988.5 c 128,-1,66
 868 932 868 932 847.5 910 c 128,-1,67
 827 888 827 888 798 877 c 0,68,69
 753 858 753 858 709.5 850 c 128,-1,70
 666 842 666 842 633 842 c 1,71,72
 649 807 649 807 686.5 794 c 128,-1,73
 724 781 724 781 708 766 c 0,74,75
 699 758 699 758 651 788.5 c 128,-1,76
 603 819 603 819 584 847 c 1,77,78
 584 866 584 866 601 863 c 128,-1,79
 618 860 618 860 638 859 c 0,80,81
 658 858 658 858 678 861 c 128,-1,82
 698 864 698 864 731 880 c 0,83,84
 748 888 748 888 763 914.5 c 128,-1,85
 778 941 778 941 790 974 c 128,-1,86
 802 1007 802 1007 810 1039 c 128,-1,87
 818 1071 818 1071 831.5 1131.5 c 128,-1,88
 845 1192 845 1192 855 1212.5 c 128,-1,89
 865 1233 865 1233 882.5 1245.5 c 128,-1,90
 900 1258 900 1258 916.5 1262 c 128,-1,91
 933 1266 933 1266 953 1267.5 c 128,-1,92
 973 1269 973 1269 999 1272 c 1,58,59
81 339 m 128,-1,94
 85 345 85 345 91 346 c 128,-1,95
 97 347 97 347 140.5 349 c 128,-1,96
 184 351 184 351 318 373 c 2,97,-1
 959 475 l 2,98,99
 1049 490 1049 490 1085 494 c 128,-1,100
 1121 498 1121 498 1153.5 497.5 c 128,-1,101
 1186 497 1186 497 1210.5 493 c 128,-1,102
 1235 489 1235 489 1268.5 482.5 c 128,-1,103
 1302 476 1302 476 1333 467 c 128,-1,104
 1364 458 1364 458 1391 446 c 128,-1,105
 1418 434 1418 434 1425.5 420.5 c 128,-1,106
 1433 407 1433 407 1423.5 403 c 128,-1,107
 1414 399 1414 399 1399.5 398.5 c 128,-1,108
 1385 398 1385 398 1360 398 c 128,-1,109
 1335 398 1335 398 1310.5 397.5 c 128,-1,110
 1286 397 1286 397 1239.5 392.5 c 128,-1,111
 1193 388 1193 388 1136 380 c 2,112,-1
 344 254 l 1,113,114
 296 249 296 249 277 249 c 128,-1,115
 258 249 258 249 242 250.5 c 128,-1,116
 226 252 226 252 211 256.5 c 128,-1,117
 196 261 196 261 179 267.5 c 128,-1,118
 162 274 162 274 143.5 283.5 c 128,-1,119
 125 293 125 293 106.5 305.5 c 128,-1,120
 88 318 88 318 82.5 325.5 c 128,-1,93
 77 333 77 333 81 339 c 128,-1,94
EndSplineSet
EndChar

StartChar: q
Encoding: 113 113 49
Width: 0
VWidth: 345
Flags: W
LayerCount: 2
Fore
SplineSet
-805.5 -46.5 m 128,-1,1
 -830 -40 -830 -40 -816 -56 c 128,-1,2
 -802 -72 -802 -72 -788 -82 c 128,-1,3
 -774 -92 -774 -92 -490 -215 c 0,4,5
 -474 -222 -474 -222 -467 -210 c 2,6,-1
 -362 -93 l 1,7,8
 -341 -67 -341 -67 -365 -51 c 2,9,-1
 -407 -27 l 2,10,11
 -435 -11 -435 -11 -449 -30 c 2,12,-1
 -549 -148 l 1,13,14
 -729 -73 -729 -73 -755 -63 c 128,-1,0
 -781 -53 -781 -53 -805.5 -46.5 c 128,-1,1
EndSplineSet
EndChar

StartChar: plus
Encoding: 43 43 50
Width: 286
VWidth: 345
Flags: W
LayerCount: 2
Fore
SplineSet
4 449 m 0,0,1
 5 449 5 449 5 447 c 0,2,3
 5 446 5 446 4 446 c 0,4,5
 3 446 3 446 2 447 c 0,6,7
 3 449 3 449 4 449 c 0,0,1
119 159 m 0,8,9
 96 202 96 202 116 230 c 1,10,11
 141 251 141 251 165 230 c 2,12,-1
 200 197 l 2,13,14
 204 195 204 195 201.5 188.5 c 128,-1,15
 199 182 199 182 190 184 c 0,16,17
 178 187 178 187 167 186 c 128,-1,18
 156 185 156 185 152 166 c 0,19,20
 149 140 149 140 161.5 125.5 c 128,-1,21
 174 111 174 111 192 101 c 0,22,23
 211 92 211 92 226 92.5 c 128,-1,24
 241 93 241 93 254 95 c 0,25,26
 285 97 285 97 319.5 104 c 128,-1,27
 354 111 354 111 387 118 c 0,28,29
 395 120 395 120 410 121 c 0,30,31
 424 121 424 121 442.5 95 c 128,-1,32
 461 69 461 69 465 61 c 128,-1,33
 469 53 469 53 464.5 47 c 128,-1,34
 460 41 460 41 450 47 c 128,-1,35
 440 53 440 53 418.5 56.5 c 128,-1,36
 397 60 397 60 380 60 c 2,37,-1
 322 60 l 2,38,39
 286 60 286 60 248.5 66 c 128,-1,40
 211 72 211 72 184 90 c 0,41,42
 165 102 165 102 146.5 122 c 128,-1,43
 128 142 128 142 119 159 c 0,8,9
EndSplineSet
EndChar

StartChar: w
Encoding: 119 119 51
Width: 0
VWidth: 345
Flags: W
LayerCount: 2
Fore
SplineSet
-513 231 m 0,0,1
 -439 231 -439 231 -364.5 231.5 c 128,-1,2
 -290 232 -290 232 -216 234 c 1,3,4
 -211 227 -211 227 -212 216 c 128,-1,5
 -213 205 -213 205 -216 198 c 1,6,7
 -231 194 -231 194 -314.5 194 c 128,-1,8
 -398 194 -398 194 -459 194 c 1,9,10
 -459 143 -459 143 -457 77.5 c 128,-1,11
 -455 12 -455 12 -460 12 c 0,12,13
 -475 12 -475 12 -493 10 c 128,-1,14
 -511 8 -511 8 -523 12 c 0,15,16
 -524 12 -524 12 -525 22 c 1,17,18
 -524 23 l 0,19,-1
 -523 24 l 0,20,21
 -523 77 -523 77 -522.5 120 c 128,-1,22
 -522 163 -522 163 -522 217 c 0,23,24
 -522 230 -522 230 -513 231 c 0,0,1
EndSplineSet
EndChar

StartChar: t
Encoding: 116 116 52
Width: 0
VWidth: 345
Flags: W
LayerCount: 2
Fore
SplineSet
-17 883 m 2,0,1
 -16 896 -16 896 -1 895 c 128,-1,2
 14 894 14 894 15 884 c 2,3,-1
 15 616 l 2,4,5
 15 601 l 1,6,7
 9 588 9 588 -4 590 c 128,-1,8
 -17 592 -17 592 -17 601 c 2,9,-1
 -17 869 l 2,10,11
 -17 883 l 2,0,1
EndSplineSet
EndChar

StartChar: Q
Encoding: 81 81 53
Width: 1535
VWidth: 345
Flags: W
LayerCount: 2
Fore
SplineSet
484 701 m 0,0,1
 510 701 510 701 539.5 700 c 128,-1,2
 569 699 569 699 592 696 c 1,3,4
 608 696 608 696 627 639 c 128,-1,5
 646 582 646 582 670 529 c 0,6,7
 678 510 678 510 687 508 c 0,8,9
 694 506 694 506 698 499 c 128,-1,10
 702 492 702 492 690 487 c 1,11,12
 663 482 663 482 636 483 c 128,-1,13
 609 484 609 484 584 487 c 1,14,15
 560 498 560 498 547.5 538 c 128,-1,16
 535 578 535 578 508 654 c 0,17,18
 505 658 505 658 497.5 667.5 c 128,-1,19
 490 677 490 677 481 679 c 0,20,21
 468 681 468 681 466.5 690.5 c 128,-1,22
 465 700 465 700 484 701 c 0,0,1
1329 1210 m 1,23,24
 1345 1207 1345 1207 1343 1193.5 c 128,-1,25
 1341 1180 1341 1180 1323 1179 c 1,26,27
 1303 1172 1303 1172 1291 1128.5 c 128,-1,28
 1279 1085 1279 1085 1265 1036 c 0,29,30
 1232 922 1232 922 1205 851 c 128,-1,31
 1178 780 1178 780 1154 751 c 128,-1,32
 1130 722 1130 722 1096 708 c 0,33,34
 1044 686 1044 686 993.5 674.5 c 128,-1,35
 943 663 943 663 906 663 c 1,36,37
 925 620 925 620 968 603.5 c 128,-1,38
 1011 587 1011 587 993 567 c 0,39,40
 982 556 982 556 926 595 c 128,-1,41
 870 634 870 634 850 671 c 1,42,43
 850 695 850 695 869.5 691 c 128,-1,44
 889 687 889 687 911 686 c 256,45,46
 933 685 933 685 956.5 688.5 c 128,-1,47
 980 692 980 692 1020 712 c 0,48,49
 1039 722 1039 722 1056 756 c 128,-1,50
 1073 790 1073 790 1087 831.5 c 128,-1,51
 1101 873 1101 873 1110.5 913.5 c 128,-1,52
 1120 954 1120 954 1135.5 1031 c 128,-1,53
 1151 1108 1151 1108 1162.5 1133.5 c 128,-1,54
 1174 1159 1174 1159 1194.5 1175.5 c 128,-1,55
 1215 1192 1215 1192 1234 1196.5 c 128,-1,56
 1253 1201 1253 1201 1276 1203.5 c 128,-1,57
 1299 1206 1299 1206 1329 1210 c 1,23,24
862 1272 m 1,58,59
 876 1270 876 1270 874.5 1259 c 128,-1,60
 873 1248 873 1248 856 1247 c 1,61,62
 838 1242 838 1242 827 1205.5 c 128,-1,63
 816 1169 816 1169 804 1128 c 0,64,65
 775 1033 775 1033 750 974 c 128,-1,66
 725 915 725 915 703 891.5 c 128,-1,67
 681 868 681 868 650 856 c 0,68,69
 603 837 603 837 557 828.5 c 128,-1,70
 511 820 511 820 478 820 c 1,71,72
 495 783 495 783 534 769.5 c 128,-1,73
 573 756 573 756 556 740 c 0,74,75
 546 731 546 731 495.5 763 c 128,-1,76
 445 795 445 795 426 825 c 1,77,78
 426 845 426 845 443.5 842 c 128,-1,79
 461 839 461 839 481 837 c 0,80,81
 502 836 502 836 523 839.5 c 128,-1,82
 544 843 544 843 581 859 c 0,83,84
 599 867 599 867 614 895.5 c 128,-1,85
 629 924 629 924 641.5 958.5 c 128,-1,86
 654 993 654 993 663 1026.5 c 128,-1,87
 672 1060 672 1060 686 1124 c 128,-1,88
 700 1188 700 1188 710.5 1209.5 c 128,-1,89
 721 1231 721 1231 739.5 1244.5 c 128,-1,90
 758 1258 758 1258 775 1261.5 c 128,-1,91
 792 1265 792 1265 813 1267 c 128,-1,92
 834 1269 834 1269 862 1272 c 1,58,59
81 339 m 128,-1,94
 85 345 85 345 91 346 c 128,-1,95
 97 347 97 347 140.5 349 c 128,-1,96
 184 351 184 351 318 373 c 2,97,-1
 959 475 l 2,98,99
 1049 490 1049 490 1085 494 c 128,-1,100
 1121 498 1121 498 1153.5 497.5 c 128,-1,101
 1186 497 1186 497 1210.5 493 c 128,-1,102
 1235 489 1235 489 1268.5 482.5 c 128,-1,103
 1302 476 1302 476 1333 467 c 128,-1,104
 1364 458 1364 458 1391 446 c 128,-1,105
 1418 434 1418 434 1425.5 420.5 c 128,-1,106
 1433 407 1433 407 1423.5 403 c 128,-1,107
 1414 399 1414 399 1399.5 398.5 c 128,-1,108
 1385 398 1385 398 1360 398 c 128,-1,109
 1335 398 1335 398 1310.5 397.5 c 128,-1,110
 1286 397 1286 397 1239.5 392.5 c 128,-1,111
 1193 388 1193 388 1136 380 c 2,112,-1
 344 254 l 1,113,114
 296 249 296 249 277 249 c 128,-1,115
 258 249 258 249 242 250.5 c 128,-1,116
 226 252 226 252 211 256.5 c 128,-1,117
 196 261 196 261 179 267.5 c 128,-1,118
 162 274 162 274 143.5 283.5 c 128,-1,119
 125 293 125 293 106.5 305.5 c 128,-1,120
 88 318 88 318 82.5 325.5 c 128,-1,93
 77 333 77 333 81 339 c 128,-1,94
EndSplineSet
EndChar

StartChar: y
Encoding: 121 121 54
Width: 0
VWidth: 345
Flags: W
LayerCount: 2
Fore
SplineSet
-61 883 m 2,0,1
 -60 896 -60 896 -45 895 c 128,-1,2
 -30 894 -30 894 -29 884 c 2,3,-1
 -29 616 l 2,4,5
 -29 601 l 1,6,7
 -35 588 -35 588 -48 590 c 128,-1,8
 -61 592 -61 592 -61 601 c 2,9,-1
 -61 869 l 2,10,11
 -61 883 l 2,0,1
32 883 m 2,12,13
 33 896 33 896 48 895 c 128,-1,14
 63 894 63 894 64 884 c 2,15,-1
 64 616 l 2,16,17
 64 601 l 1,18,19
 58 588 58 588 45 590 c 128,-1,20
 32 592 32 592 32 601 c 2,21,-1
 32 869 l 2,22,23
 32 883 l 2,12,13
EndSplineSet
EndChar

StartChar: e
Encoding: 101 101 55
Width: 0
VWidth: 345
Flags: W
LayerCount: 2
Fore
SplineSet
-537 -14 m 256,0,1
 -504 -14 -504 -14 -504 -47 c 0,2,3
 -504 -80 -504 -80 -537 -80 c 256,4,5
 -570 -80 -570 -80 -570 -47 c 0,6,7
 -570 -14 -570 -14 -537 -14 c 256,0,1
-866 -14 m 256,8,9
 -833 -14 -833 -14 -833 -47 c 0,10,11
 -833 -80 -833 -80 -866 -80 c 256,12,13
 -899 -80 -899 -80 -898 -47 c 0,14,15
 -899 -14 -899 -14 -866 -14 c 256,8,9
-591 -249 m 1,16,17
 -588 -237 -588 -237 -588 -222 c 0,18,19
 -588 -175 -588 -175 -621.5 -141.5 c 128,-1,20
 -655 -108 -655 -108 -702 -108 c 0,21,22
 -762 -108 -762 -108 -796 -158 c 1,23,24
 -757 -169 -757 -169 -724 -183 c 0,25,26
 -702 -193 -702 -193 -667.5 -211 c 128,-1,27
 -633 -229 -633 -229 -591 -249 c 1,16,17
-814 -202 m 1,28,29
 -816 -215 -816 -215 -816 -222 c 0,30,31
 -816 -269 -816 -269 -782.5 -302.5 c 128,-1,32
 -749 -336 -749 -336 -702 -336 c 0,33,34
 -647 -336 -647 -336 -613 -294 c 1,35,36
 -651 -275 -651 -275 -685 -257 c 128,-1,37
 -719 -239 -719 -239 -750 -227 c 0,38,39
 -784 -213 -784 -213 -814 -202 c 1,28,29
-702 -76 m 0,40,41
 -642 -76 -642 -76 -599.5 -119 c 128,-1,42
 -557 -162 -557 -162 -557 -222 c 0,43,44
 -557 -243 -557 -243 -562 -263 c 1,45,46
 -490 -296 -490 -296 -406.5 -319.5 c 128,-1,47
 -323 -343 -323 -343 -246 -329 c 0,48,49
 -208 -323 -208 -323 -175.5 -297.5 c 128,-1,50
 -143 -272 -143 -272 -153 -253 c 0,51,52
 -162 -235 -162 -235 -195.5 -256.5 c 128,-1,53
 -229 -278 -229 -278 -255 -215 c 0,54,55
 -275 -167 -275 -167 -246 -135.5 c 128,-1,56
 -217 -104 -217 -104 -167 -117 c 0,57,58
 -96 -137 -96 -137 -101 -217 c 0,59,60
 -102 -259 -102 -259 -137.5 -300.5 c 128,-1,61
 -173 -342 -173 -342 -216 -354 c 0,62,63
 -323 -385 -323 -385 -415.5 -364 c 128,-1,64
 -508 -343 -508 -343 -584 -308 c 1,65,66
 -628 -368 -628 -368 -702 -368 c 0,67,68
 -762 -368 -762 -368 -805 -325 c 128,-1,69
 -848 -282 -848 -282 -848 -222 c 0,70,71
 -848 -206 -848 -206 -845 -192 c 1,72,73
 -903 -174 -903 -174 -959 -167.5 c 128,-1,74
 -1015 -161 -1015 -161 -1075 -172 c 0,75,76
 -1124 -181 -1124 -181 -1188 -206.5 c 128,-1,77
 -1252 -232 -1252 -232 -1275 -250 c 0,78,79
 -1286 -260 -1286 -260 -1302.5 -246.5 c 128,-1,80
 -1319 -233 -1319 -233 -1310 -211 c 1,81,-1
 -1172 -51 l 1,82,83
 -1162 -42 -1162 -42 -1144 -53.5 c 128,-1,84
 -1126 -65 -1126 -65 -1140 -87 c 1,85,-1
 -1252 -207 l 1,86,87
 -1243 -200 -1243 -200 -1177.5 -174.5 c 128,-1,88
 -1112 -149 -1112 -149 -1077 -140 c 0,89,90
 -1022 -127 -1022 -127 -956 -131 c 128,-1,91
 -890 -135 -890 -135 -829 -150 c 1,92,93
 -786 -76 -786 -76 -702 -76 c 0,40,41
EndSplineSet
EndChar

StartChar: r
Encoding: 114 114 56
Width: 0
VWidth: 345
Flags: W
LayerCount: 2
Fore
SplineSet
-26.5 988 m 128,-1,1
 -54 985 -54 985 -90 966.5 c 128,-1,2
 -126 948 -126 948 -148 906 c 1,3,-1
 -142 903 l 1,4,5
 -95 941 -95 941 -67 950 c 128,-1,6
 -39 959 -39 959 -19 960 c 128,-1,7
 1 961 1 961 24 959 c 128,-1,8
 47 957 47 957 73 946 c 128,-1,9
 99 935 99 935 139 903 c 1,10,-1
 146 907 l 1,11,12
 120 952 120 952 86.5 967 c 128,-1,13
 53 982 53 982 27 986.5 c 128,-1,0
 1 991 1 991 -26.5 988 c 128,-1,1
-15 883 m 2,14,15
 -14 896 -14 896 1 895 c 128,-1,16
 16 894 16 894 17 883 c 2,17,-1
 17 615 l 2,18,19
 17 600 l 1,20,21
 11 587 11 587 -2 589 c 128,-1,22
 -15 591 -15 591 -15 600 c 2,23,-1
 -15 868 l 2,24,25
 -15 883 l 2,14,15
EndSplineSet
EndChar

StartChar: braceright
Encoding: 125 125 57
Width: 0
VWidth: 345
Flags: W
LayerCount: 2
Fore
SplineSet
-2014 -322 m 1,0,1
 -2041 -323 -2041 -323 -2073 -289 c 0,2,3
 -2110 -248 -2110 -248 -2111 -201.5 c 128,-1,4
 -2112 -155 -2112 -155 -2088.5 -126.5 c 128,-1,5
 -2065 -98 -2065 -98 -2013 -79 c 0,6,7
 -1963 -61 -1963 -61 -1901 -78 c 1,8,9
 -1849 -98 -1849 -98 -1826 -126.5 c 128,-1,10
 -1803 -155 -1803 -155 -1804 -202 c 128,-1,11
 -1805 -249 -1805 -249 -1859 -290 c 1,12,-1
 -1120 -200 l 1,13,14
 -1092 -200 -1092 -200 -1075 -204 c 128,-1,15
 -1058 -208 -1058 -208 -1045.5 -214 c 128,-1,16
 -1033 -220 -1033 -220 -1022.5 -228 c 128,-1,17
 -1012 -236 -1012 -236 -1004.5 -245.5 c 128,-1,18
 -997 -255 -997 -255 -992 -266.5 c 128,-1,19
 -987 -278 -987 -278 -987 -285.5 c 128,-1,20
 -987 -293 -987 -293 -992.5 -296 c 128,-1,21
 -998 -299 -998 -299 -1003.5 -299 c 128,-1,22
 -1009 -299 -1009 -299 -1016 -296 c 128,-1,23
 -1023 -293 -1023 -293 -1032 -290 c 128,-1,24
 -1041 -287 -1041 -287 -1052.5 -283.5 c 128,-1,25
 -1064 -280 -1064 -280 -1074 -278.5 c 128,-1,26
 -1084 -277 -1084 -277 -1101 -276 c 2,27,-1
 -1918 -322 l 1,28,-1
 -1877 -262 l 1,29,30
 -1852 -192 -1852 -192 -1878 -146 c 0,31,32
 -1903 -103 -1903 -103 -1961 -99 c 1,33,34
 -2013 -102 -2013 -102 -2036 -146 c 1,35,36
 -2062 -190 -2062 -190 -2038 -261 c 1,37,-1
 -2014 -322 l 1,0,1
EndSplineSet
EndChar

StartChar: parenright
Encoding: 41 41 58
Width: 0
VWidth: 345
Flags: W
LayerCount: 2
Fore
SplineSet
-1333 626 m 0,0,1
 -1356 669 -1356 669 -1335 697 c 1,2,3
 -1311 718 -1311 718 -1287 697 c 2,4,-1
 -1251 663 l 2,5,6
 -1248 661 -1248 661 -1250 655 c 128,-1,7
 -1252 649 -1252 649 -1262 651 c 0,8,9
 -1273 654 -1273 654 -1284.5 653 c 128,-1,10
 -1296 652 -1296 652 -1299 633 c 0,11,12
 -1303 607 -1303 607 -1290 592.5 c 128,-1,13
 -1277 578 -1277 578 -1259 568 c 0,14,15
 -1240 559 -1240 559 -1225.5 559 c 128,-1,16
 -1211 559 -1211 559 -1197 561 c 0,17,18
 -1165 563 -1165 563 -1130.5 570 c 128,-1,19
 -1096 577 -1096 577 -1063 585 c 0,20,21
 -1055 587 -1055 587 -1041 588 c 0,22,23
 -1027 588 -1027 588 -1008 562 c 128,-1,24
 -989 536 -989 536 -985.5 528 c 128,-1,25
 -982 520 -982 520 -986 514 c 128,-1,26
 -990 508 -990 508 -1000 513.5 c 128,-1,27
 -1010 519 -1010 519 -1031.5 523 c 128,-1,28
 -1053 527 -1053 527 -1071 527 c 2,29,-1
 -1129 527 l 2,30,31
 -1165 527 -1165 527 -1202.5 532.5 c 128,-1,32
 -1240 538 -1240 538 -1268 556 c 0,33,34
 -1286 568 -1286 568 -1305 588.5 c 128,-1,35
 -1324 609 -1324 609 -1333 626 c 0,0,1
EndSplineSet
EndChar

StartChar: s
Encoding: 115 115 59
Width: 0
VWidth: 345
Flags: W
LayerCount: 2
Fore
SplineSet
-794 870 m 0,0,1
 -720 870 -720 870 -645.5 870.5 c 128,-1,2
 -571 871 -571 871 -498 872 c 1,3,4
 -493 865 -493 865 -494 854 c 128,-1,5
 -495 843 -495 843 -498 836 c 1,6,7
 -513 833 -513 833 -596 832.5 c 128,-1,8
 -679 832 -679 832 -741 832 c 1,9,10
 -741 781 -741 781 -738.5 716 c 128,-1,11
 -736 651 -736 651 -742 651 c 0,12,13
 -757 651 -757 651 -774.5 648.5 c 128,-1,14
 -792 646 -792 646 -805 651 c 0,15,16
 -807 651 -807 651 -807 660 c 0,17,18
 -806 661 l 0,19,-1
 -805 662 l 0,20,21
 -805 715 -805 715 -804.5 758.5 c 128,-1,22
 -804 802 -804 802 -804 855 c 0,23,24
 -804 868 -804 868 -794 870 c 0,0,1
EndSplineSet
EndChar

StartChar: x
Encoding: 120 120 60
Width: 0
VWidth: 345
Flags: W
LayerCount: 2
Fore
SplineSet
-797 160 m 0,0,1
 -723 160 -723 160 -649 160.5 c 128,-1,2
 -575 161 -575 161 -501 162 c 1,3,4
 -496 155 -496 155 -497 144 c 128,-1,5
 -498 133 -498 133 -501 126 c 1,6,7
 -516 123 -516 123 -599.5 123 c 128,-1,8
 -683 123 -683 123 -744 123 c 1,9,10
 -744 71 -744 71 -742 6 c 128,-1,11
 -740 -59 -740 -59 -746 -60 c 0,12,13
 -761 -60 -761 -60 -778 -62 c 128,-1,14
 -795 -64 -795 -64 -808 -60 c 0,15,16
 -810 -60 -810 -60 -810 -50 c 0,17,18
 -809 -49 l 0,19,20
 -808 -48 -808 -48 -808 -47 c 0,21,22
 -808 6 -808 6 -807.5 49 c 128,-1,23
 -807 92 -807 92 -807 145 c 0,24,25
 -806 159 -806 159 -797 160 c 0,0,1
EndSplineSet
EndChar

StartChar: X
Encoding: 88 88 61
Width: 0
VWidth: 345
Flags: W
LayerCount: 2
Fore
SplineSet
-410 16 m 0,0,1
 -336 16 -336 16 -261.5 16.5 c 128,-1,2
 -187 17 -187 17 -114 19 c 1,3,4
 -109 12 -109 12 -110 1 c 128,-1,5
 -111 -10 -111 -10 -114 -17 c 1,6,7
 -129 -21 -129 -21 -212 -21 c 128,-1,8
 -295 -21 -295 -21 -357 -21 c 1,9,10
 -357 -72 -357 -72 -354.5 -137 c 128,-1,11
 -352 -202 -352 -202 -358 -203 c 0,12,13
 -373 -203 -373 -203 -390.5 -205 c 128,-1,14
 -408 -207 -408 -207 -421 -203 c 0,15,16
 -422 -203 -422 -203 -422 -193 c 1,17,18
 -421.5 -192 l 0,19,-1
 -421 -191 l 0,20,21
 -421 -138 -421 -138 -420 -94.5 c 128,-1,22
 -419 -51 -419 -51 -419 2 c 0,23,24
 -419 15 -419 15 -410 16 c 0,0,1
EndSplineSet
EndChar

StartChar: D
Encoding: 68 68 62
Width: 57
VWidth: 345
Flags: W
LayerCount: 2
Fore
SplineSet
-257 1066 m 1,0,1
 -257 1101 -257 1101 -256 1132.5 c 128,-1,2
 -255 1164 -255 1164 -255 1203 c 0,3,4
 -255 1215 -255 1215 -246 1217 c 0,5,6
 -172 1217 -172 1217 -97.5 1218 c 128,-1,7
 -23 1219 -23 1219 50 1220 c 1,8,9
 55 1214 55 1214 53.5 1203.5 c 128,-1,10
 52 1193 52 1193 50 1186 c 1,11,12
 35 1183 35 1183 -48 1183 c 128,-1,13
 -131 1183 -131 1183 -192 1183 c 1,14,15
 -192 1135 -192 1135 -190 1085.5 c 128,-1,16
 -188 1036 -188 1036 -194 1036 c 0,17,18
 -202 1035 -202 1035 -210 1033 c 128,-1,19
 -218 1031 -218 1031 -256 1033 c 1,20,21
 -296 1032 -296 1032 -348.5 1030.5 c 128,-1,22
 -401 1029 -401 1029 -440 1029 c 1,23,24
 -440 981 -440 981 -438.5 931.5 c 128,-1,25
 -437 882 -437 882 -443 882 c 0,26,27
 -458 882 -458 882 -475.5 879.5 c 128,-1,28
 -493 877 -493 877 -506 882 c 0,29,30
 -507 882 -507 882 -507 891 c 1,31,32
 -506.5 891.5 l 0,33,34
 -506 892 -506 892 -506 893 c 0,35,36
 -506 942 -506 942 -504.5 971.5 c 128,-1,37
 -503 1001 -503 1001 -503 1050 c 0,38,39
 -503 1062 -503 1062 -494 1064 c 0,40,41
 -435 1064 -435 1064 -375.5 1064.5 c 128,-1,42
 -316 1065 -316 1065 -257 1066 c 1,0,1
EndSplineSet
EndChar

StartChar: d
Encoding: 100 100 63
Width: 4
VWidth: 345
Flags: W
LayerCount: 2
Fore
SplineSet
-561 845 m 1,0,1
 -561 882 -561 882 -560 917 c 128,-1,2
 -559 952 -559 952 -559 994 c 0,3,4
 -559 1008 -559 1008 -549 1009 c 0,5,6
 -475 1009 -475 1009 -400.5 1009.5 c 128,-1,7
 -326 1010 -326 1010 -253 1012 c 1,8,9
 -244 1000 -244 1000 -252 975 c 1,10,11
 -267 971 -267 971 -350.5 971 c 128,-1,12
 -434 971 -434 971 -496 971 c 1,13,14
 -496 920 -496 920 -494 867 c 128,-1,15
 -492 814 -492 814 -498 813 c 0,16,17
 -506 812 -506 812 -513.5 810 c 128,-1,18
 -521 808 -521 808 -560 809 c 0,19,20
 -600 809 -600 809 -652 807.5 c 128,-1,21
 -704 806 -704 806 -743 806 c 1,22,23
 -743 755 -743 755 -741.5 701 c 128,-1,24
 -740 647 -740 647 -746 647 c 0,25,26
 -761 647 -761 647 -778.5 644.5 c 128,-1,27
 -796 642 -796 642 -809 647 c 0,28,29
 -811 647 -811 647 -811 657 c 0,30,31
 -810 657.5 l 0,32,33
 -809 658 -809 658 -809 659 c 0,34,35
 -809 712 -809 712 -807.5 743.5 c 128,-1,36
 -806 775 -806 775 -806 828 c 0,37,38
 -806 842 -806 842 -797 844 c 0,39,40
 -738 844 -738 844 -679 844 c 128,-1,41
 -620 844 -620 844 -561 845 c 1,0,1
EndSplineSet
EndChar

StartChar: f
Encoding: 102 102 64
Width: 0
VWidth: 345
Flags: W
LayerCount: 2
Fore
SplineSet
-560 900 m 0,0,1
 -560 913 -560 913 -550 915 c 0,2,3
 -491 915 -491 915 -432 915.5 c 128,-1,4
 -373 916 -373 916 -314 917 c 1,5,6
 -313 954 -313 954 -313 965.5 c 128,-1,7
 -313 977 -313 977 -313 1019 c 0,8,9
 -313 1032 -313 1032 -304 1034 c 0,10,11
 -230 1034 -230 1034 -155.5 1034.5 c 128,-1,12
 -81 1035 -81 1035 -8 1036 c 1,13,14
 -3 1029 -3 1029 -4 1018.5 c 128,-1,15
 -5 1008 -5 1008 -7 1000 c 1,16,17
 -22 996 -22 996 -105.5 996.5 c 128,-1,18
 -189 997 -189 997 -250 997 c 1,19,20
 -250 946 -250 946 -248 915.5 c 128,-1,21
 -246 885 -246 885 -251 885 c 0,22,23
 -259 884 -259 884 -267 881.5 c 128,-1,24
 -275 879 -275 879 -313 881 c 1,25,26
 -353 880 -353 880 -405.5 879 c 128,-1,27
 -458 878 -458 878 -497 878 c 1,28,29
 -497 874 -497 874 -497 870.5 c 128,-1,30
 -497 867 -497 867 -497 864 c 1,31,-1
 -497 864 l 1,32,33
 -496 765 -496 765 -498 765 c 0,34,35
 -506 764 -506 764 -513.5 762 c 128,-1,36
 -521 760 -521 760 -560 762 c 1,37,38
 -600 761 -600 761 -652 759.5 c 128,-1,39
 -704 758 -704 758 -744 758 c 1,40,41
 -744 647 -744 647 -746 647 c 0,42,43
 -761 647 -761 647 -778.5 644.5 c 128,-1,44
 -796 642 -796 642 -809 647 c 0,45,46
 -811 647 -811 647 -811 657 c 0,47,48
 -810 657.5 l 0,49,50
 -809 658 -809 658 -809 659 c 0,51,52
 -809 712 -809 712 -808 719.5 c 128,-1,53
 -807 727 -807 727 -807 781 c 0,54,55
 -807 794 -807 794 -797 796 c 1,56,57
 -738 796 -738 796 -679 796.5 c 128,-1,58
 -620 797 -620 797 -561 797 c 1,59,60
 -561 823 -561 823 -560.5 848.5 c 128,-1,61
 -560 874 -560 874 -560 900 c 0,0,1
EndSplineSet
EndChar

StartChar: F
Encoding: 70 70 65
Width: 0
VWidth: 345
Flags: W
LayerCount: 2
Fore
SplineSet
-271 1121 m 0,0,1
 -271 1134 -271 1134 -262 1136 c 1,2,3
 -203 1136 -203 1136 -143.5 1136.5 c 128,-1,4
 -84 1137 -84 1137 -25 1137 c 1,5,6
 -25 1173 -25 1173 -24.5 1184.5 c 128,-1,7
 -24 1196 -24 1196 -24 1236 c 0,8,9
 -24 1249 -24 1249 -15 1251 c 0,10,11
 58 1251 58 1251 132.5 1251.5 c 128,-1,12
 207 1252 207 1252 281 1253 c 1,13,14
 289 1241 289 1241 281 1218 c 1,15,16
 266 1215 266 1215 182.5 1215 c 128,-1,17
 99 1215 99 1215 38 1215 c 1,18,19
 38 1165 38 1165 40 1136 c 128,-1,20
 42 1107 42 1107 37 1107 c 0,21,22
 29 1106 29 1106 21.5 1104 c 128,-1,23
 14 1102 14 1102 -24 1103 c 1,24,25
 -64 1102 -64 1102 -116.5 1101 c 128,-1,26
 -169 1100 -169 1100 -208 1100 c 1,27,28
 -208 1093 -208 1093 -208 1087 c 1,29,-1
 -208 1087 l 1,30,31
 -207 992 -207 992 -209 992 c 0,32,33
 -217 990 -217 990 -224.5 988.5 c 128,-1,34
 -232 987 -232 987 -271 989 c 1,35,36
 -311 988 -311 988 -363 986.5 c 128,-1,37
 -415 985 -415 985 -455 985 c 1,38,39
 -455 878 -455 878 -457 878 c 0,40,41
 -472 878 -472 878 -489.5 875.5 c 128,-1,42
 -507 873 -507 873 -520 878 c 0,43,44
 -521 878 -521 878 -521 887 c 0,45,46
 -520.5 888 l 0,47,48
 -520 889 -520 889 -520 890 c 0,49,50
 -520 940 -520 940 -519 947.5 c 128,-1,51
 -518 955 -518 955 -518 1007 c 0,52,53
 -518 1020 -518 1020 -508 1021 c 0,54,55
 -449 1021 -449 1021 -390 1021.5 c 128,-1,56
 -331 1022 -331 1022 -272 1023 c 1,57,58
 -272 1048 -272 1048 -271.5 1072 c 128,-1,59
 -271 1096 -271 1096 -271 1121 c 0,0,1
EndSplineSet
EndChar

StartChar: E
Encoding: 69 69 66
Width: 1553
VWidth: 345
Flags: W
LayerCount: 2
Fore
SplineSet
1486 1237 m 1,0,1
 1502 1234 1502 1234 1500 1220 c 128,-1,2
 1498 1206 1498 1206 1479 1205 c 1,3,4
 1458 1198 1458 1198 1445.5 1152 c 128,-1,5
 1433 1106 1433 1106 1418 1055 c 0,6,7
 1384 936 1384 936 1356.5 862 c 128,-1,8
 1329 788 1329 788 1303.5 758.5 c 128,-1,9
 1278 729 1278 729 1243 714 c 0,10,11
 1189 691 1189 691 1136.5 679.5 c 128,-1,12
 1084 668 1084 668 1045 668 c 1,13,14
 1064 623 1064 623 1109 605.5 c 128,-1,15
 1154 588 1154 588 1135 567 c 0,16,17
 1124 556 1124 556 1066 596.5 c 128,-1,18
 1008 637 1008 637 986 676 c 1,19,20
 986 701 986 701 1006.5 696.5 c 128,-1,21
 1027 692 1027 692 1050 691 c 256,22,23
 1073 690 1073 690 1098 693.5 c 128,-1,24
 1123 697 1123 697 1164 718 c 0,25,26
 1184 728 1184 728 1201.5 763.5 c 128,-1,27
 1219 799 1219 799 1233.5 842.5 c 128,-1,28
 1248 886 1248 886 1258 928 c 128,-1,29
 1268 970 1268 970 1284.5 1050 c 128,-1,30
 1301 1130 1301 1130 1312.5 1157 c 128,-1,31
 1324 1184 1324 1184 1345.5 1201 c 128,-1,32
 1367 1218 1367 1218 1386.5 1223 c 128,-1,33
 1406 1228 1406 1228 1430 1230.5 c 128,-1,34
 1454 1233 1454 1233 1486 1237 c 1,0,1
1022 1237 m 1,35,36
 1038 1234 1038 1234 1036 1220 c 128,-1,37
 1034 1206 1034 1206 1016 1205 c 1,38,39
 995 1198 995 1198 982 1152 c 128,-1,40
 969 1106 969 1106 955 1055 c 0,41,42
 921 936 921 936 893 862 c 128,-1,43
 865 788 865 788 839.5 758.5 c 128,-1,44
 814 729 814 729 779 714 c 0,45,46
 725 691 725 691 672.5 679.5 c 128,-1,47
 620 668 620 668 582 668 c 1,48,49
 601 623 601 623 645.5 605.5 c 128,-1,50
 690 588 690 588 671 567 c 0,51,52
 660 556 660 556 602 596.5 c 128,-1,53
 544 637 544 637 522 676 c 1,54,55
 522 701 522 701 542.5 696.5 c 128,-1,56
 563 692 563 692 586 691 c 256,57,58
 609 690 609 690 634 693.5 c 128,-1,59
 659 697 659 697 700 718 c 0,60,61
 720 728 720 728 737.5 763.5 c 128,-1,62
 755 799 755 799 769.5 842.5 c 128,-1,63
 784 886 784 886 794 928 c 128,-1,64
 804 970 804 970 820.5 1050 c 128,-1,65
 837 1130 837 1130 848.5 1157 c 128,-1,66
 860 1184 860 1184 881.5 1201 c 128,-1,67
 903 1218 903 1218 922.5 1223 c 128,-1,68
 942 1228 942 1228 966 1230.5 c 128,-1,69
 990 1233 990 1233 1022 1237 c 1,35,36
558 1237 m 1,70,71
 574 1234 574 1234 572 1220 c 128,-1,72
 570 1206 570 1206 552 1205 c 1,73,74
 531 1198 531 1198 518 1152 c 128,-1,75
 505 1106 505 1106 491 1055 c 0,76,77
 457 936 457 936 429 862 c 128,-1,78
 401 788 401 788 376 758.5 c 128,-1,79
 351 729 351 729 315 714 c 0,80,81
 261 691 261 691 208.5 679.5 c 128,-1,82
 156 668 156 668 118 668 c 1,83,84
 137 623 137 623 182 605.5 c 128,-1,85
 227 588 227 588 208 567 c 0,86,87
 197 556 197 556 138.5 596.5 c 128,-1,88
 80 637 80 637 59 676 c 1,89,90
 59 701 59 701 79 696.5 c 128,-1,91
 99 692 99 692 123 691 c 256,92,93
 146 690 146 690 170.5 693.5 c 128,-1,94
 195 697 195 697 236 718 c 0,95,96
 256 728 256 728 274 763.5 c 128,-1,97
 292 799 292 799 306 842.5 c 128,-1,98
 320 886 320 886 330 928 c 128,-1,99
 340 970 340 970 356.5 1050 c 128,-1,100
 373 1130 373 1130 384.5 1157 c 128,-1,101
 396 1184 396 1184 417.5 1201 c 128,-1,102
 439 1218 439 1218 459 1223 c 128,-1,103
 479 1228 479 1228 502.5 1230.5 c 128,-1,104
 526 1233 526 1233 558 1237 c 1,70,71
81 339 m 128,-1,106
 85 345 85 345 91 346 c 128,-1,107
 97 347 97 347 140.5 349 c 128,-1,108
 184 351 184 351 318 373 c 2,109,-1
 959 475 l 2,110,111
 1049 490 1049 490 1085 494 c 128,-1,112
 1121 498 1121 498 1153.5 497.5 c 128,-1,113
 1186 497 1186 497 1210.5 493 c 128,-1,114
 1235 489 1235 489 1268.5 482.5 c 128,-1,115
 1302 476 1302 476 1333 467 c 128,-1,116
 1364 458 1364 458 1391 446 c 128,-1,117
 1418 434 1418 434 1425.5 420.5 c 128,-1,118
 1433 407 1433 407 1423.5 403 c 128,-1,119
 1414 399 1414 399 1399.5 398.5 c 128,-1,120
 1385 398 1385 398 1360 398 c 128,-1,121
 1335 398 1335 398 1310.5 397.5 c 128,-1,122
 1286 397 1286 397 1239.5 392.5 c 128,-1,123
 1193 388 1193 388 1136 380 c 2,124,-1
 344 254 l 1,125,126
 296 249 296 249 277 249 c 128,-1,127
 258 249 258 249 242 250.5 c 128,-1,128
 226 252 226 252 211 256.5 c 128,-1,129
 196 261 196 261 179 267.5 c 128,-1,130
 162 274 162 274 143.5 283.5 c 128,-1,131
 125 293 125 293 106.5 305.5 c 128,-1,132
 88 318 88 318 82.5 325.5 c 128,-1,105
 77 333 77 333 81 339 c 128,-1,106
EndSplineSet
EndChar

StartChar: hyphen
Encoding: 45 45 67
Width: 1515
VWidth: 345
Flags: W
LayerCount: 2
Fore
SplineSet
66 339 m 128,-1,1
 70 345 70 345 76 346 c 128,-1,2
 82 347 82 347 125.5 349 c 128,-1,3
 169 351 169 351 303 373 c 2,4,-1
 944 475 l 2,5,6
 1034 490 1034 490 1070 494 c 128,-1,7
 1106 498 1106 498 1138.5 497.5 c 128,-1,8
 1171 497 1171 497 1195.5 493 c 128,-1,9
 1220 489 1220 489 1254 482.5 c 128,-1,10
 1288 476 1288 476 1319 467 c 128,-1,11
 1350 458 1350 458 1377 446 c 128,-1,12
 1404 434 1404 434 1411 420.5 c 128,-1,13
 1418 407 1418 407 1408.5 403 c 128,-1,14
 1399 399 1399 399 1384.5 398.5 c 128,-1,15
 1370 398 1370 398 1345 398 c 128,-1,16
 1320 398 1320 398 1295.5 397.5 c 128,-1,17
 1271 397 1271 397 1225 392.5 c 128,-1,18
 1179 388 1179 388 1121 380 c 2,19,-1
 330 254 l 1,20,21
 282 249 282 249 263 249 c 128,-1,22
 244 249 244 249 227.5 250.5 c 128,-1,23
 211 252 211 252 196.5 256.5 c 128,-1,24
 182 261 182 261 164.5 267.5 c 128,-1,25
 147 274 147 274 129 283.5 c 128,-1,26
 111 293 111 293 92 305.5 c 128,-1,27
 73 318 73 318 67.5 325.5 c 128,-1,0
 62 333 62 333 66 339 c 128,-1,1
819 832 m 0,28,29
 842 831 842 831 840.5 819.5 c 128,-1,30
 839 808 839 808 823 805 c 0,31,32
 810 803 810 803 801 795.5 c 128,-1,33
 792 788 792 788 790 783 c 0,34,35
 754 705 754 705 734.5 647.5 c 128,-1,36
 715 590 715 590 685 579 c 1,37,38
 653 576 653 576 617 574.5 c 128,-1,39
 581 573 581 573 547 579 c 1,40,41
 532 584 532 584 537 590.5 c 128,-1,42
 542 597 542 597 551 600 c 0,43,44
 561 603 561 603 573 621 c 0,45,46
 608 677 608 677 633 751 c 128,-1,47
 658 825 658 825 680 825 c 1,48,49
 710 829 710 829 747 830.5 c 128,-1,50
 784 832 784 832 819 832 c 0,28,29
668 1118 m 0,51,52
 742 1118 742 1118 816.5 1118.5 c 128,-1,53
 891 1119 891 1119 964 1121 c 1,54,55
 969 1114 969 1114 968 1103 c 128,-1,56
 967 1092 967 1092 964 1084 c 1,57,58
 949 1081 949 1081 866 1081 c 128,-1,59
 783 1081 783 1081 721 1081 c 1,60,61
 721 1030 721 1030 723.5 964.5 c 128,-1,62
 726 899 726 899 720 899 c 0,63,64
 705 899 705 899 687.5 897 c 128,-1,65
 670 895 670 895 657 899 c 0,66,67
 655 899 655 899 655 909 c 0,68,69
 656 909.5 l 0,70,71
 657 910 657 910 657 911 c 0,72,73
 657 964 657 964 657.5 1007 c 128,-1,74
 658 1050 658 1050 658 1103 c 0,75,76
 658 1116 658 1116 668 1118 c 0,51,52
EndSplineSet
EndChar

StartChar: colon
Encoding: 58 58 68
Width: 0
VWidth: 345
Flags: W
LayerCount: 2
Fore
SplineSet
-250 -1 m 2,0,-1
 -191 -1 l 2,1,2
 -186 -1 -186 -1 -175 -1 c 128,-1,3
 -164 -1 -164 -1 -161 -4 c 0,4,5
 -157 -8 -157 -8 -162 -8.5 c 128,-1,6
 -167 -9 -167 -9 -171 -31 c 2,7,-1
 -177 -78 l 2,8,9
 -181 -108 -181 -108 -205 -109 c 2,10,-1
 -264 -109 l 2,11,12
 -269 -109 -269 -109 -282 -108 c 128,-1,13
 -295 -107 -295 -107 -296 -102 c 0,14,15
 -296 -96 -296 -96 -291 -94 c 128,-1,16
 -286 -92 -286 -92 -285 -78 c 2,17,-1
 -278 -31 l 2,18,19
 -273 -1 -273 -1 -250 -1 c 2,0,-1
EndSplineSet
EndChar

StartChar: semicolon
Encoding: 59 59 69
Width: 0
VWidth: 345
Flags: W
LayerCount: 2
Fore
SplineSet
-784 -1 m 2,0,-1
 -725 -1 l 2,1,2
 -720 -1 -720 -1 -709 -1 c 128,-1,3
 -698 -1 -698 -1 -695 -4 c 0,4,5
 -691 -8 -691 -8 -696.5 -8.5 c 128,-1,6
 -702 -9 -702 -9 -705 -31 c 2,7,-1
 -711 -78 l 2,8,9
 -714 -108 -714 -108 -740 -109 c 2,10,-1
 -799 -109 l 2,11,12
 -803 -109 -803 -109 -816.5 -108 c 128,-1,13
 -830 -107 -830 -107 -830 -102 c 0,14,15
 -830 -96 -830 -96 -825 -94 c 128,-1,16
 -820 -92 -820 -92 -819 -78 c 2,17,-1
 -812 -31 l 2,18,19
 -808 -1 -808 -1 -784 -1 c 2,0,-1
EndSplineSet
EndChar

StartChar: O
Encoding: 79 79 70
Width: 1465
VWidth: 345
Flags: W
LayerCount: 2
Fore
SplineSet
665 780 m 0,0,1
 695 780 695 780 727.5 779 c 128,-1,2
 760 778 760 778 787 773 c 1,3,4
 806 773 806 773 826.5 709 c 128,-1,5
 847 645 847 645 875 584 c 0,6,7
 885 563 885 563 895 560 c 0,8,9
 903 557 903 557 907 549.5 c 128,-1,10
 911 542 911 542 898 536 c 1,11,12
 867 530 867 530 836.5 531.5 c 128,-1,13
 806 533 806 533 778 536 c 1,14,15
 751 548 751 548 736.5 593.5 c 128,-1,16
 722 639 722 639 691 726 c 0,17,18
 688 731 688 731 680 741.5 c 128,-1,19
 672 752 672 752 661 754 c 0,20,21
 646 756 646 756 645 767.5 c 128,-1,22
 644 779 644 779 665 780 c 0,0,1
394 780 m 0,23,24
 424 780 424 780 457 779 c 128,-1,25
 490 778 490 778 516 773 c 1,26,27
 535 773 535 773 556 709 c 128,-1,28
 577 645 577 645 605 584 c 0,29,30
 614 563 614 563 625 560 c 0,31,32
 633 557 633 557 637 549.5 c 128,-1,33
 641 542 641 542 628 536 c 1,34,35
 598 530 598 530 566.5 531.5 c 128,-1,36
 535 533 535 533 507 536 c 1,37,38
 481 548 481 548 466 593.5 c 128,-1,39
 451 639 451 639 420 726 c 0,40,41
 417 731 417 731 409 741.5 c 128,-1,42
 401 752 401 752 391 754 c 0,43,44
 377 756 377 756 375 767.5 c 128,-1,45
 373 779 373 779 394 780 c 0,23,24
81 339 m 128,-1,47
 85 345 85 345 91 346 c 128,-1,48
 97 347 97 347 140.5 349 c 128,-1,49
 184 351 184 351 318 373 c 2,50,-1
 959 475 l 2,51,52
 1049 490 1049 490 1085 494 c 128,-1,53
 1121 498 1121 498 1153.5 497.5 c 128,-1,54
 1186 497 1186 497 1210.5 493 c 128,-1,55
 1235 489 1235 489 1268.5 482.5 c 128,-1,56
 1302 476 1302 476 1333 467 c 128,-1,57
 1364 458 1364 458 1391 446 c 128,-1,58
 1418 434 1418 434 1425.5 420.5 c 128,-1,59
 1433 407 1433 407 1423.5 403 c 128,-1,60
 1414 399 1414 399 1399.5 398.5 c 128,-1,61
 1385 398 1385 398 1360 398 c 128,-1,62
 1335 398 1335 398 1310.5 397.5 c 128,-1,63
 1286 397 1286 397 1239.5 392.5 c 128,-1,64
 1193 388 1193 388 1136 380 c 2,65,-1
 344 254 l 1,66,67
 296 249 296 249 277 249 c 128,-1,68
 258 249 258 249 242 250.5 c 128,-1,69
 226 252 226 252 211 256.5 c 128,-1,70
 196 261 196 261 179 267.5 c 128,-1,71
 162 274 162 274 143.5 283.5 c 128,-1,72
 125 293 125 293 106.5 305.5 c 128,-1,73
 88 318 88 318 82.5 325.5 c 128,-1,46
 77 333 77 333 81 339 c 128,-1,47
EndSplineSet
EndChar

StartChar: o
Encoding: 111 111 71
Width: 1515
VWidth: 345
Flags: W
LayerCount: 2
Fore
SplineSet
908 304 m 0,0,1
 938 304 938 304 971 303.5 c 128,-1,2
 1004 303 1004 303 1030 298 c 1,3,4
 1049 298 1049 298 1070 234 c 128,-1,5
 1091 170 1091 170 1119 109 c 0,6,7
 1128 88 1128 88 1138 85 c 0,8,9
 1146 82 1146 82 1150.5 75 c 128,-1,10
 1155 68 1155 68 1142 62 c 1,11,12
 1111 56 1111 56 1080 56.5 c 128,-1,13
 1049 57 1049 57 1021 62 c 1,14,15
 994 74 994 74 979.5 119 c 128,-1,16
 965 164 965 164 935 251 c 0,17,18
 932 256 932 256 924 266.5 c 128,-1,19
 916 277 916 277 905 279 c 0,20,21
 890 282 890 282 888.5 293 c 128,-1,22
 887 304 887 304 908 304 c 0,0,1
1178 304 m 0,23,24
 1208 304 1208 304 1241 303.5 c 128,-1,25
 1274 303 1274 303 1300 298 c 1,26,27
 1319 298 1319 298 1340 234 c 128,-1,28
 1361 170 1361 170 1390 109 c 0,29,30
 1399 88 1399 88 1409 85 c 0,31,32
 1417 82 1417 82 1421 75 c 128,-1,33
 1425 68 1425 68 1412 62 c 1,34,35
 1382 56 1382 56 1350.5 56.5 c 128,-1,36
 1319 57 1319 57 1292 62 c 1,37,38
 1266 74 1266 74 1250.5 119 c 128,-1,39
 1235 164 1235 164 1205 251 c 0,40,41
 1202 256 1202 256 1194 266.5 c 128,-1,42
 1186 277 1186 277 1175 279 c 0,43,44
 1161 282 1161 282 1159 293 c 128,-1,45
 1157 304 1157 304 1178 304 c 0,23,24
81 339 m 128,-1,47
 85 345 85 345 91 346 c 128,-1,48
 97 347 97 347 140.5 349 c 128,-1,49
 184 351 184 351 318 373 c 2,50,-1
 959 475 l 2,51,52
 1049 490 1049 490 1085 494 c 128,-1,53
 1121 498 1121 498 1153.5 497.5 c 128,-1,54
 1186 497 1186 497 1210.5 493 c 128,-1,55
 1235 489 1235 489 1268.5 482.5 c 128,-1,56
 1302 476 1302 476 1333 467 c 128,-1,57
 1364 458 1364 458 1391 446 c 128,-1,58
 1418 434 1418 434 1425.5 420.5 c 128,-1,59
 1433 407 1433 407 1423.5 403 c 128,-1,60
 1414 399 1414 399 1399.5 398.5 c 128,-1,61
 1385 398 1385 398 1360 398 c 128,-1,62
 1335 398 1335 398 1310.5 397.5 c 128,-1,63
 1286 397 1286 397 1239.5 392.5 c 128,-1,64
 1193 388 1193 388 1136 380 c 2,65,-1
 344 254 l 1,66,67
 296 249 296 249 277 249 c 128,-1,68
 258 249 258 249 242 250.5 c 128,-1,69
 226 252 226 252 211 256.5 c 128,-1,70
 196 261 196 261 179 267.5 c 128,-1,71
 162 274 162 274 143.5 283.5 c 128,-1,72
 125 293 125 293 106.5 305.5 c 128,-1,73
 88 318 88 318 82.5 325.5 c 128,-1,46
 77 333 77 333 81 339 c 128,-1,47
EndSplineSet
EndChar

StartChar: P
Encoding: 80 80 72
Width: 1885
VWidth: 345
Flags: W
LayerCount: 2
Fore
SplineSet
1211 837 m 0,0,1
 1241 837 1241 837 1274 836 c 128,-1,2
 1307 835 1307 835 1333 830 c 1,3,4
 1352 830 1352 830 1376.5 779 c 128,-1,5
 1401 728 1401 728 1429 667 c 0,6,7
 1437 646 1437 646 1448 643 c 0,8,9
 1455 640 1455 640 1459.5 632.5 c 128,-1,10
 1464 625 1464 625 1452 619 c 1,11,12
 1422 613 1422 613 1390.5 614.5 c 128,-1,13
 1359 616 1359 616 1331 619 c 1,14,15
 1305 631 1305 631 1287 664 c 128,-1,16
 1269 697 1269 697 1238 783 c 0,17,18
 1235 788 1235 788 1227 798.5 c 128,-1,19
 1219 809 1219 809 1208 811 c 0,20,21
 1194 813 1194 813 1192 825 c 128,-1,22
 1190 837 1190 837 1211 837 c 0,0,1
1482 837 m 0,23,24
 1512 837 1512 837 1545 836 c 128,-1,25
 1578 835 1578 835 1604 830 c 1,26,27
 1623 830 1623 830 1647 779 c 128,-1,28
 1671 728 1671 728 1699 667 c 0,29,30
 1708 646 1708 646 1718 643 c 0,31,32
 1726 640 1726 640 1730.5 632.5 c 128,-1,33
 1735 625 1735 625 1722 619 c 1,34,35
 1691 613 1691 613 1660 614.5 c 128,-1,36
 1629 616 1629 616 1601 619 c 1,37,38
 1575 631 1575 631 1557 664 c 128,-1,39
 1539 697 1539 697 1508 783 c 0,40,41
 1505 788 1505 788 1497 798.5 c 128,-1,42
 1489 809 1489 809 1479 811 c 0,43,44
 1465 813 1465 813 1463 825 c 128,-1,45
 1461 837 1461 837 1482 837 c 0,23,24
85 828 m 1,46,47
 47 897 47 897 64.5 946 c 128,-1,48
 82 995 82 995 127 999 c 0,49,50
 156 1001 156 1001 171.5 994.5 c 128,-1,51
 187 988 187 988 198.5 981.5 c 128,-1,52
 210 975 210 975 220.5 967.5 c 128,-1,53
 231 960 231 960 240.5 952 c 128,-1,54
 250 944 250 944 253.5 937.5 c 128,-1,55
 257 931 257 931 256.5 925.5 c 128,-1,56
 256 920 256 920 252.5 917.5 c 128,-1,57
 249 915 249 915 231.5 908.5 c 128,-1,58
 214 902 214 902 186 886 c 128,-1,59
 158 870 158 870 159 834 c 0,60,61
 159 796 159 796 238 762.5 c 128,-1,62
 317 729 317 729 473 735 c 2,63,-1
 919 759 l 2,64,65
 952 759 952 759 972 754.5 c 128,-1,66
 992 750 992 750 1007.5 743 c 128,-1,67
 1023 736 1023 736 1034.5 729 c 128,-1,68
 1046 722 1046 722 1061 709 c 128,-1,69
 1076 696 1076 696 1095.5 675 c 128,-1,70
 1115 654 1115 654 1121 644 c 128,-1,71
 1127 634 1127 634 1127 624.5 c 128,-1,72
 1127 615 1127 615 1121 612 c 128,-1,73
 1115 609 1115 609 1108 609 c 128,-1,74
 1101 609 1101 609 1092.5 612 c 128,-1,75
 1084 615 1084 615 1073 618.5 c 128,-1,76
 1062 622 1062 622 1048 626.5 c 128,-1,77
 1034 631 1034 631 1022 633 c 128,-1,78
 1010 635 1010 635 989 636 c 2,79,-1
 931 641 l 1,80,81
 790 636 790 636 688.5 644 c 128,-1,82
 587 652 587 652 497 664 c 128,-1,83
 407 676 407 676 339 690 c 128,-1,84
 271 704 271 704 246 713 c 0,85,86
 203 731 203 731 169.5 748.5 c 128,-1,87
 136 766 136 766 85 828 c 1,46,47
131.5 314.5 m 128,-1,89
 135 321 135 321 141 322 c 128,-1,90
 147 323 147 323 191 324.5 c 128,-1,91
 235 326 235 326 368 348 c 2,92,-1
 1313 499 l 2,93,94
 1403 515 1403 515 1439.5 518.5 c 128,-1,95
 1476 522 1476 522 1508.5 521.5 c 128,-1,96
 1541 521 1541 521 1565 517 c 128,-1,97
 1589 513 1589 513 1623 506.5 c 128,-1,98
 1657 500 1657 500 1688 491.5 c 128,-1,99
 1719 483 1719 483 1746 471 c 128,-1,100
 1773 459 1773 459 1780.5 445.5 c 128,-1,101
 1788 432 1788 432 1778.5 427.5 c 128,-1,102
 1769 423 1769 423 1754 422.5 c 128,-1,103
 1739 422 1739 422 1714.5 422 c 128,-1,104
 1690 422 1690 422 1665.5 421.5 c 128,-1,105
 1641 421 1641 421 1594.5 417 c 128,-1,106
 1548 413 1548 413 1490 404 c 2,107,-1
 395 230 l 1,108,109
 347 225 347 225 328 224.5 c 128,-1,110
 309 224 309 224 293 226 c 128,-1,111
 277 228 277 228 262 232 c 128,-1,112
 247 236 247 236 230 242.5 c 128,-1,113
 213 249 213 249 194.5 258.5 c 128,-1,114
 176 268 176 268 157.5 281 c 128,-1,115
 139 294 139 294 133.5 301 c 128,-1,88
 128 308 128 308 131.5 314.5 c 128,-1,89
EndSplineSet
EndChar

StartChar: p
Encoding: 112 112 73
Width: 596
VWidth: 345
Flags: W
LayerCount: 2
Fore
SplineSet
140 403 m 0,0,1
 117 446 117 446 137 472 c 1,2,3
 161 493 161 493 185 472 c 2,4,-1
 220 440 l 2,5,6
 224 437 224 437 221.5 431.5 c 128,-1,7
 219 426 219 426 210 428 c 0,8,9
 198 431 198 431 187 429.5 c 128,-1,10
 176 428 176 428 173 408 c 0,11,12
 169 383 169 383 182 369 c 128,-1,13
 195 355 195 355 212 345 c 0,14,15
 231 336 231 336 246 336 c 128,-1,16
 261 336 261 336 274 338 c 0,17,18
 306 341 306 341 340 347.5 c 128,-1,19
 374 354 374 354 406 362 c 0,20,21
 415 363 415 363 429 365 c 0,22,23
 443 365 443 365 461.5 339 c 128,-1,24
 480 313 480 313 483.5 305 c 128,-1,25
 487 297 487 297 483 291 c 128,-1,26
 479 285 479 285 469 291 c 128,-1,27
 459 297 459 297 438 300 c 128,-1,28
 417 303 417 303 399 303 c 2,29,-1
 342 303 l 2,30,31
 306 303 306 303 268.5 309.5 c 128,-1,32
 231 316 231 316 204 334 c 0,33,34
 186 346 186 346 167.5 366 c 128,-1,35
 149 386 149 386 140 403 c 0,0,1
EndSplineSet
EndChar

StartChar: g
Encoding: 103 103 74
Width: 0
VWidth: 345
Flags: W
LayerCount: 2
Fore
SplineSet
-661 873 m 0,0,1
 -651 872 -651 872 -651 858 c 0,2,3
 -651 805 -651 805 -650 760 c 128,-1,4
 -649 715 -649 715 -649 662 c 0,5,6
 -648 661 l 0,7,-1
 -647 660 l 1,8,9
 -647 650 -647 650 -649 650 c 0,10,11
 -661 646 -661 646 -678.5 648 c 128,-1,12
 -696 650 -696 650 -712 650 c 0,13,14
 -717 650 -717 650 -715 715.5 c 128,-1,15
 -713 781 -713 781 -713 832 c 1,16,17
 -774 833 -774 833 -857.5 830.5 c 128,-1,18
 -941 828 -941 828 -957 832 c 1,19,20
 -963 838 -963 838 -962 851.5 c 128,-1,21
 -961 865 -961 865 -956 872 c 1,22,23
 -882 871 -882 871 -808 872 c 128,-1,24
 -734 873 -734 873 -661 873 c 0,0,1
EndSplineSet
EndChar

StartChar: G
Encoding: 71 71 75
Width: 0
VWidth: 345
Flags: W
LayerCount: 2
Fore
SplineSet
-949 872 m 1,0,1
 -877 871 -877 871 -805 872 c 128,-1,2
 -733 873 -733 873 -661 873 c 0,3,4
 -660 872 l 1,5,6
 -660 872 l 1,7,-1
 -660 872 l 1,8,9
 -651 871 -651 871 -651 858 c 0,10,11
 -651 805 -651 805 -650 760 c 128,-1,12
 -649 715 -649 715 -649 662 c 0,13,14
 -648 661 l 0,15,-1
 -647 660 l 1,16,17
 -647 650 -647 650 -649 650 c 0,18,19
 -655 648 -655 648 -669 647 c 0,20,21
 -678 647 -678 647 -688.5 648 c 128,-1,22
 -699 649 -699 649 -708 650 c 0,23,24
 -709.5 650 l 0,25,26
 -711 650 -711 650 -712 650 c 0,27,28
 -717 650 -717 650 -715 715.5 c 128,-1,29
 -713 781 -713 781 -713 832 c 1,30,31
 -785 833 -785 833 -860 831.5 c 128,-1,32
 -935 830 -935 830 -1001 832 c 0,33,34
 -1011 833 -1011 833 -1011 846 c 0,35,36
 -1011 902 -1011 902 -1011 946.5 c 128,-1,37
 -1011 991 -1011 991 -1011 1048 c 1,38,39
 -999 1052 -999 1052 -981.5 1050 c 128,-1,40
 -964 1048 -964 1048 -950 1048 c 1,41,42
 -950 997 -950 997 -949.5 960 c 128,-1,43
 -949 923 -949 923 -949 872 c 1,0,1
EndSplineSet
EndChar

StartChar: zero
Encoding: 48 48 76
Width: 0
VWidth: 345
Flags: W
LayerCount: 2
Fore
SplineSet
-990 688 m 0,0,1
 -1013 732 -1013 732 -992 759 c 1,2,3
 -968 780 -968 780 -944 759 c 2,4,-1
 -908 726 l 2,5,6
 -904 723 -904 723 -907 717.5 c 128,-1,7
 -910 712 -910 712 -918 714 c 0,8,9
 -930 717 -930 717 -941.5 716 c 128,-1,10
 -953 715 -953 715 -956 695 c 0,11,12
 -960 670 -960 670 -947 655 c 128,-1,13
 -934 640 -934 640 -917 631 c 0,14,15
 -897 622 -897 622 -882.5 621.5 c 128,-1,16
 -868 621 -868 621 -854 623 c 0,17,18
 -822 626 -822 626 -787 632.5 c 128,-1,19
 -752 639 -752 639 -720 648 c 0,20,21
 -712 649 -712 649 -697 650 c 0,22,23
 -683 650 -683 650 -664.5 624 c 128,-1,24
 -646 598 -646 598 -642 590 c 128,-1,25
 -638 582 -638 582 -642 576 c 128,-1,26
 -646 570 -646 570 -656.5 575.5 c 128,-1,27
 -667 581 -667 581 -688 585 c 128,-1,28
 -709 589 -709 589 -728 589 c 2,29,-1
 -786 589 l 2,30,31
 -821 589 -821 589 -858.5 594.5 c 128,-1,32
 -896 600 -896 600 -924 619 c 0,33,34
 -943 631 -943 631 -962 651 c 128,-1,35
 -981 671 -981 671 -990 688 c 0,0,1
EndSplineSet
EndChar

StartChar: v
Encoding: 118 118 77
Width: 0
VWidth: 345
Flags: W
LayerCount: 2
Fore
SplineSet
-81 8 m 1,0,1
 -52 -5 -52 -5 -65 -29 c 0,2,3
 -70 -42 -70 -42 -76.5 -50.5 c 128,-1,4
 -83 -59 -83 -59 -91 -64.5 c 128,-1,5
 -99 -70 -99 -70 -113 -53 c 0,6,7
 -128 -35 -128 -35 -142 -23.5 c 128,-1,8
 -156 -12 -156 -12 -174.5 -3.5 c 128,-1,9
 -193 5 -193 5 -218 9 c 128,-1,10
 -243 13 -243 13 -268 13 c 128,-1,11
 -293 13 -293 13 -317 10 c 128,-1,12
 -341 7 -341 7 -357.5 -1 c 128,-1,13
 -374 -9 -374 -9 -381 -15.5 c 128,-1,14
 -388 -22 -388 -22 -390 -33.5 c 128,-1,15
 -392 -45 -392 -45 -373 -59 c 1,16,17
 -344 -87 -344 -87 -225 -157.5 c 128,-1,18
 -106 -228 -106 -228 -33 -316 c 0,19,20
 -9 -345 -9 -345 11 -378 c 128,-1,21
 31 -411 31 -411 34 -439.5 c 128,-1,22
 37 -468 37 -468 30 -486 c 128,-1,23
 23 -504 23 -504 7 -521.5 c 128,-1,24
 -9 -539 -9 -539 -30 -544 c 128,-1,25
 -51 -549 -51 -549 -73 -545 c 128,-1,26
 -95 -541 -95 -541 -116 -528 c 1,27,28
 -132 -513 -132 -513 -128.5 -505 c 128,-1,29
 -125 -497 -125 -497 -119 -498 c 0,30,31
 -111 -497 -111 -497 -98 -500 c 128,-1,32
 -85 -503 -85 -503 -70 -496 c 1,33,34
 -41 -478 -41 -478 -45.5 -414 c 128,-1,35
 -50 -350 -50 -350 -95 -304 c 0,36,37
 -185 -212 -185 -212 -292.5 -148.5 c 128,-1,38
 -400 -85 -400 -85 -427 -58 c 0,39,40
 -438 -48 -438 -48 -440.5 -38.5 c 128,-1,41
 -443 -29 -443 -29 -441.5 -17.5 c 128,-1,42
 -440 -6 -440 -6 -428 5 c 128,-1,43
 -416 16 -416 16 -392 25.5 c 128,-1,44
 -368 35 -368 35 -334.5 38 c 128,-1,45
 -301 41 -301 41 -282 41 c 128,-1,46
 -263 41 -263 41 -247 40 c 128,-1,47
 -231 39 -231 39 -212 37.5 c 128,-1,48
 -193 36 -193 36 -169.5 31.5 c 128,-1,49
 -146 27 -146 27 -129 23 c 128,-1,50
 -112 19 -112 19 -81 8 c 1,0,1
EndSplineSet
EndChar

StartChar: N
Encoding: 78 78 78
Width: 1132
VWidth: 345
Flags: W
LayerCount: 2
Fore
SplineSet
704 866 m 1,0,-1
 708 746 l 1,1,-1
 695 746 l 1,2,3
 691 794 691 794 672 815 c 0,4,5
 652 835 652 835 603 835 c 2,6,-1
 458 835 l 1,7,-1
 458 438 l 2,8,9
 458 406 458 406 471 393 c 0,10,11
 483 380 483 380 511 380 c 2,12,-1
 529 380 l 1,13,-1
 529 366 l 1,14,-1
 329 366 l 1,15,-1
 329 380 l 1,16,-1
 340 380 l 2,17,18
 369 380 369 380 382 393 c 0,19,20
 394 407 394 407 394 437 c 2,21,-1
 394 796 l 2,22,23
 394 827 394 827 382 840 c 0,24,25
 369 853 369 853 340 853 c 2,26,-1
 329 853 l 1,27,-1
 329 866 l 1,28,-1
 704 866 l 1,0,-1
978 669 m 1,29,30
 984 683 984 683 1011.5 682 c 128,-1,31
 1039 681 1039 681 1039 662 c 0,32,33
 1039 651 1039 651 1025.5 627 c 128,-1,34
 1012 603 1012 603 1004 594 c 0,35,36
 997 585 997 585 982 551.5 c 128,-1,37
 967 518 967 518 953 488 c 1,38,39
 953 483 953 483 957 469.5 c 128,-1,40
 961 456 961 456 965 448 c 0,41,42
 972 432 972 432 989 423 c 0,43,44
 1000 417 1000 417 1012.5 439 c 128,-1,45
 1025 461 1025 461 1040 458 c 0,46,47
 1054 455 1054 455 1056 435.5 c 128,-1,48
 1058 416 1058 416 1045 393 c 0,49,50
 1031 366 1031 366 1006 366 c 0,51,52
 987 366 987 366 979 377 c 0,53,54
 964 393 964 393 953 414.5 c 128,-1,55
 942 436 942 436 935 457 c 1,56,57
 898 410 898 410 873.5 388 c 128,-1,58
 849 366 849 366 817 366 c 0,59,60
 758 366 758 366 733.5 411.5 c 128,-1,61
 709 457 709 457 715 515 c 0,62,63
 720 569 720 569 756.5 622.5 c 128,-1,64
 793 676 793 676 860 670 c 0,65,66
 891 667 891 667 912 641 c 128,-1,67
 933 615 933 615 937 584 c 1,68,69
 947 607 947 607 955.5 627.5 c 128,-1,70
 964 648 964 648 978 669 c 1,29,30
759 422 m 0,71,72
 781 404 781 404 806 411 c 128,-1,73
 831 418 831 418 849 433 c 0,74,75
 865 446 865 446 886.5 479 c 128,-1,76
 908 512 908 512 916 533 c 0,77,78
 919 543 919 543 918 564.5 c 128,-1,79
 917 586 917 586 910 601 c 0,80,81
 894 631 894 631 857.5 623.5 c 128,-1,82
 821 616 821 616 799 603 c 0,83,84
 781 592 781 592 765.5 571.5 c 128,-1,85
 750 551 750 551 745 520 c 256,86,87
 740 489 740 489 742 461 c 128,-1,88
 744 433 744 433 759 422 c 0,71,72
EndSplineSet
EndChar

StartChar: n
Encoding: 110 110 79
Width: 620
VWidth: 345
Flags: W
LayerCount: 2
Fore
SplineSet
510 -15 m 0,0,1
 510 -77 510 -77 478 -180.5 c 128,-1,2
 446 -284 446 -284 431.5 -348 c 128,-1,3
 417 -412 417 -412 418 -454 c 128,-1,4
 419 -496 419 -496 447 -529 c 128,-1,5
 475 -562 475 -562 504 -568 c 0,6,7
 524 -571 524 -571 537 -567 c 128,-1,8
 550 -563 550 -563 570 -553 c 1,9,-1
 574 -575 l 1,10,11
 553 -599 553 -599 530 -607.5 c 128,-1,12
 507 -616 507 -616 471 -615 c 0,13,14
 416 -614 416 -614 370 -569.5 c 128,-1,15
 324 -525 324 -525 320 -470.5 c 128,-1,16
 316 -416 316 -416 333 -356 c 128,-1,17
 350 -296 350 -296 384 -186 c 128,-1,18
 418 -76 418 -76 423 -1 c 1,19,20
 424 51 424 51 395.5 86 c 128,-1,21
 367 121 367 121 309 130 c 1,22,23
 231 138 231 138 171 79 c 1,24,25
 132 24 132 24 140 -41 c 1,26,27
 144 -88 144 -88 152.5 -108 c 128,-1,28
 161 -128 161 -128 161 -149 c 0,29,30
 161 -165 161 -165 146 -172.5 c 128,-1,31
 131 -180 131 -180 93 -182 c 1,32,33
 67 -169 67 -169 51.5 -108.5 c 128,-1,34
 36 -48 36 -48 46 34 c 1,35,36
 68 109 68 109 133 156.5 c 128,-1,37
 198 204 198 204 326 196 c 1,38,39
 438 180 438 180 474 120 c 128,-1,40
 510 60 510 60 510 -15 c 0,0,1
EndSplineSet
EndChar

StartChar: M
Encoding: 77 77 80
Width: 1073
VWidth: 345
Flags: W
LayerCount: 2
Fore
SplineSet
661 430 m 1,0,-1
 536 740 l 1,1,-1
 397 430 l 1,2,-1
 661 430 l 1,0,-1
757 366 m 1,3,-1
 333 366 l 1,4,-1
 557 866 l 1,5,-1
 757 366 l 1,3,-1
859 661 m 0,6,7
 866 676 866 676 891.5 680 c 128,-1,8
 917 684 917 684 928 650 c 0,9,10
 932 635 932 635 926 616 c 128,-1,11
 920 597 920 597 913 587 c 0,12,13
 889 557 889 557 882 546 c 128,-1,14
 875 535 875 535 869 512 c 0,15,16
 861 484 861 484 867 464.5 c 128,-1,17
 873 445 873 445 876 436 c 0,18,19
 884 416 884 416 905 420 c 0,20,21
 917 421 917 421 931.5 441 c 128,-1,22
 946 461 946 461 960 458 c 0,23,24
 974 455 974 455 976 435.5 c 128,-1,25
 978 416 978 416 966 393 c 0,26,27
 951 366 951 366 926 366 c 0,28,29
 919 366 919 366 903 367.5 c 128,-1,30
 887 369 887 369 882 375 c 0,31,32
 851 410 851 410 845 450 c 0,33,34
 838 492 838 492 838 516.5 c 128,-1,35
 838 541 838 541 841 578 c 0,36,37
 844 630 844 630 859 661 c 0,6,7
EndSplineSet
EndChar

StartChar: comma
Encoding: 44 44 81
Width: 0
VWidth: 345
Flags: W
LayerCount: 2
Fore
SplineSet
-784 96.5 m 128,-1,1
 -815 96 -815 96 -834.5 88.5 c 128,-1,2
 -854 81 -854 81 -875 58 c 1,3,4
 -894 31 -894 31 -905.5 26 c 128,-1,5
 -917 21 -917 21 -930 18.5 c 128,-1,6
 -943 16 -943 16 -944 7 c 128,-1,7
 -945 -2 -945 -2 -924.5 -4.5 c 128,-1,8
 -904 -7 -904 -7 -888.5 -8 c 128,-1,9
 -873 -9 -873 -9 -862.5 1.5 c 128,-1,10
 -852 12 -852 12 -842.5 27 c 128,-1,11
 -833 42 -833 42 -822 52 c 128,-1,12
 -811 62 -811 62 -792 66 c 128,-1,13
 -773 70 -773 70 -754.5 67 c 128,-1,14
 -736 64 -736 64 -713.5 54 c 128,-1,15
 -691 44 -691 44 -652 4 c 128,-1,16
 -613 -36 -613 -36 -580 -143 c 1,17,18
 -546 -241 -546 -241 -514 -317.5 c 128,-1,19
 -482 -394 -482 -394 -401 -452 c 1,20,21
 -335 -488 -335 -488 -281.5 -497 c 128,-1,22
 -228 -506 -228 -506 -221.5 -503 c 128,-1,23
 -215 -500 -215 -500 -212.5 -497 c 128,-1,24
 -210 -494 -210 -494 -210 -489 c 128,-1,25
 -210 -484 -210 -484 -216 -477 c 128,-1,26
 -222 -470 -222 -470 -229.5 -465.5 c 128,-1,27
 -237 -461 -237 -461 -247.5 -455.5 c 128,-1,28
 -258 -450 -258 -450 -279 -440 c 0,29,30
 -351 -404 -351 -404 -386 -362 c 128,-1,31
 -421 -320 -421 -320 -452.5 -258.5 c 128,-1,32
 -484 -197 -484 -197 -515 -139.5 c 128,-1,33
 -546 -82 -546 -82 -570 -45 c 128,-1,34
 -594 -8 -594 -8 -609.5 9.5 c 128,-1,35
 -625 27 -625 27 -645 44.5 c 128,-1,36
 -665 62 -665 62 -687 73.5 c 128,-1,37
 -709 85 -709 85 -731 91 c 128,-1,0
 -753 97 -753 97 -784 96.5 c 128,-1,1
EndSplineSet
EndChar

StartChar: period
Encoding: 46 46 82
Width: 0
VWidth: 345
Flags: W
LayerCount: 2
Fore
SplineSet
-1293.5 1177 m 128,-1,1
 -1284 1170 -1284 1170 -1270 1165 c 128,-1,2
 -1256 1160 -1256 1160 -1236 1156.5 c 128,-1,3
 -1216 1153 -1216 1153 -1171 1150 c 1,4,5
 -1065 1150 -1065 1150 -952.5 1150 c 128,-1,6
 -840 1150 -840 1150 -810.5 1149.5 c 128,-1,7
 -781 1149 -781 1149 -770 1147.5 c 128,-1,8
 -759 1146 -759 1146 -753 1139 c 128,-1,9
 -747 1132 -747 1132 -748 1123.5 c 128,-1,10
 -749 1115 -749 1115 -755.5 1107 c 128,-1,11
 -762 1099 -762 1099 -782 1077 c 2,12,-1
 -881 970 l 2,13,14
 -889 958 -889 958 -889 950.5 c 128,-1,15
 -889 943 -889 943 -881.5 940.5 c 128,-1,16
 -874 938 -874 938 -861.5 938.5 c 128,-1,17
 -849 939 -849 939 -781 943 c 128,-1,18
 -713 947 -713 947 -570 952 c 0,19,20
 -542 953 -542 953 -522 955.5 c 128,-1,21
 -502 958 -502 958 -490.5 961.5 c 128,-1,22
 -479 965 -479 965 -470 969.5 c 128,-1,23
 -461 974 -461 974 -456.5 978 c 128,-1,24
 -452 982 -452 982 -446.5 986.5 c 128,-1,25
 -441 991 -441 991 -436 993 c 128,-1,26
 -431 995 -431 995 -426 991 c 0,27,28
 -419 983 -419 983 -424 955 c 128,-1,29
 -429 927 -429 927 -435.5 921 c 128,-1,30
 -442 915 -442 915 -456 916 c 2,31,-1
 -958 916 l 2,32,33
 -982 916 -982 916 -994 917 c 128,-1,34
 -1006 918 -1006 918 -1009.5 925.5 c 128,-1,35
 -1013 933 -1013 933 -1000 946 c 2,36,-1
 -879 1074 l 1,37,-1
 -844 1109 l 1,38,39
 -841 1122 -841 1122 -858 1122 c 256,40,41
 -876 1122 -876 1122 -967.5 1122 c 128,-1,42
 -1059 1122 -1059 1122 -1216 1122 c 0,43,44
 -1237 1122 -1237 1122 -1258 1123.5 c 128,-1,45
 -1279 1125 -1279 1125 -1294.5 1128 c 128,-1,46
 -1310 1131 -1310 1131 -1322 1139 c 128,-1,47
 -1334 1147 -1334 1147 -1339 1153.5 c 128,-1,48
 -1344 1160 -1344 1160 -1347 1166.5 c 128,-1,49
 -1350 1173 -1350 1173 -1351.5 1179.5 c 128,-1,50
 -1353 1186 -1353 1186 -1353.5 1190.5 c 128,-1,51
 -1354 1195 -1354 1195 -1353.5 1199 c 128,-1,52
 -1353 1203 -1353 1203 -1351 1208.5 c 128,-1,53
 -1349 1214 -1349 1214 -1341.5 1214 c 128,-1,54
 -1334 1214 -1334 1214 -1327 1210 c 128,-1,55
 -1320 1206 -1320 1206 -1315.5 1201 c 128,-1,56
 -1311 1196 -1311 1196 -1307 1190 c 128,-1,0
 -1303 1184 -1303 1184 -1293.5 1177 c 128,-1,1
EndSplineSet
EndChar

StartChar: B
Encoding: 66 66 83
Width: 1128
VWidth: 345
Flags: W
LayerCount: 2
Fore
SplineSet
627 621 m 1,0,1
 673 610 673 610 696 586 c 0,2,3
 728 552 728 552 728 503 c 0,4,5
 728 465 728 465 707 432 c 0,6,7
 686 398 686 398 650 382 c 0,8,9
 612 366 612 366 538 366 c 2,10,-1
 329 366 l 1,11,-1
 329 380 l 1,12,-1
 345 380 l 2,13,14
 372 380 372 380 385 400 c 0,15,16
 393 413 393 413 393 455 c 2,17,-1
 393 778 l 2,18,19
 393 823 393 823 383 837 c 0,20,21
 370 853 370 853 345 853 c 2,22,-1
 329 853 l 1,23,-1
 329 866 l 1,24,-1
 521 866 l 2,25,26
 574 866 574 866 607 858 c 0,27,28
 655 844 655 844 682 810 c 0,29,30
 708 776 708 776 708 733 c 0,31,32
 708 695 708 695 687 665 c 0,33,34
 666 635 666 635 627 621 c 1,35,-1
 627 621 l 1,0,1
456 641 m 1,36,37
 482 636 482 636 517 636 c 0,38,39
 565 636 565 636 589 648 c 0,40,41
 613 660 613 660 626 683 c 0,42,43
 639 707 639 707 639 736 c 0,44,45
 639 779 639 779 607 811 c 0,46,47
 574 842 574 842 514 842 c 0,48,49
 482 842 482 842 456 834 c 1,50,-1
 456 641 l 1,36,37
456 402 m 1,51,52
 495 392 495 392 530 392 c 0,53,54
 590 392 590 392 621 422 c 0,55,56
 652 452 652 452 652 496 c 0,57,58
 652 524 652 524 638 553 c 0,59,60
 624 580 624 580 592 595 c 0,61,62
 560 611 560 611 511 611 c 0,63,64
 471 611 471 611 456 607 c 1,65,-1
 456 402 l 1,51,52
934 537 m 1,66,-1
 934 537 l 1,67,68
 883 512 883 512 864 494 c 0,69,70
 845 474 845 474 845 450 c 0,71,72
 845 423 845 423 865 406 c 0,73,74
 885 388 885 388 916 388 c 0,75,76
 947 387 947 387 967 407 c 0,77,78
 987 426 987 426 987 457 c 0,79,80
 987 483 987 483 974 502 c 0,81,82
 960 521 960 521 934 537 c 1,66,-1
879 559 m 1,83,-1
 879 559 l 1,84,85
 837 580 837 580 820 601 c 0,86,87
 800 624 800 624 800 652 c 0,88,89
 800 661 800 661 803 672 c 0,90,91
 805 682 805 682 810 691 c 1,92,-1
 840 691 l 1,93,94
 840 688 840 688 840 685 c 0,95,96
 838 664 838 664 838 663 c 0,97,98
 838 632 838 632 854 611 c 0,99,100
 869 590 869 590 903 574 c 1,101,102
 949 594 949 594 974 617 c 0,103,104
 997 639 997 639 997 665 c 0,105,106
 997 670 997 670 996 674 c 0,107,108
 996 676 996 676 995.5 680.5 c 128,-1,109
 995 685 995 685 995 691 c 1,110,-1
 1022 691 l 1,111,112
 1029 676 1029 676 1032 666 c 0,113,114
 1035 654 1035 654 1035 643 c 0,115,116
 1035 615 1035 615 1015 594 c 0,117,118
 994 571 994 571 956 553 c 1,119,120
 998 530 998 530 1017 507 c 0,121,122
 1035 485 1035 485 1035 456 c 0,123,124
 1035 416 1035 416 1002 391 c 0,125,126
 969 366 969 366 917 366 c 0,127,128
 867 366 867 366 834 394 c 0,129,130
 800 422 800 422 800 463 c 0,131,132
 800 491 800 491 820 515 c 0,133,134
 837 538 837 538 879 559 c 1,83,-1
EndSplineSet
EndChar

StartChar: greater
Encoding: 62 62 84
Width: 1289
VWidth: 345
Flags: W
LayerCount: 2
Fore
SplineSet
717 866 m 1,0,-1
 419 396 l 1,1,-1
 605 396 l 2,2,3
 647 396 647 396 670 417 c 0,4,5
 692 437 692 437 711 500 c 1,6,-1
 722 498 l 1,7,-1
 701 366 l 1,8,-1
 333 366 l 1,9,-1
 333 380 l 1,10,-1
 623 837 l 1,11,-1
 478 837 l 2,12,13
 442 837 442 837 426 827 c 0,14,15
 409 819 409 819 401 803 c 0,16,17
 393 788 393 788 386 741 c 1,18,-1
 373 741 l 1,19,-1
 382 866 l 1,20,-1
 403 867 l 1,21,-1
 433 863 l 1,22,-1
 717 866 l 1,0,-1
1048 679 m 1,23,24
 1096 679 1096 679 1127 649 c 0,25,26
 1193 586 1193 586 1193 507 c 0,27,28
 1193 465 1193 465 1178 434 c 0,29,30
 1165 407 1165 407 1139 386.5 c 128,-1,31
 1113 366 1113 366 1082 366 c 0,32,33
 1050 366 1050 366 1031 385 c 128,-1,34
 1012 404 1012 404 1000 430 c 1,35,36
 986 404 986 404 965 385 c 128,-1,37
 944 366 944 366 913 366 c 0,38,39
 882 366 882 366 858.5 387.5 c 128,-1,40
 835 409 835 409 824 436 c 0,41,42
 807 472 807 472 808 511 c 0,43,44
 810 562 810 562 833 602 c 0,45,46
 847 626 847 626 868 646 c 0,47,48
 879 656 879 656 895 650 c 128,-1,49
 911 644 911 644 902 621 c 0,50,51
 893 599 893 599 882.5 572.5 c 128,-1,52
 872 546 872 546 859 513 c 0,53,54
 847 485 847 485 856 436 c 128,-1,55
 865 387 865 387 923 387 c 0,56,57
 953 387 953 387 966 408 c 128,-1,58
 979 429 979 429 986 453 c 1,59,60
 966 502 966 502 969 551 c 0,61,62
 970 583 970 583 983 602 c 0,63,64
 989 613 989 613 999 614 c 256,65,66
 1009 614 1009 614 1016 602 c 0,67,68
 1029 581 1029 581 1029 553 c 0,69,70
 1029 517 1029 517 1009 462 c 1,71,72
 1016 437 1016 437 1029.5 413.5 c 128,-1,73
 1043 390 1043 390 1074 390 c 0,74,75
 1116 390 1116 390 1125 432 c 128,-1,76
 1134 474 1134 474 1134 505 c 0,77,78
 1134 547 1134 547 1125.5 574 c 128,-1,79
 1117 601 1117 601 1104 626 c 0,80,81
 1089 656 1089 656 1048 668 c 1,82,-1
 1048 679 l 1,23,24
EndSplineSet
EndChar

StartChar: slash
Encoding: 47 47 85
Width: 0
VWidth: 345
Flags: W
LayerCount: 2
Fore
SplineSet
-342 85 m 1,0,1
 -282 89 -282 89 -233.5 92 c 128,-1,2
 -185 95 -185 95 -123 93 c 1,3,4
 -110 89 -110 89 -112 75 c 128,-1,5
 -114 61 -114 61 -125 62 c 0,6,7
 -131 61 -131 61 -132 61.5 c 128,-1,8
 -133 62 -133 62 -141 62 c 0,9,10
 -186 60 -186 60 -227 18.5 c 128,-1,11
 -268 -23 -268 -23 -328.5 -73.5 c 128,-1,12
 -389 -124 -389 -124 -463 -187.5 c 128,-1,13
 -537 -251 -537 -251 -582 -283 c 128,-1,14
 -627 -315 -627 -315 -673 -329 c 128,-1,15
 -719 -343 -719 -343 -803.5 -351 c 128,-1,16
 -888 -359 -888 -359 -1001 -358 c 1,17,18
 -1091 -350 -1091 -350 -1171.5 -342 c 128,-1,19
 -1252 -334 -1252 -334 -1395 -304 c 1,20,21
 -1479 -284 -1479 -284 -1519 -271 c 128,-1,22
 -1559 -258 -1559 -258 -1631 -227 c 1,23,24
 -1634 -211 -1634 -211 -1619 -214.5 c 128,-1,25
 -1604 -218 -1604 -218 -1541 -237 c 0,26,27
 -1432 -266 -1432 -266 -1383 -274.5 c 128,-1,28
 -1334 -283 -1334 -283 -1253 -294 c 0,29,30
 -1125 -312 -1125 -312 -1064 -314.5 c 128,-1,31
 -1003 -317 -1003 -317 -918 -313 c 1,32,33
 -812 -300 -812 -300 -758 -276.5 c 128,-1,34
 -704 -253 -704 -253 -595 -130 c 1,35,36
 -505 -49 -505 -49 -446 13.5 c 128,-1,37
 -387 76 -387 76 -342 85 c 1,0,1
EndSplineSet
EndChar

StartChar: c
Encoding: 99 99 86
Width: 0
VWidth: 345
Flags: W
LayerCount: 2
Fore
SplineSet
-793 103 m 0,0,1
 -662 110 -662 110 -484 121 c 128,-1,2
 -306 132 -306 132 -175 127 c 0,3,4
 -61 124 -61 124 44 111.5 c 128,-1,5
 149 99 149 99 205 85 c 0,6,7
 262 70 262 70 308.5 35.5 c 128,-1,8
 355 1 355 1 362 -34 c 256,9,10
 369 -69 369 -69 363 -93 c 128,-1,11
 357 -117 357 -117 294 -149 c 1,12,13
 250 -160 250 -160 201.5 -163.5 c 128,-1,14
 153 -167 153 -167 117 -166 c 1,15,16
 102 -159 102 -159 114.5 -151.5 c 128,-1,17
 127 -144 127 -144 149.5 -131.5 c 128,-1,18
 172 -119 172 -119 195.5 -99.5 c 128,-1,19
 219 -80 219 -80 227 -50 c 0,20,21
 241 5 241 5 184 34 c 128,-1,22
 127 63 127 63 49 76 c 128,-1,23
 -29 89 -29 89 -106 91 c 128,-1,24
 -183 93 -183 93 -209 94 c 0,25,26
 -264 97 -264 97 -362.5 93 c 128,-1,27
 -461 89 -461 89 -556.5 82.5 c 128,-1,28
 -652 76 -652 76 -722.5 71 c 0,29,-1
 -793 66 l 1,30,31
 -807 69 -807 69 -806.5 85 c 128,-1,32
 -806 101 -806 101 -793 103 c 0,0,1
EndSplineSet
EndChar

StartChar: C
Encoding: 67 67 87
Width: 1238
VWidth: 345
Flags: W
LayerCount: 2
Fore
SplineSet
307 866 m 1,0,-1
 424 866 l 1,1,-1
 690 491 l 1,2,-1
 690 780 l 2,3,4
 690 825 690 825 681 837 c 0,5,6
 669 853 669 853 643 853 c 2,7,-1
 628 853 l 1,8,-1
 628 866 l 1,9,-1
 779 866 l 1,10,-1
 779 853 l 1,11,-1
 764 853 l 2,12,13
 737 853 737 853 725 833 c 0,14,15
 718 821 718 821 718 780 c 2,16,-1
 718 358 l 1,17,-1
 707 358 l 1,18,-1
 420 761 l 1,19,-1
 420 453 l 2,20,21
 420 406 420 406 429 395 c 0,22,23
 440 379 440 379 466 380 c 2,24,-1
 482 380 l 1,25,-1
 482 366 l 1,26,-1
 331 366 l 1,27,-1
 331 380 l 1,28,-1
 346 380 l 2,29,30
 374 380 374 380 385 399 c 0,31,32
 392 411 392 411 392 453 c 2,33,-1
 392 801 l 1,34,35
 371 829 371 829 359 837 c 0,36,37
 335 853 335 853 315 853 c 2,38,-1
 307 853 l 1,39,-1
 307 866 l 1,0,-1
880 366 m 1,40,41
 883 414 883 414 895.5 452 c 128,-1,42
 908 490 908 490 908 521 c 0,43,44
 908 560 908 560 895.5 588.5 c 128,-1,45
 883 617 883 617 858 617 c 0,46,47
 821 617 821 617 817 584 c 1,48,-1
 802 584 l 1,49,50
 807 633 807 633 828 655 c 0,51,52
 848 675 848 675 875 674 c 0,53,54
 904 673 904 673 919 626 c 128,-1,55
 934 579 934 579 936 555 c 1,56,57
 957 596 957 596 980 635.5 c 128,-1,58
 1003 675 1003 675 1048 675 c 0,59,60
 1111 675 1111 675 1120.5 618 c 128,-1,61
 1130 561 1130 561 1130 516 c 0,62,63
 1130 440 1130 440 1125 362 c 128,-1,64
 1120 284 1120 284 1125 211 c 0,65,66
 1126 176 1126 176 1114.5 163.5 c 128,-1,67
 1103 151 1103 151 1091 151 c 0,68,69
 1071 151 1071 151 1061.5 169.5 c 128,-1,70
 1052 188 1052 188 1055 207 c 0,71,72
 1064 268 1064 268 1073.5 304.5 c 128,-1,73
 1083 341 1083 341 1098 425 c 0,74,75
 1099 431 1099 431 1102 460.5 c 128,-1,76
 1105 490 1105 490 1106 524.5 c 128,-1,77
 1107 559 1107 559 1103 590 c 128,-1,78
 1099 621 1099 621 1085 631 c 0,79,80
 1048 657 1048 657 1029 630.5 c 128,-1,81
 1010 604 1010 604 995 576 c 0,82,83
 970 531 970 531 957.5 473.5 c 128,-1,84
 945 416 945 416 945 366 c 1,85,-1
 880 366 l 1,40,41
EndSplineSet
EndChar

StartChar: b
Encoding: 98 98 88
Width: 0
VWidth: 345
Flags: W
LayerCount: 2
Fore
SplineSet
-506 51 m 1,0,1
 -477 38 -477 38 -490 14 c 0,2,3
 -495 1 -495 1 -501 -7 c 128,-1,4
 -507 -15 -507 -15 -515 -20.5 c 128,-1,5
 -523 -26 -523 -26 -538 -10 c 0,6,7
 -553 8 -553 8 -567 19.5 c 128,-1,8
 -581 31 -581 31 -599.5 40 c 128,-1,9
 -618 49 -618 49 -642.5 53 c 128,-1,10
 -667 57 -667 57 -692.5 57 c 128,-1,11
 -718 57 -718 57 -742 54 c 128,-1,12
 -766 51 -766 51 -782 42.5 c 128,-1,13
 -798 34 -798 34 -805.5 28 c 128,-1,14
 -813 22 -813 22 -815 10.5 c 128,-1,15
 -817 -1 -817 -1 -797 -16 c 1,16,17
 -768 -44 -768 -44 -649.5 -114 c 128,-1,18
 -531 -184 -531 -184 -458 -272 c 0,19,20
 -434 -301 -434 -301 -414 -334.5 c 128,-1,21
 -394 -368 -394 -368 -391 -396.5 c 128,-1,22
 -388 -425 -388 -425 -394.5 -443 c 128,-1,23
 -401 -461 -401 -461 -417.5 -478 c 128,-1,24
 -434 -495 -434 -495 -455 -500 c 128,-1,25
 -476 -505 -476 -505 -498 -501.5 c 128,-1,26
 -520 -498 -520 -498 -541 -484 c 1,27,28
 -557 -469 -557 -469 -553.5 -461.5 c 128,-1,29
 -550 -454 -550 -454 -543 -454 c 0,30,31
 -535 -453 -535 -453 -522.5 -456 c 128,-1,32
 -510 -459 -510 -459 -495 -452 c 1,33,34
 -466 -434 -466 -434 -470.5 -370 c 128,-1,35
 -475 -306 -475 -306 -520 -261 c 0,36,37
 -610 -169 -610 -169 -717.5 -105.5 c 128,-1,38
 -825 -42 -825 -42 -852 -14 c 0,39,40
 -863 -4 -863 -4 -865.5 5 c 128,-1,41
 -868 14 -868 14 -866.5 25.5 c 128,-1,42
 -865 37 -865 37 -852.5 48.5 c 128,-1,43
 -840 60 -840 60 -816.5 69.5 c 128,-1,44
 -793 79 -793 79 -759.5 81.5 c 128,-1,45
 -726 84 -726 84 -707 84.5 c 128,-1,46
 -688 85 -688 85 -672 84 c 128,-1,47
 -656 83 -656 83 -637 81 c 128,-1,48
 -618 79 -618 79 -594.5 75 c 128,-1,49
 -571 71 -571 71 -554 66.5 c 128,-1,50
 -537 62 -537 62 -506 51 c 1,0,1
EndSplineSet
EndChar

StartChar: less
Encoding: 60 60 89
Width: 1198
VWidth: 345
Flags: W
LayerCount: 2
Fore
SplineSet
513 650 m 1,0,-1
 660 460 l 2,1,2
 691 418 691 418 724 398 c 0,3,4
 750 381 750 381 776 380 c 1,5,-1
 776 366 l 1,6,-1
 581 366 l 1,7,-1
 581 380 l 1,8,9
 598 380 598 380 606 387 c 0,10,11
 614 395 614 395 614 404 c 0,12,13
 614 411 614 411 610 419 c 0,14,15
 609 421 609 421 592 445 c 2,16,-1
 473 602 l 1,17,-1
 450 574 l 1,18,-1
 450 455 l 2,19,20
 450 406 450 406 459 395 c 0,21,22
 471 380 471 380 494 380 c 2,23,-1
 509 380 l 1,24,-1
 509 366 l 1,25,-1
 333 366 l 1,26,-1
 333 380 l 1,27,-1
 348 380 l 2,28,29
 372 380 372 380 384 398 c 0,30,31
 391 410 391 410 392 455 c 2,32,-1
 392 778 l 2,33,34
 392 815 392 815 388 828 c 0,35,36
 385 837 385 837 375 844 c 0,37,38
 362 853 362 853 348 853 c 2,39,-1
 333 853 l 1,40,-1
 333 866 l 1,41,-1
 509 866 l 1,42,-1
 509 853 l 1,43,-1
 494 853 l 2,44,45
 469 853 469 853 458 835 c 0,46,47
 450 823 450 823 450 778 c 2,48,-1
 450 625 l 1,49,-1
 545 732 l 2,50,51
 592 788 592 788 604 812 c 0,52,53
 608 821 608 821 608 831 c 256,54,55
 608 840 608 840 602 846 c 0,56,57
 595 853 595 853 581 853 c 2,58,-1
 571 853 l 1,59,-1
 571 866 l 1,60,-1
 722 866 l 1,61,-1
 722 853 l 1,62,63
 708 852 708 852 698 848 c 256,64,65
 687 845 687 845 670 832 c 0,66,67
 657 823 657 823 631 794 c 0,68,69
 628 790 628 790 613 771 c 128,-1,70
 598 752 598 752 570 719 c 2,71,-1
 513 650 l 1,0,-1
909 534 m 1,72,73
 884 543 884 543 864.5 558 c 128,-1,74
 845 573 845 573 845 603 c 0,75,76
 845 645 845 645 885 662.5 c 128,-1,77
 925 680 925 680 960 680 c 0,78,79
 980 680 980 680 1011 675 c 128,-1,80
 1042 670 1042 670 1056 652 c 0,81,82
 1066 640 1066 640 1065 629 c 0,83,84
 1065 603 1065 603 1038 602 c 0,85,86
 1016 602 1016 602 1003 618 c 128,-1,87
 990 634 990 634 958 634 c 0,88,89
 877 634 877 634 877 587 c 0,90,91
 877 550 877 550 936 543 c 0,92,93
 939 543 939 543 953 548 c 128,-1,94
 967 553 967 553 989 553 c 0,95,96
 1016 553 1016 553 1015 532 c 0,97,98
 1013 512 1013 512 985 512 c 0,99,100
 966 512 966 512 954 517 c 128,-1,101
 942 522 942 522 938 522 c 0,102,103
 910 522 910 522 890.5 502.5 c 128,-1,104
 871 483 871 483 871 456 c 0,105,106
 871 426 871 426 902 416 c 128,-1,107
 933 406 933 406 962 411 c 0,108,109
 1002 418 1002 418 1029.5 440.5 c 128,-1,110
 1057 463 1057 463 1081 480 c 0,111,112
 1092 488 1092 488 1095.5 481.5 c 128,-1,113
 1099 475 1099 475 1088 441 c 0,114,115
 1079 413 1079 413 1055 394 c 0,116,117
 1036 381 1036 381 1016.5 373.5 c 128,-1,118
 997 366 997 366 968 366 c 0,119,120
 930 366 930 366 886 385.5 c 128,-1,121
 842 405 842 405 842 452 c 0,122,123
 842 486 842 486 861.5 505 c 128,-1,124
 881 524 881 524 909 534 c 1,125,-1
 909 534 l 1,72,73
EndSplineSet
EndChar

StartChar: question
Encoding: 63 63 90
Width: 0
VWidth: 345
Flags: W
LayerCount: 2
Fore
SplineSet
-1083 -220 m 1,0,1
 -1110 -221 -1110 -221 -1141 -187 c 0,2,3
 -1178 -146 -1178 -146 -1179.5 -99.5 c 128,-1,4
 -1181 -53 -1181 -53 -1157 -24.5 c 128,-1,5
 -1133 4 -1133 4 -1081 22 c 0,6,7
 -1031 40 -1031 40 -970 23 c 1,8,9
 -918 3 -918 3 -895 -25 c 128,-1,10
 -872 -53 -872 -53 -873 -100.5 c 128,-1,11
 -874 -148 -874 -148 -927 -189 c 1,12,-1
 -251 -98 l 1,13,14
 -223 -98 -223 -98 -206.5 -102 c 128,-1,15
 -190 -106 -190 -106 -177.5 -112 c 128,-1,16
 -165 -118 -165 -118 -154.5 -126 c 128,-1,17
 -144 -134 -144 -134 -136 -144 c 128,-1,18
 -128 -154 -128 -154 -123.5 -165 c 128,-1,19
 -119 -176 -119 -176 -119 -184 c 128,-1,20
 -119 -192 -119 -192 -124 -194.5 c 128,-1,21
 -129 -197 -129 -197 -135 -197 c 128,-1,22
 -141 -197 -141 -197 -148 -194.5 c 128,-1,23
 -155 -192 -155 -192 -164 -189 c 128,-1,24
 -173 -186 -173 -186 -184.5 -182.5 c 128,-1,25
 -196 -179 -196 -179 -206 -177.5 c 128,-1,26
 -216 -176 -216 -176 -233 -175 c 1,27,-1
 -986 -220 l 1,28,-1
 -945 -161 l 1,29,30
 -920 -91 -920 -91 -946 -45 c 0,31,32
 -971 -2 -971 -2 -1029 2 c 1,33,34
 -1081 -1 -1081 -1 -1104 -44 c 1,35,36
 -1130 -88 -1130 -88 -1106 -160 c 1,37,-1
 -1083 -220 l 1,0,1
EndSplineSet
EndChar

StartChar: bracketleft
Encoding: 91 91 91
Width: 0
VWidth: 345
Flags: W
LayerCount: 2
Fore
SplineSet
-1137 29 m 1,0,1
 -1121 71 -1121 71 -1107.5 101.5 c 128,-1,2
 -1094 132 -1094 132 -1083 132 c 0,3,4
 -1053 137 -1053 137 -1015 137.5 c 128,-1,5
 -977 138 -977 138 -943 138 c 0,6,7
 -919 138 -919 138 -921 125.5 c 128,-1,8
 -923 113 -923 113 -939 110 c 0,9,10
 -952 108 -952 108 -961 99 c 128,-1,11
 -970 90 -970 90 -973 85 c 0,12,13
 -1008 -2 -1008 -2 -1027.5 -66.5 c 128,-1,14
 -1047 -131 -1047 -131 -1078 -143 c 1,15,16
 -1110 -147 -1110 -147 -1145.5 -148 c 128,-1,17
 -1181 -149 -1181 -149 -1215 -143 c 1,18,19
 -1230 -137 -1230 -137 -1225.5 -129.5 c 128,-1,20
 -1221 -122 -1221 -122 -1211 -119 c 0,21,22
 -1201 -117 -1201 -117 -1189 -96 c 0,23,24
 -1171 -64 -1171 -64 -1154 -16 c 1,25,-1
 -1992 -16 l 1,26,-1
 -2043 -19 l 2,27,28
 -2054 -19 -2054 -19 -2068 -19 c 128,-1,29
 -2082 -19 -2082 -19 -2093 -17 c 0,30,31
 -2114 -15 -2114 -15 -2113.5 7 c 128,-1,32
 -2113 29 -2113 29 -2091 29 c 2,33,-1
 -1137 29 l 1,0,1
EndSplineSet
EndChar

StartChar: braceleft
Encoding: 123 123 92
Width: 129
VWidth: 345
Flags: W
LayerCount: 2
Fore
SplineSet
-93 31 m 1,0,1
 -77 73 -77 73 -64 103.5 c 128,-1,2
 -51 134 -51 134 -39 134 c 0,3,4
 -9 138 -9 138 29 139 c 128,-1,5
 67 140 67 140 101 140 c 0,6,7
 124 140 124 140 122.5 127 c 128,-1,8
 121 114 121 114 104 111 c 0,9,10
 92 109 92 109 83 100.5 c 128,-1,11
 74 92 74 92 71 87 c 0,12,13
 36 0 36 0 16.5 -65 c 128,-1,14
 -3 -130 -3 -130 -34 -141 c 1,15,16
 -66 -145 -66 -145 -101.5 -146.5 c 128,-1,17
 -137 -148 -137 -148 -172 -141 c 1,18,19
 -187 -135 -187 -135 -182 -128 c 128,-1,20
 -177 -121 -177 -121 -167 -118 c 0,21,22
 -157 -116 -157 -116 -146 -94 c 0,23,24
 -136 -76 -136 -76 -127 -56 c 128,-1,25
 -118 -36 -118 -36 -110 -14 c 1,26,-1
 -948 -14 l 1,27,-1
 -1000 -17 l 2,28,29
 -1027 -18 -1027 -18 -1049 -16 c 0,30,31
 -1070 -14 -1070 -14 -1069.5 8.5 c 128,-1,32
 -1069 31 -1069 31 -1047 31 c 2,33,-1
 -93 31 l 1,0,1
EndSplineSet
EndChar

StartChar: S
Encoding: 83 83 93
Width: 18
VWidth: 345
Flags: W
LayerCount: 2
Fore
SplineSet
-465 1115 m 0,0,1
 -391 1115 -391 1115 -316.5 1115.5 c 128,-1,2
 -242 1116 -242 1116 -169 1117 c 1,3,4
 -164 1110 -164 1110 -165 1099 c 128,-1,5
 -166 1088 -166 1088 -168 1080 c 1,6,7
 -183 1077 -183 1077 -266.5 1077 c 128,-1,8
 -350 1077 -350 1077 -412 1077 c 1,9,10
 -412 1025 -412 1025 -409.5 971 c 128,-1,11
 -407 917 -407 917 -413 916 c 0,12,13
 -428 916 -428 916 -445.5 913.5 c 128,-1,14
 -463 911 -463 911 -476 916 c 0,15,16
 -477 916 -477 916 -478 926 c 0,17,18
 -477 927 l 0,19,-1
 -476 928 l 0,20,21
 -476 981 -476 981 -475.5 1014 c 128,-1,22
 -475 1047 -475 1047 -475 1099 c 0,23,24
 -475 1114 -475 1114 -465 1115 c 0,0,1
EndSplineSet
EndChar

StartChar: l
Encoding: 108 108 94
Width: 1469
VWidth: 345
Flags: W
LayerCount: 2
Fore
SplineSet
641 734 m 0,0,1
 675 734 675 734 712.5 733 c 128,-1,2
 750 732 750 732 780 728 c 1,3,4
 801 728 801 728 820 677 c 128,-1,5
 839 626 839 626 874 575 c 0,6,7
 886 557 886 557 896 556 c 0,8,9
 905 554 905 554 910 547.5 c 128,-1,10
 915 541 915 541 900 536 c 1,11,12
 865 531 865 531 829.5 532 c 128,-1,13
 794 533 794 533 762 536 c 1,14,15
 731 546 731 546 718.5 582.5 c 128,-1,16
 706 619 706 619 670 690 c 1,17,18
 660 706 660 706 637 710 c 0,19,20
 621 712 621 712 619 723 c 128,-1,21
 617 734 617 734 641 734 c 0,0,1
392 735 m 0,22,23
 422 735 422 735 455 734.5 c 128,-1,24
 488 734 488 734 514 729 c 1,25,26
 533 729 533 729 554 676.5 c 128,-1,27
 575 624 575 624 603 574 c 0,28,29
 613 556 613 556 622 554 c 0,30,31
 630 552 630 552 634.5 546 c 128,-1,32
 639 540 639 540 626 535 c 1,33,34
 595 530 595 530 564 531 c 128,-1,35
 533 532 533 532 505 535 c 1,36,37
 479 545 479 545 464 582 c 128,-1,38
 449 619 449 619 418 691 c 0,39,40
 415 695 415 695 407 703.5 c 128,-1,41
 399 712 399 712 389 714 c 0,42,43
 375 716 375 716 373 725 c 128,-1,44
 371 734 371 734 392 735 c 0,22,23
551 1022 m 0,45,46
 624 1022 624 1022 698.5 1022.5 c 128,-1,47
 773 1023 773 1023 847 1024 c 1,48,49
 852 1017 852 1017 851 1006 c 128,-1,50
 850 995 850 995 847 988 c 1,51,52
 832 985 832 985 748.5 985 c 128,-1,53
 665 985 665 985 604 985 c 1,54,55
 604 933 604 933 606 878.5 c 128,-1,56
 608 824 608 824 603 823 c 0,57,58
 587 823 587 823 569.5 821 c 128,-1,59
 552 819 552 819 540 823 c 0,60,61
 539 823 539 823 539 833 c 0,62,63
 539.5 834 l 0,64,65
 540 835 540 835 540 836 c 0,66,67
 540 889 540 889 541 921.5 c 128,-1,68
 542 954 542 954 542 1007 c 0,69,70
 542 1021 542 1021 551 1022 c 0,45,46
81 339 m 128,-1,72
 85 345 85 345 91 346 c 128,-1,73
 97 347 97 347 140.5 349 c 128,-1,74
 184 351 184 351 318 373 c 2,75,-1
 959 475 l 2,76,77
 1049 490 1049 490 1085 494 c 128,-1,78
 1121 498 1121 498 1153.5 497.5 c 128,-1,79
 1186 497 1186 497 1210.5 493 c 128,-1,80
 1235 489 1235 489 1268.5 482.5 c 128,-1,81
 1302 476 1302 476 1333 467 c 128,-1,82
 1364 458 1364 458 1391 446 c 128,-1,83
 1418 434 1418 434 1425.5 420.5 c 128,-1,84
 1433 407 1433 407 1423.5 403 c 128,-1,85
 1414 399 1414 399 1399.5 398.5 c 128,-1,86
 1385 398 1385 398 1360 398 c 128,-1,87
 1335 398 1335 398 1310.5 397.5 c 128,-1,88
 1286 397 1286 397 1239.5 392.5 c 128,-1,89
 1193 388 1193 388 1136 380 c 2,90,-1
 344 254 l 1,91,92
 296 249 296 249 277 249 c 128,-1,93
 258 249 258 249 242 250.5 c 128,-1,94
 226 252 226 252 211 256.5 c 128,-1,95
 196 261 196 261 179 267.5 c 128,-1,96
 162 274 162 274 143.5 283.5 c 128,-1,97
 125 293 125 293 106.5 305.5 c 128,-1,98
 88 318 88 318 82.5 325.5 c 128,-1,71
 77 333 77 333 81 339 c 128,-1,72
EndSplineSet
EndChar

StartChar: L
Encoding: 76 76 95
Width: 1469
VWidth: 345
Flags: W
LayerCount: 2
Fore
SplineSet
641 734 m 0,0,1
 675 734 675 734 712.5 733 c 128,-1,2
 750 732 750 732 780 728 c 1,3,4
 801 728 801 728 820 677 c 128,-1,5
 839 626 839 626 874 575 c 0,6,7
 886 557 886 557 896 556 c 0,8,9
 905 554 905 554 910 547.5 c 128,-1,10
 915 541 915 541 900 536 c 1,11,12
 865 531 865 531 829.5 532 c 128,-1,13
 794 533 794 533 762 536 c 1,14,15
 731 546 731 546 718.5 582.5 c 128,-1,16
 706 619 706 619 670 690 c 1,17,18
 660 706 660 706 637 710 c 0,19,20
 621 712 621 712 619 723 c 128,-1,21
 617 734 617 734 641 734 c 0,0,1
392 735 m 0,22,23
 422 735 422 735 455 734.5 c 128,-1,24
 488 734 488 734 514 729 c 1,25,26
 533 729 533 729 554 676.5 c 128,-1,27
 575 624 575 624 603 574 c 0,28,29
 613 556 613 556 622 554 c 0,30,31
 630 552 630 552 634.5 546 c 128,-1,32
 639 540 639 540 626 535 c 1,33,34
 595 530 595 530 564 531 c 128,-1,35
 533 532 533 532 505 535 c 1,36,37
 479 545 479 545 464 582 c 128,-1,38
 449 619 449 619 418 691 c 0,39,40
 415 695 415 695 407 703.5 c 128,-1,41
 399 712 399 712 389 714 c 0,42,43
 375 716 375 716 373 725 c 128,-1,44
 371 734 371 734 392 735 c 0,22,23
783 969 m 1,45,46
 783 1004 783 1004 784 1036 c 128,-1,47
 785 1068 785 1068 785 1107 c 0,48,49
 785 1119 785 1119 794 1121 c 0,50,51
 868 1121 868 1121 942.5 1121.5 c 128,-1,52
 1017 1122 1017 1122 1091 1123 c 1,53,54
 1099 1113 1099 1113 1091 1089 c 1,55,56
 1076 1086 1076 1086 992.5 1086.5 c 128,-1,57
 909 1087 909 1087 848 1087 c 1,58,59
 848 1039 848 1039 850 989.5 c 128,-1,60
 852 940 852 940 846 940 c 0,61,62
 838 938 838 938 830 936.5 c 128,-1,63
 822 935 822 935 784 936 c 1,64,65
 743 935 743 935 691 934 c 128,-1,66
 639 933 639 933 600 933 c 1,67,68
 600 885 600 885 601.5 835 c 128,-1,69
 603 785 603 785 598 785 c 0,70,71
 582 785 582 785 564.5 783 c 128,-1,72
 547 781 547 781 535 785 c 0,73,74
 534 785 534 785 533 795 c 1,75,76
 534 795.5 l 0,77,78
 535 796 535 796 535 797 c 0,79,80
 535 846 535 846 536.5 875 c 128,-1,81
 538 904 538 904 538 954 c 0,82,83
 538 966 538 966 547 968 c 0,84,85
 606 968 606 968 665 968.5 c 128,-1,86
 724 969 724 969 783 969 c 1,45,46
81 339 m 128,-1,88
 85 345 85 345 91 346 c 128,-1,89
 97 347 97 347 140.5 349 c 128,-1,90
 184 351 184 351 318 373 c 2,91,-1
 959 475 l 2,92,93
 1049 490 1049 490 1085 494 c 128,-1,94
 1121 498 1121 498 1153.5 497.5 c 128,-1,95
 1186 497 1186 497 1210.5 493 c 128,-1,96
 1235 489 1235 489 1268.5 482.5 c 128,-1,97
 1302 476 1302 476 1333 467 c 128,-1,98
 1364 458 1364 458 1391 446 c 128,-1,99
 1418 434 1418 434 1425.5 420.5 c 128,-1,100
 1433 407 1433 407 1423.5 403 c 128,-1,101
 1414 399 1414 399 1399.5 398.5 c 128,-1,102
 1385 398 1385 398 1360 398 c 128,-1,103
 1335 398 1335 398 1310.5 397.5 c 128,-1,104
 1286 397 1286 397 1239.5 392.5 c 128,-1,105
 1193 388 1193 388 1136 380 c 2,106,-1
 344 254 l 1,107,108
 296 249 296 249 277 249 c 128,-1,109
 258 249 258 249 242 250.5 c 128,-1,110
 226 252 226 252 211 256.5 c 128,-1,111
 196 261 196 261 179 267.5 c 128,-1,112
 162 274 162 274 143.5 283.5 c 128,-1,113
 125 293 125 293 106.5 305.5 c 128,-1,114
 88 318 88 318 82.5 325.5 c 128,-1,87
 77 333 77 333 81 339 c 128,-1,88
EndSplineSet
EndChar

StartChar: V
Encoding: 86 86 96
Width: 1245
VWidth: 345
Flags: W
LayerCount: 2
Fore
SplineSet
645 838 m 1,0,-1
 447 838 l 1,1,-1
 447 437 l 2,2,3
 447 406 447 406 458 393 c 256,4,5
 468 380 468 380 493 380 c 2,6,-1
 509 380 l 1,7,-1
 509 366 l 1,8,-1
 329 366 l 1,9,-1
 329 380 l 1,10,-1
 339 380 l 2,11,12
 364 380 364 380 375 393 c 0,13,14
 386 406 386 406 386 437 c 2,15,-1
 386 796 l 2,16,17
 386 827 386 827 375 840 c 0,18,19
 364 853 364 853 339 853 c 2,20,-1
 329 853 l 1,21,-1
 329 866 l 1,22,-1
 764 866 l 1,23,-1
 764 853 l 1,24,-1
 754 853 l 2,25,26
 728 853 728 853 718 840 c 0,27,28
 707 827 707 827 707 796 c 2,29,-1
 707 437 l 2,30,31
 707 406 707 406 718 393 c 0,32,33
 728 380 728 380 754 380 c 2,34,-1
 764 380 l 1,35,-1
 764 366 l 1,36,-1
 583 366 l 1,37,-1
 583 380 l 1,38,-1
 598 380 l 2,39,40
 623 380 623 380 634 393 c 0,41,42
 645 406 645 406 645 437 c 2,43,-1
 645 838 l 1,0,-1
1071 669 m 1,44,45
 1077 683 1077 683 1105 682 c 128,-1,46
 1133 681 1133 681 1133 662 c 0,47,48
 1133 651 1133 651 1119.5 627 c 128,-1,49
 1106 603 1106 603 1099 594 c 0,50,51
 1092 585 1092 585 1076.5 551.5 c 128,-1,52
 1061 518 1061 518 1046 488 c 1,53,54
 1046 483 1046 483 1050.5 469.5 c 128,-1,55
 1055 456 1055 456 1059 448 c 0,56,57
 1066 432 1066 432 1083 423 c 0,58,59
 1094 417 1094 417 1107 439 c 128,-1,60
 1120 461 1120 461 1134 458 c 0,61,62
 1148 455 1148 455 1150 435.5 c 128,-1,63
 1152 416 1152 416 1140 393 c 0,64,65
 1125 366 1125 366 1100 366 c 0,66,67
 1082 366 1082 366 1073 377 c 0,68,69
 1058 393 1058 393 1047.5 414.5 c 128,-1,70
 1037 436 1037 436 1029 457 c 1,71,72
 992 410 992 410 967 388 c 128,-1,73
 942 366 942 366 912 366 c 0,74,75
 853 366 853 366 828.5 411.5 c 128,-1,76
 804 457 804 457 810 515 c 0,77,78
 815 569 815 569 851.5 622.5 c 128,-1,79
 888 676 888 676 954 670 c 0,80,81
 985 667 985 667 1006 641 c 128,-1,82
 1027 615 1027 615 1031 584 c 1,83,84
 1041 607 1041 607 1049 627.5 c 128,-1,85
 1057 648 1057 648 1071 669 c 1,44,45
853 422 m 0,86,87
 875 404 875 404 900 411 c 128,-1,88
 925 418 925 418 943 433 c 0,89,90
 959 446 959 446 980.5 479 c 128,-1,91
 1002 512 1002 512 1010 533 c 0,92,93
 1013 543 1013 543 1012 564.5 c 128,-1,94
 1011 586 1011 586 1004 601 c 0,95,96
 988 631 988 631 951.5 623.5 c 128,-1,97
 915 616 915 616 893 603 c 0,98,99
 875 592 875 592 859.5 571.5 c 128,-1,100
 844 551 844 551 839 520 c 0,101,102
 833 489 833 489 835.5 461 c 128,-1,103
 838 433 838 433 853 422 c 0,86,87
EndSplineSet
EndChar

StartChar: m
Encoding: 109 109 97
Width: 612
VWidth: 345
Flags: W
LayerCount: 2
Fore
SplineSet
176 199 m 1,1,2
 139 96 139 96 125 47 c 128,-1,3
 111 -2 111 -2 96.5 -48 c 128,-1,4
 82 -94 82 -94 70 -143.5 c 128,-1,5
 58 -193 58 -193 51.5 -253.5 c 128,-1,6
 45 -314 45 -314 48.5 -365 c 128,-1,7
 52 -416 52 -416 65.5 -462 c 128,-1,8
 79 -508 79 -508 99 -536 c 128,-1,9
 119 -564 119 -564 149 -586.5 c 128,-1,10
 179 -609 179 -609 241 -615 c 1,11,12
 280 -615 280 -615 313.5 -594.5 c 128,-1,13
 347 -574 347 -574 384 -521 c 1,14,15
 394 -570 394 -570 413.5 -589 c 128,-1,16
 433 -608 433 -608 482 -614 c 1,17,18
 529 -611 529 -611 546 -603.5 c 128,-1,19
 563 -596 563 -596 585 -571 c 1,20,-1
 582 -549 l 1,21,22
 567 -557 567 -557 553.5 -561.5 c 128,-1,23
 540 -566 540 -566 514 -563 c 0,24,25
 497 -560 497 -560 483.5 -545 c 128,-1,26
 470 -530 470 -530 468 -504 c 128,-1,27
 466 -478 466 -478 493.5 -356.5 c 128,-1,28
 521 -235 521 -235 530.5 -195 c 128,-1,29
 540 -155 540 -155 518.5 -155 c 128,-1,30
 497 -155 497 -155 475.5 -155 c 128,-1,31
 454 -155 454 -155 447 -195.5 c 128,-1,32
 440 -236 440 -236 433 -277.5 c 128,-1,33
 426 -319 426 -319 416 -359.5 c 128,-1,34
 406 -400 406 -400 395 -432.5 c 128,-1,35
 384 -465 384 -465 371.5 -488 c 128,-1,36
 359 -511 359 -511 334.5 -527.5 c 128,-1,37
 310 -544 310 -544 272 -547 c 1,38,39
 228 -541 228 -541 204.5 -529 c 128,-1,40
 181 -517 181 -517 160 -490.5 c 128,-1,41
 139 -464 139 -464 128.5 -419.5 c 128,-1,42
 118 -375 118 -375 119 -333.5 c 128,-1,43
 120 -292 120 -292 126 -241 c 128,-1,44
 132 -190 132 -190 151 -134 c 128,-1,45
 170 -78 170 -78 194 -26.5 c 128,-1,46
 218 25 218 25 250 79 c 128,-1,47
 282 133 282 133 306 166.5 c 128,-1,48
 330 200 330 200 342 224 c 128,-1,49
 354 248 354 248 306 244 c 1,50,0
 193 253 193 253 176 199 c 1,1,2
EndSplineSet
EndChar

StartChar: u
Encoding: 117 117 98
Width: 0
VWidth: 345
Flags: W
LayerCount: 2
Fore
SplineSet
-70 693 m 2,0,1
 -69 706 -69 706 -54.5 705 c 128,-1,2
 -40 704 -40 704 -39 693 c 2,3,-1
 -39 30 l 2,4,5
 -39 15 l 1,6,7
 -45 2 -45 2 -57.5 4 c 128,-1,8
 -70 6 -70 6 -70 15 c 2,9,-1
 -70 678 l 2,10,11
 -70 693 l 2,0,1
-71 248 m 257,12,13
 -71 248 l 1,14,-1
 -71 248 l 257,15,16
 -71 248 l 1,17,-1
 -71 248 l 257,18,19
 -71 248 l 1,20,-1
 -71 248 l 257,21,22
 -71 248 l 1,23,-1
 -71 248 l 257,12,13
47 693 m 2,24,25
 48 706 48 706 63 705 c 128,-1,26
 78 704 78 704 79 693 c 2,27,-1
 79 30 l 2,28,29
 79 15 l 1,30,31
 73 2 73 2 60 4 c 128,-1,32
 47 6 47 6 47 15 c 2,33,-1
 47 678 l 2,34,35
 47 693 l 2,24,25
EndSplineSet
EndChar

StartChar: i
Encoding: 105 105 99
Width: 1513
VWidth: 345
Flags: W
LayerCount: 2
Fore
SplineSet
98 443 m 1,0,1
 60 512 60 512 77.5 561.5 c 128,-1,2
 95 611 95 611 140 614 c 0,3,4
 169 616 169 616 184.5 609.5 c 128,-1,5
 200 603 200 603 212 596.5 c 128,-1,6
 224 590 224 590 234.5 582.5 c 128,-1,7
 245 575 245 575 254 567 c 128,-1,8
 263 559 263 559 267 552.5 c 128,-1,9
 271 546 271 546 270.5 540.5 c 128,-1,10
 270 535 270 535 266 533 c 128,-1,11
 262 531 262 531 244.5 524 c 128,-1,12
 227 517 227 517 199 501.5 c 128,-1,13
 171 486 171 486 172 449 c 0,14,15
 172 411 172 411 251.5 377.5 c 128,-1,16
 331 344 331 344 486 350 c 1,17,-1
 1221 369 l 2,18,19
 1254 369 1254 369 1273.5 364.5 c 128,-1,20
 1293 360 1293 360 1309 353 c 128,-1,21
 1325 346 1325 346 1336 339.5 c 128,-1,22
 1347 333 1347 333 1362 319.5 c 128,-1,23
 1377 306 1377 306 1397 285 c 128,-1,24
 1417 264 1417 264 1423 254 c 128,-1,25
 1429 244 1429 244 1429 234.5 c 128,-1,26
 1429 225 1429 225 1423 222 c 128,-1,27
 1417 219 1417 219 1409.5 219 c 128,-1,28
 1402 219 1402 219 1394 222 c 128,-1,29
 1386 225 1386 225 1374.5 229 c 128,-1,30
 1363 233 1363 233 1349 237 c 128,-1,31
 1335 241 1335 241 1323.5 243 c 128,-1,32
 1312 245 1312 245 1291 246 c 2,33,-1
 895 252 l 2,34,35
 803 252 803 252 701.5 259.5 c 128,-1,36
 600 267 600 267 510 279 c 128,-1,37
 420 291 420 291 352 305 c 128,-1,38
 284 319 284 319 259 328 c 0,39,40
 216 346 216 346 182.5 363.5 c 128,-1,41
 149 381 149 381 98 443 c 1,0,1
EndSplineSet
EndChar

StartChar: H
Encoding: 72 72 100
Width: 18
VWidth: 345
Flags: W
LayerCount: 2
Fore
SplineSet
-465 1061 m 0,0,1
 -391 1061 -391 1061 -316.5 1061.5 c 128,-1,2
 -242 1062 -242 1062 -169 1063 c 1,3,4
 -164 1056 -164 1056 -165 1045 c 128,-1,5
 -166 1034 -166 1034 -168 1027 c 1,6,7
 -183 1024 -183 1024 -266.5 1024 c 128,-1,8
 -350 1024 -350 1024 -412 1024 c 1,9,10
 -412 972 -412 972 -409.5 917.5 c 128,-1,11
 -407 863 -407 863 -413 862 c 0,12,13
 -428 862 -428 862 -445.5 860 c 128,-1,14
 -463 858 -463 858 -476 862 c 0,15,16
 -477 862 -477 862 -478 872 c 0,17,18
 -477 873 l 0,19,20
 -476 874 -476 874 -476 875 c 0,21,22
 -476 928 -476 928 -475.5 960.5 c 128,-1,23
 -475 993 -475 993 -475 1046 c 0,24,25
 -475 1060 -475 1060 -465 1061 c 0,0,1
-601 1029 m 2,26,-1
 -558 1029 l 2,27,28
 -554 1029 -554 1029 -546.5 1029 c 128,-1,29
 -539 1029 -539 1029 -536 1026 c 128,-1,30
 -533 1023 -533 1023 -537 1023 c 128,-1,31
 -541 1023 -541 1023 -544 1007 c 2,32,-1
 -548 973 l 2,33,34
 -550 951 -550 951 -569 951 c 2,35,-1
 -611 951 l 2,36,37
 -614 951 -614 951 -623.5 951.5 c 128,-1,38
 -633 952 -633 952 -634 956 c 0,39,40
 -634 960 -634 960 -630.5 961.5 c 128,-1,41
 -627 963 -627 963 -626 973 c 2,42,-1
 -622 1007 l 2,43,44
 -618 1029 -618 1029 -601 1029 c 2,26,-1
EndSplineSet
EndChar

StartChar: h
Encoding: 104 104 101
Width: 18
VWidth: 345
Flags: W
LayerCount: 2
Fore
SplineSet
-794 870 m 0,0,1
 -720 870 -720 870 -645.5 870.5 c 128,-1,2
 -571 871 -571 871 -498 872 c 1,3,4
 -493 865 -493 865 -494 854 c 128,-1,5
 -495 843 -495 843 -498 836 c 1,6,7
 -513 833 -513 833 -596 832.5 c 128,-1,8
 -679 832 -679 832 -741 832 c 1,9,10
 -741 781 -741 781 -738.5 716 c 128,-1,11
 -736 651 -736 651 -742 651 c 0,12,13
 -757 651 -757 651 -774.5 648.5 c 128,-1,14
 -792 646 -792 646 -805 651 c 0,15,16
 -807 651 -807 651 -807 660 c 0,17,18
 -806 661 l 0,19,-1
 -805 662 l 0,20,21
 -805 715 -805 715 -804.5 758.5 c 128,-1,22
 -804 802 -804 802 -804 855 c 0,23,24
 -804 868 -804 868 -794 870 c 0,0,1
-930 838 m 2,25,-1
 -887 838 l 2,26,27
 -883 838 -883 838 -875.5 837.5 c 128,-1,28
 -868 837 -868 837 -865 835 c 0,29,30
 -862 832 -862 832 -866 832 c 128,-1,31
 -870 832 -870 832 -873 816 c 2,32,-1
 -877 782 l 2,33,34
 -879 760 -879 760 -898 760 c 2,35,-1
 -940 760 l 2,36,37
 -943 760 -943 760 -952.5 760.5 c 128,-1,38
 -962 761 -962 761 -963 765 c 0,39,40
 -963 769 -963 769 -959.5 770.5 c 128,-1,41
 -956 772 -956 772 -955 782 c 2,42,-1
 -950 816 l 2,43,44
 -948 838 -948 838 -930 838 c 2,25,-1
EndSplineSet
EndChar

StartChar: J
Encoding: 74 74 102
Width: 1627
VWidth: 345
Flags: W
LayerCount: 2
Fore
SplineSet
443 1097 m 0,0,1
 443 1110 443 1110 453 1112 c 0,2,3
 512 1112 512 1112 571 1112.5 c 128,-1,4
 630 1113 630 1113 688 1114 c 1,5,6
 688 1150 688 1150 688.5 1161 c 128,-1,7
 689 1172 689 1172 689 1212 c 0,8,9
 689 1225 689 1225 699 1227 c 0,10,11
 772 1227 772 1227 846.5 1227.5 c 128,-1,12
 921 1228 921 1228 995 1229 c 1,13,14
 1000 1223 1000 1223 999 1212 c 128,-1,15
 998 1201 998 1201 996 1194 c 1,16,17
 981 1191 981 1191 897 1191 c 128,-1,18
 813 1191 813 1191 752 1191 c 1,19,20
 752 1141 752 1141 754.5 1112 c 128,-1,21
 757 1083 757 1083 751 1083 c 0,22,23
 742 1081 742 1081 735 1079.5 c 128,-1,24
 728 1078 728 1078 690 1079 c 1,25,26
 649 1078 649 1078 597 1077 c 128,-1,27
 545 1076 545 1076 506 1076 c 1,28,29
 506 1073 506 1073 506 1069.5 c 128,-1,30
 506 1066 506 1066 506 1063 c 1,31,-1
 506 1063 l 1,32,33
 506 968 506 968 505 968 c 0,34,35
 496 967 496 967 488.5 965 c 128,-1,36
 481 963 481 963 443 964 c 0,37,38
 402 964 402 964 350 962.5 c 128,-1,39
 298 961 298 961 259 961 c 1,40,41
 258 854 258 854 257 854 c 0,42,43
 241 854 241 854 224 851.5 c 128,-1,44
 207 849 207 849 194 854 c 0,45,46
 193 854 193 854 193 864 c 1,47,48
 193.5 864.5 l 0,49,50
 194 865 194 865 194 866 c 0,51,52
 194 917 194 917 195.5 924 c 128,-1,53
 197 931 197 931 197 983 c 0,54,55
 197 996 197 996 206 997 c 0,56,57
 265 997 265 997 324 997.5 c 128,-1,58
 383 998 383 998 442 998 c 1,59,60
 442 1023 442 1023 442.5 1047.5 c 128,-1,61
 443 1072 443 1072 443 1097 c 0,0,1
1149 822 m 0,62,63
 1179 822 1179 822 1212 821 c 128,-1,64
 1245 820 1245 820 1271 815 c 1,65,66
 1290 815 1290 815 1314 764 c 128,-1,67
 1338 713 1338 713 1367 652 c 0,68,69
 1375 631 1375 631 1386 629 c 0,70,71
 1393 626 1393 626 1397.5 618.5 c 128,-1,72
 1402 611 1402 611 1389 605 c 1,73,74
 1359 599 1359 599 1327.5 600 c 128,-1,75
 1296 601 1296 601 1269 605 c 1,76,77
 1243 617 1243 617 1224.5 649.5 c 128,-1,78
 1206 682 1206 682 1175 768 c 0,79,80
 1172 773 1172 773 1164 784 c 128,-1,81
 1156 795 1156 795 1146 797 c 0,82,83
 1132 799 1132 799 1130 810.5 c 128,-1,84
 1128 822 1128 822 1149 822 c 0,62,63
879 822 m 0,85,86
 909 822 909 822 942 821 c 128,-1,87
 975 820 975 820 1001 815 c 1,88,89
 1020 815 1020 815 1044 764 c 128,-1,90
 1068 713 1068 713 1096 652 c 0,91,92
 1105 631 1105 631 1115 629 c 0,93,94
 1123 626 1123 626 1127.5 618.5 c 128,-1,95
 1132 611 1132 611 1119 605 c 1,96,97
 1088 599 1088 599 1057 600 c 128,-1,98
 1026 601 1026 601 998 605 c 1,99,100
 972 617 972 617 954 649.5 c 128,-1,101
 936 682 936 682 905 768 c 0,102,103
 902 773 902 773 894 784 c 128,-1,104
 886 795 886 795 875 797 c 0,105,106
 861 799 861 799 859.5 810.5 c 128,-1,107
 858 822 858 822 879 822 c 0,85,86
561 842 m 0,108,109
 584 841 584 841 582.5 829.5 c 128,-1,110
 581 818 581 818 564 815 c 0,111,112
 551 813 551 813 542 805.5 c 128,-1,113
 533 798 533 798 531 793 c 0,114,115
 495 715 495 715 475.5 657 c 128,-1,116
 456 599 456 599 426 589 c 1,117,118
 394 586 394 586 358 584.5 c 128,-1,119
 322 583 322 583 288 589 c 1,120,121
 273 594 273 594 278 600.5 c 128,-1,122
 283 607 283 607 292 610 c 0,123,124
 302 613 302 613 314 631 c 0,125,126
 349 687 349 687 374 761 c 128,-1,127
 399 835 399 835 421 835 c 1,128,129
 451 839 451 839 488.5 840.5 c 128,-1,130
 526 842 526 842 561 842 c 0,108,109
81.5 330 m 128,-1,132
 85 336 85 336 91 337 c 128,-1,133
 97 338 97 338 141 340 c 128,-1,134
 185 342 185 342 318 364 c 2,135,-1
 1080 484 l 2,136,137
 1170 499 1170 499 1206 503 c 128,-1,138
 1242 507 1242 507 1274.5 506.5 c 128,-1,139
 1307 506 1307 506 1331.5 502 c 128,-1,140
 1356 498 1356 498 1389.5 491.5 c 128,-1,141
 1423 485 1423 485 1454 476.5 c 128,-1,142
 1485 468 1485 468 1512.5 456 c 128,-1,143
 1540 444 1540 444 1547 430.5 c 128,-1,144
 1554 417 1554 417 1544.5 412.5 c 128,-1,145
 1535 408 1535 408 1520.5 407.5 c 128,-1,146
 1506 407 1506 407 1481 407 c 128,-1,147
 1456 407 1456 407 1431.5 406.5 c 128,-1,148
 1407 406 1407 406 1360.5 402 c 128,-1,149
 1314 398 1314 398 1257 389 c 2,150,-1
 345 245 l 1,151,152
 297 240 297 240 278 240 c 128,-1,153
 259 240 259 240 243 241.5 c 128,-1,154
 227 243 227 243 212 247 c 128,-1,155
 197 251 197 251 180 257.5 c 128,-1,156
 163 264 163 264 144.5 273.5 c 128,-1,157
 126 283 126 283 107 296 c 128,-1,158
 88 309 88 309 83 316.5 c 128,-1,131
 78 324 78 324 81.5 330 c 128,-1,132
EndSplineSet
EndChar

